  0
SECTION
  2
HEADER
  9
$ACADVER
  1
AC1014
  9
$HANDSEED
  5
FFFF
  9
$MEASUREMENT
 70
     1
  0
ENDSEC
  0
SECTION
  2
TABLES
  0
TABLE
  2
VPORT
  5
8
330
0
100
AcDbSymbolTable
 70
     4
  0
VPORT
  5
2E
330
8
100
AcDbSymbolTableRecord
100
AcDbViewportTableRecord
  2
*ACTIVE
 70
     0
 10
0.0
 20
0.0
 11
1.0
 21
1.0
 12
210.0
 22
148.5
 13
0.0
 23
0.0
 14
10.0
 24
10.0
 15
10.0
 25
10.0
 16
0.0
 26
0.0
 36
1.0
 17
0.0
 27
0.0
 37
0.0
 40
341.0
 41
1.24
 42
50.0
 43
0.0
 44
0.0
 50
0.0
 51
0.0
 71
     0
 72
   100
 73
     1
 74
     3
 75
     0
 76
     0
 77
     0
 78
     0
  0
ENDTAB
  0
TABLE
  2
LTYPE
  5
5
330
0
100
AcDbSymbolTable
 70
     1
  0
LTYPE
  5
14
330
5
100
AcDbSymbolTableRecord
100
AcDbLinetypeTableRecord
  2
BYBLOCK
 70
     0
  3

 72
    65
 73
     0
 40
0.0
  0
LTYPE
  5
15
330
5
100
AcDbSymbolTableRecord
100
AcDbLinetypeTableRecord
  2
BYLAYER
 70
     0
  3

 72
    65
 73
     0
 40
0.0
  0
LTYPE
  5
16
330
5
100
AcDbSymbolTableRecord
100
AcDbLinetypeTableRecord
  2
CONTINUOUS
 70
     0
  3
Solid line
 72
    65
 73
     0
 40
0.0
  0
ENDTAB
  0
TABLE
  2
LAYER
  5
2
100
AcDbSymbolTable
 70
2
  0
LAYER
  5
50
100
AcDbSymbolTableRecord
100
AcDbLayerTableRecord
  2
0
 70
0
  6
CONTINUOUS
  0
LAYER
  5
51
100
AcDbSymbolTableRecord
100
AcDbLayerTableRecord
  2
Layer_1
 70
0
  6
CONTINUOUS
  0
ENDTAB
  0
TABLE
  2
STYLE
  5
3
330
0
100
AcDbSymbolTable
 70
     1
  0
STYLE
  5
11
330
3
100
AcDbSymbolTableRecord
100
AcDbTextStyleTableRecord
  2
STANDARD
 70
     0
 40
0.0
 41
1.0
 50
0.0
 71
     0
 42
2.5
  3
txt
  4

  0
ENDTAB
  0
TABLE
  2
VIEW
  5
6
330
0
100
AcDbSymbolTable
 70
     0
  0
ENDTAB
  0
TABLE
  2
UCS
  5
7
330
0
100
AcDbSymbolTable
 70
     0
  0
ENDTAB
  0
TABLE
  2
APPID
  5
9
330
0
100
AcDbSymbolTable
 70
     2
  0
APPID
  5
12
330
9
100
AcDbSymbolTableRecord
100
AcDbRegAppTableRecord
  2
ACAD
 70
     0
  0
ENDTAB
  0
TABLE
  2
DIMSTYLE
  5
A
330
0
100
AcDbSymbolTable
 70
     1
  0
DIMSTYLE
105
27
330
A
100
AcDbSymbolTableRecord
100
AcDbDimStyleTableRecord
  2
ISO-25
 70
     0
  3

  4

  5

  6

  7

 40
1.0
 41
2.5
 42
0.625
 43
3.75
 44
1.25
 45
0.0
 46
0.0
 47
0.0
 48
0.0
140
2.5
141
2.5
142
0.0
143
0.03937007874016
144
1.0
145
0.0
146
1.0
147
0.625
 71
     0
 72
     0
 73
     0
 74
     0
 75
     0
 76
     0
 77
     1
 78
     8
170
     0
171
     3
172
     1
173
     0
174
     0
175
     0
176
     0
177
     0
178
     0
270
     2
271
     2
272
     2
273
     2
274
     3
340
11
275
     0
280
     0
281
     0
282
     0
283
     0
284
     8
285
     0
286
     0
287
     3
288
     0
  0
ENDTAB
  0
TABLE
  2
BLOCK_RECORD
  5
1
330
0
100
AcDbSymbolTable
 70
     1
  0
BLOCK_RECORD
  5
1F
330
1
100
AcDbSymbolTableRecord
100
AcDbBlockTableRecord
  2
*MODEL_SPACE
  0
BLOCK_RECORD
  5
1B
330
1
100
AcDbSymbolTableRecord
100
AcDbBlockTableRecord
  2
*PAPER_SPACE
  0
ENDTAB
  0
ENDSEC
  0
SECTION
  2
BLOCKS
  0
BLOCK
  5
20
330
1F
100
AcDbEntity
  8
0
100
AcDbBlockBegin
  2
*MODEL_SPACE
 70
     0
 10
0.0
 20
0.0
 30
0.0
  3
*MODEL_SPACE
  1

  0
ENDBLK
  5
21
330
1F
100
AcDbEntity
  8
0
100
AcDbBlockEnd
  0
BLOCK
  5
1C
330
1B
100
AcDbEntity
 67
     1
  8
0
100
AcDbBlockBegin
  2
*PAPER_SPACE
  1

  0
ENDBLK
  5
1D
330
1B
100
AcDbEntity
 67
     1
  8
0
100
AcDbBlockEnd
  0
ENDSEC
  0
SECTION
  2
ENTITIES
  0
SPLINE
  5
100
100
AcDbEntity
  8
Layer_1
 62
7
100
AcDbSpline
 70
8
 71
3
 72
8
 73
4
 74
0
 40
0
 40
0
 40
0
 40
0
 40
1
 40
1
 40
1
 40
1
 10
189.099977
 20
142.000018
 30
0.0
 10
183.559978
 20
142.000018
 30
0.0
 10
179.099978
 20
146.460018
 30
0.0
 10
179.099978
 20
152.000018
 30
0.0
  0
LINE
  5
101
100
AcDbEntity
  8
Layer_1
 62
7
100
AcDbLine
 10
179.099978
 20
152.000018
 30
0.0
 11
179.099978
 21
273.900006
 31
0.0
  0
SPLINE
  5
102
100
AcDbEntity
  8
Layer_1
 62
7
100
AcDbSpline
 70
8
 71
3
 72
8
 73
4
 74
0
 40
0
 40
0
 40
0
 40
0
 40
1
 40
1
 40
1
 40
1
 10
179.099978
 20
273.900006
 30
0.0
 10
179.099978
 20
279.440005
 30
0.0
 10
183.559978
 20
283.900005
 30
0.0
 10
189.099977
 20
283.900005
 30
0.0
  0
LINE
  5
103
100
AcDbEntity
  8
Layer_1
 62
7
100
AcDbLine
 10
189.099977
 20
283.900005
 30
0.0
 11
350.999939
 21
283.900005
 31
0.0
  0
SPLINE
  5
104
100
AcDbEntity
  8
Layer_1
 62
7
100
AcDbSpline
 70
8
 71
3
 72
8
 73
4
 74
0
 40
0
 40
0
 40
0
 40
0
 40
1
 40
1
 40
1
 40
1
 10
350.999939
 20
283.900005
 30
0.0
 10
356.539961
 20
283.900005
 30
0.0
 10
360.999947
 20
279.440005
 30
0.0
 10
360.999947
 20
273.900006
 30
0.0
  0
LINE
  5
105
100
AcDbEntity
  8
Layer_1
 62
7
100
AcDbLine
 10
360.999947
 20
273.900006
 30
0.0
 11
360.999947
 21
152.000018
 31
0.0
  0
SPLINE
  5
106
100
AcDbEntity
  8
Layer_1
 62
7
100
AcDbSpline
 70
8
 71
3
 72
8
 73
4
 74
0
 40
0
 40
0
 40
0
 40
0
 40
1
 40
1
 40
1
 40
1
 10
360.999947
 20
152.000018
 30
0.0
 10
360.999947
 20
146.460018
 30
0.0
 10
356.539961
 20
142.000018
 30
0.0
 10
350.999939
 20
142.000018
 30
0.0
  0
LINE
  5
107
100
AcDbEntity
  8
Layer_1
 62
1
100
AcDbLine
 10
184.099982
 20
171.722159
 30
0.0
 11
189.899981
 21
171.722159
 31
0.0
  0
LINE
  5
108
100
AcDbEntity
  8
Layer_1
 62
1
100
AcDbLine
 10
189.899981
 20
171.722159
 30
0.0
 11
189.899981
 21
161.722162
 31
0.0
  0
LINE
  5
109
100
AcDbEntity
  8
Layer_1
 62
1
100
AcDbLine
 10
189.899981
 20
161.722162
 30
0.0
 11
184.099982
 21
161.722162
 31
0.0
  0
LINE
  5
10a
100
AcDbEntity
  8
Layer_1
 62
1
100
AcDbLine
 10
184.099982
 20
161.722162
 30
0.0
 11
184.099982
 21
171.722159
 31
0.0
  0
LINE
  5
10b
100
AcDbEntity
  8
Layer_1
 62
1
100
AcDbLine
 10
184.099982
 20
188.722156
 30
0.0
 11
189.899981
 21
188.722159
 31
0.0
  0
LINE
  5
10c
100
AcDbEntity
  8
Layer_1
 62
1
100
AcDbLine
 10
189.899981
 20
188.722159
 30
0.0
 11
189.899981
 21
178.722159
 31
0.0
  0
LINE
  5
10d
100
AcDbEntity
  8
Layer_1
 62
1
100
AcDbLine
 10
189.899981
 20
178.722159
 30
0.0
 11
184.099982
 21
178.722159
 31
0.0
  0
LINE
  5
10e
100
AcDbEntity
  8
Layer_1
 62
1
100
AcDbLine
 10
184.099982
 20
178.722159
 30
0.0
 11
184.099982
 21
188.722156
 31
0.0
  0
SPLINE
  5
10f
100
AcDbEntity
  8
Layer_1
 62
1
100
AcDbSpline
 70
8
 71
3
 72
8
 73
4
 74
0
 40
0
 40
0
 40
0
 40
0
 40
1
 40
1
 40
1
 40
1
 10
188.551662
 20
175.222166
 30
0.0
 10
188.551662
 20
174.365196
 30
0.0
 10
187.856951
 20
173.670486
 30
0.0
 10
186.999982
 20
173.670486
 30
0.0
  0
SPLINE
  5
110
100
AcDbEntity
  8
Layer_1
 62
1
100
AcDbSpline
 70
8
 71
3
 72
8
 73
4
 74
0
 40
0
 40
0
 40
0
 40
0
 40
1
 40
1
 40
1
 40
1
 10
186.999982
 20
173.670486
 30
0.0
 10
186.143012
 20
173.670486
 30
0.0
 10
185.448301
 20
174.365196
 30
0.0
 10
185.448301
 20
175.222166
 30
0.0
  0
SPLINE
  5
111
100
AcDbEntity
  8
Layer_1
 62
1
100
AcDbSpline
 70
8
 71
3
 72
8
 73
4
 74
0
 40
0
 40
0
 40
0
 40
0
 40
1
 40
1
 40
1
 40
1
 10
185.448301
 20
175.222166
 30
0.0
 10
185.448301
 20
176.079135
 30
0.0
 10
186.143012
 20
176.773846
 30
0.0
 10
186.999982
 20
176.773846
 30
0.0
  0
SPLINE
  5
112
100
AcDbEntity
  8
Layer_1
 62
1
100
AcDbSpline
 70
8
 71
3
 72
8
 73
4
 74
0
 40
0
 40
0
 40
0
 40
0
 40
1
 40
1
 40
1
 40
1
 10
186.999982
 20
176.773846
 30
0.0
 10
187.856951
 20
176.773846
 30
0.0
 10
188.551662
 20
176.079135
 30
0.0
 10
188.551662
 20
175.222166
 30
0.0
  0
LINE
  5
113
100
AcDbEntity
  8
Layer_1
 62
1
100
AcDbLine
 10
188.551662
 20
175.222166
 30
0.0
 11
188.551662
 21
175.222166
 31
0.0
  0
LINE
  5
114
100
AcDbEntity
  8
Layer_1
 62
1
100
AcDbLine
 10
184.099982
 20
247.177863
 30
0.0
 11
189.899981
 21
247.177863
 31
0.0
  0
LINE
  5
115
100
AcDbEntity
  8
Layer_1
 62
1
100
AcDbLine
 10
189.899981
 20
247.177863
 30
0.0
 11
189.899981
 21
237.177866
 31
0.0
  0
LINE
  5
116
100
AcDbEntity
  8
Layer_1
 62
1
100
AcDbLine
 10
189.899981
 20
237.177866
 30
0.0
 11
184.099982
 21
237.177866
 31
0.0
  0
LINE
  5
117
100
AcDbEntity
  8
Layer_1
 62
1
100
AcDbLine
 10
184.099982
 20
237.177866
 30
0.0
 11
184.099982
 21
247.177863
 31
0.0
  0
LINE
  5
118
100
AcDbEntity
  8
Layer_1
 62
1
100
AcDbLine
 10
184.099982
 20
264.177860
 30
0.0
 11
189.899981
 21
264.177863
 31
0.0
  0
LINE
  5
119
100
AcDbEntity
  8
Layer_1
 62
1
100
AcDbLine
 10
189.899981
 20
264.177863
 30
0.0
 11
189.899981
 21
254.177863
 31
0.0
  0
LINE
  5
11a
100
AcDbEntity
  8
Layer_1
 62
1
100
AcDbLine
 10
189.899981
 20
254.177863
 30
0.0
 11
184.099982
 21
254.177863
 31
0.0
  0
LINE
  5
11b
100
AcDbEntity
  8
Layer_1
 62
1
100
AcDbLine
 10
184.099982
 20
254.177863
 30
0.0
 11
184.099982
 21
264.177860
 31
0.0
  0
SPLINE
  5
11c
100
AcDbEntity
  8
Layer_1
 62
1
100
AcDbSpline
 70
8
 71
3
 72
8
 73
4
 74
0
 40
0
 40
0
 40
0
 40
0
 40
1
 40
1
 40
1
 40
1
 10
188.551662
 20
250.677870
 30
0.0
 10
188.551662
 20
249.820900
 30
0.0
 10
187.856951
 20
249.126189
 30
0.0
 10
186.999982
 20
249.126189
 30
0.0
  0
SPLINE
  5
11d
100
AcDbEntity
  8
Layer_1
 62
1
100
AcDbSpline
 70
8
 71
3
 72
8
 73
4
 74
0
 40
0
 40
0
 40
0
 40
0
 40
1
 40
1
 40
1
 40
1
 10
186.999982
 20
249.126189
 30
0.0
 10
186.143012
 20
249.126189
 30
0.0
 10
185.448301
 20
249.820900
 30
0.0
 10
185.448301
 20
250.677870
 30
0.0
  0
SPLINE
  5
11e
100
AcDbEntity
  8
Layer_1
 62
1
100
AcDbSpline
 70
8
 71
3
 72
8
 73
4
 74
0
 40
0
 40
0
 40
0
 40
0
 40
1
 40
1
 40
1
 40
1
 10
185.448301
 20
250.677870
 30
0.0
 10
185.448301
 20
251.534839
 30
0.0
 10
186.143012
 20
252.229550
 30
0.0
 10
186.999982
 20
252.229550
 30
0.0
  0
SPLINE
  5
11f
100
AcDbEntity
  8
Layer_1
 62
1
100
AcDbSpline
 70
8
 71
3
 72
8
 73
4
 74
0
 40
0
 40
0
 40
0
 40
0
 40
1
 40
1
 40
1
 40
1
 10
186.999982
 20
252.229550
 30
0.0
 10
187.856951
 20
252.229550
 30
0.0
 10
188.551662
 20
251.534839
 30
0.0
 10
188.551662
 20
250.677870
 30
0.0
  0
LINE
  5
120
100
AcDbEntity
  8
Layer_1
 62
1
100
AcDbLine
 10
188.551662
 20
250.677870
 30
0.0
 11
188.551662
 21
250.677870
 31
0.0
  0
LINE
  5
121
100
AcDbEntity
  8
Layer_1
 62
1
100
AcDbLine
 10
350.099952
 20
171.722156
 30
0.0
 11
355.899951
 21
171.722156
 31
0.0
  0
LINE
  5
122
100
AcDbEntity
  8
Layer_1
 62
1
100
AcDbLine
 10
355.899951
 20
171.722156
 30
0.0
 11
355.899951
 21
161.722159
 31
0.0
  0
LINE
  5
123
100
AcDbEntity
  8
Layer_1
 62
1
100
AcDbLine
 10
355.899951
 20
161.722159
 30
0.0
 11
350.099952
 21
161.722159
 31
0.0
  0
LINE
  5
124
100
AcDbEntity
  8
Layer_1
 62
1
100
AcDbLine
 10
350.099952
 20
161.722159
 30
0.0
 11
350.099952
 21
171.722156
 31
0.0
  0
LINE
  5
125
100
AcDbEntity
  8
Layer_1
 62
1
100
AcDbLine
 10
350.099952
 20
188.722153
 30
0.0
 11
355.899951
 21
188.722156
 31
0.0
  0
LINE
  5
126
100
AcDbEntity
  8
Layer_1
 62
1
100
AcDbLine
 10
355.899951
 20
188.722156
 30
0.0
 11
355.899951
 21
178.722156
 31
0.0
  0
LINE
  5
127
100
AcDbEntity
  8
Layer_1
 62
1
100
AcDbLine
 10
355.899951
 20
178.722156
 30
0.0
 11
350.099952
 21
178.722156
 31
0.0
  0
LINE
  5
128
100
AcDbEntity
  8
Layer_1
 62
1
100
AcDbLine
 10
350.099952
 20
178.722156
 30
0.0
 11
350.099952
 21
188.722153
 31
0.0
  0
SPLINE
  5
129
100
AcDbEntity
  8
Layer_1
 62
1
100
AcDbSpline
 70
8
 71
3
 72
8
 73
4
 74
0
 40
0
 40
0
 40
0
 40
0
 40
1
 40
1
 40
1
 40
1
 10
354.551632
 20
175.222163
 30
0.0
 10
354.551632
 20
174.365194
 30
0.0
 10
353.856921
 20
173.670483
 30
0.0
 10
352.999952
 20
173.670483
 30
0.0
  0
SPLINE
  5
12a
100
AcDbEntity
  8
Layer_1
 62
1
100
AcDbSpline
 70
8
 71
3
 72
8
 73
4
 74
0
 40
0
 40
0
 40
0
 40
0
 40
1
 40
1
 40
1
 40
1
 10
352.999952
 20
173.670483
 30
0.0
 10
352.142982
 20
173.670483
 30
0.0
 10
351.448271
 20
174.365194
 30
0.0
 10
351.448271
 20
175.222163
 30
0.0
  0
SPLINE
  5
12b
100
AcDbEntity
  8
Layer_1
 62
1
100
AcDbSpline
 70
8
 71
3
 72
8
 73
4
 74
0
 40
0
 40
0
 40
0
 40
0
 40
1
 40
1
 40
1
 40
1
 10
351.448271
 20
175.222163
 30
0.0
 10
351.448271
 20
176.079133
 30
0.0
 10
352.142982
 20
176.773844
 30
0.0
 10
352.999952
 20
176.773843
 30
0.0
  0
SPLINE
  5
12c
100
AcDbEntity
  8
Layer_1
 62
1
100
AcDbSpline
 70
8
 71
3
 72
8
 73
4
 74
0
 40
0
 40
0
 40
0
 40
0
 40
1
 40
1
 40
1
 40
1
 10
352.999952
 20
176.773843
 30
0.0
 10
353.856921
 20
176.773844
 30
0.0
 10
354.551632
 20
176.079133
 30
0.0
 10
354.551632
 20
175.222163
 30
0.0
  0
LINE
  5
12d
100
AcDbEntity
  8
Layer_1
 62
1
100
AcDbLine
 10
354.551632
 20
175.222163
 30
0.0
 11
354.551632
 21
175.222163
 31
0.0
  0
LINE
  5
12e
100
AcDbEntity
  8
Layer_1
 62
1
100
AcDbLine
 10
350.099952
 20
247.177851
 30
0.0
 11
355.899951
 21
247.177851
 31
0.0
  0
LINE
  5
12f
100
AcDbEntity
  8
Layer_1
 62
1
100
AcDbLine
 10
355.899951
 20
247.177851
 30
0.0
 11
355.899951
 21
237.177854
 31
0.0
  0
LINE
  5
130
100
AcDbEntity
  8
Layer_1
 62
1
100
AcDbLine
 10
355.899951
 20
237.177854
 30
0.0
 11
350.099952
 21
237.177854
 31
0.0
  0
LINE
  5
131
100
AcDbEntity
  8
Layer_1
 62
1
100
AcDbLine
 10
350.099952
 20
237.177854
 30
0.0
 11
350.099952
 21
247.177851
 31
0.0
  0
LINE
  5
132
100
AcDbEntity
  8
Layer_1
 62
1
100
AcDbLine
 10
350.099952
 20
264.177848
 30
0.0
 11
355.899951
 21
264.177851
 31
0.0
  0
LINE
  5
133
100
AcDbEntity
  8
Layer_1
 62
1
100
AcDbLine
 10
355.899951
 20
264.177851
 30
0.0
 11
355.899951
 21
254.177851
 31
0.0
  0
LINE
  5
134
100
AcDbEntity
  8
Layer_1
 62
1
100
AcDbLine
 10
355.899951
 20
254.177851
 30
0.0
 11
350.099952
 21
254.177851
 31
0.0
  0
LINE
  5
135
100
AcDbEntity
  8
Layer_1
 62
1
100
AcDbLine
 10
350.099952
 20
254.177851
 30
0.0
 11
350.099952
 21
264.177848
 31
0.0
  0
SPLINE
  5
136
100
AcDbEntity
  8
Layer_1
 62
1
100
AcDbSpline
 70
8
 71
3
 72
8
 73
4
 74
0
 40
0
 40
0
 40
0
 40
0
 40
1
 40
1
 40
1
 40
1
 10
354.551632
 20
250.677858
 30
0.0
 10
354.551632
 20
249.820889
 30
0.0
 10
353.856921
 20
249.126178
 30
0.0
 10
352.999952
 20
249.126178
 30
0.0
  0
SPLINE
  5
137
100
AcDbEntity
  8
Layer_1
 62
1
100
AcDbSpline
 70
8
 71
3
 72
8
 73
4
 74
0
 40
0
 40
0
 40
0
 40
0
 40
1
 40
1
 40
1
 40
1
 10
352.999952
 20
249.126178
 30
0.0
 10
352.142982
 20
249.126178
 30
0.0
 10
351.448271
 20
249.820889
 30
0.0
 10
351.448271
 20
250.677858
 30
0.0
  0
SPLINE
  5
138
100
AcDbEntity
  8
Layer_1
 62
1
100
AcDbSpline
 70
8
 71
3
 72
8
 73
4
 74
0
 40
0
 40
0
 40
0
 40
0
 40
1
 40
1
 40
1
 40
1
 10
351.448271
 20
250.677858
 30
0.0
 10
351.448271
 20
251.534828
 30
0.0
 10
352.142982
 20
252.229539
 30
0.0
 10
352.999952
 20
252.229539
 30
0.0
  0
SPLINE
  5
139
100
AcDbEntity
  8
Layer_1
 62
1
100
AcDbSpline
 70
8
 71
3
 72
8
 73
4
 74
0
 40
0
 40
0
 40
0
 40
0
 40
1
 40
1
 40
1
 40
1
 10
352.999952
 20
252.229539
 30
0.0
 10
353.856921
 20
252.229539
 30
0.0
 10
354.551632
 20
251.534828
 30
0.0
 10
354.551632
 20
250.677858
 30
0.0
  0
LINE
  5
13a
100
AcDbEntity
  8
Layer_1
 62
1
100
AcDbLine
 10
354.551632
 20
250.677858
 30
0.0
 11
354.551632
 21
250.677858
 31
0.0
  0
LINE
  5
13b
100
AcDbEntity
  8
Layer_1
 62
1
100
AcDbLine
 10
216.049976
 20
275.700008
 30
0.0
 11
216.049976
 21
278.400008
 31
0.0
  0
LINE
  5
13c
100
AcDbEntity
  8
Layer_1
 62
1
100
AcDbLine
 10
216.049976
 20
278.400008
 30
0.0
 11
226.049973
 21
278.400008
 31
0.0
  0
LINE
  5
13d
100
AcDbEntity
  8
Layer_1
 62
1
100
AcDbLine
 10
226.049973
 20
278.400008
 30
0.0
 11
226.049973
 21
275.700008
 31
0.0
  0
LINE
  5
13e
100
AcDbEntity
  8
Layer_1
 62
1
100
AcDbLine
 10
226.049973
 20
275.700008
 30
0.0
 11
216.049976
 21
275.700008
 31
0.0
  0
LINE
  5
13f
100
AcDbEntity
  8
Layer_1
 62
1
100
AcDbLine
 10
199.049979
 20
275.700008
 30
0.0
 11
199.049976
 21
278.400008
 31
0.0
  0
LINE
  5
140
100
AcDbEntity
  8
Layer_1
 62
1
100
AcDbLine
 10
199.049976
 20
278.400008
 30
0.0
 11
209.049976
 21
278.400008
 31
0.0
  0
LINE
  5
141
100
AcDbEntity
  8
Layer_1
 62
1
100
AcDbLine
 10
209.049976
 20
278.400008
 30
0.0
 11
209.049976
 21
275.700008
 31
0.0
  0
LINE
  5
142
100
AcDbEntity
  8
Layer_1
 62
1
100
AcDbLine
 10
209.049976
 20
275.700008
 30
0.0
 11
199.049979
 21
275.700008
 31
0.0
  0
LINE
  5
143
100
AcDbEntity
  8
Layer_1
 62
1
100
AcDbLine
 10
216.049979
 20
147.550017
 30
0.0
 11
216.049979
 21
150.250018
 31
0.0
  0
LINE
  5
144
100
AcDbEntity
  8
Layer_1
 62
1
100
AcDbLine
 10
216.049979
 20
150.250018
 30
0.0
 11
226.049975
 21
150.250018
 31
0.0
  0
LINE
  5
145
100
AcDbEntity
  8
Layer_1
 62
1
100
AcDbLine
 10
226.049975
 20
150.250018
 30
0.0
 11
226.049975
 21
147.550017
 31
0.0
  0
LINE
  5
146
100
AcDbEntity
  8
Layer_1
 62
1
100
AcDbLine
 10
226.049975
 20
147.550017
 30
0.0
 11
216.049979
 21
147.550017
 31
0.0
  0
LINE
  5
147
100
AcDbEntity
  8
Layer_1
 62
1
100
AcDbLine
 10
199.049981
 20
147.550017
 30
0.0
 11
199.049979
 21
150.250018
 31
0.0
  0
LINE
  5
148
100
AcDbEntity
  8
Layer_1
 62
1
100
AcDbLine
 10
199.049979
 20
150.250018
 30
0.0
 11
209.049978
 21
150.250018
 31
0.0
  0
LINE
  5
149
100
AcDbEntity
  8
Layer_1
 62
1
100
AcDbLine
 10
209.049978
 20
150.250018
 30
0.0
 11
209.049978
 21
147.550017
 31
0.0
  0
LINE
  5
14a
100
AcDbEntity
  8
Layer_1
 62
1
100
AcDbLine
 10
209.049978
 20
147.550017
 30
0.0
 11
199.049981
 21
147.550017
 31
0.0
  0
LINE
  5
14b
100
AcDbEntity
  8
Layer_1
 62
1
100
AcDbLine
 10
331.049960
 20
275.700008
 30
0.0
 11
331.049960
 21
278.400008
 31
0.0
  0
LINE
  5
14c
100
AcDbEntity
  8
Layer_1
 62
1
100
AcDbLine
 10
331.049960
 20
278.400008
 30
0.0
 11
341.049968
 21
278.400008
 31
0.0
  0
LINE
  5
14d
100
AcDbEntity
  8
Layer_1
 62
1
100
AcDbLine
 10
341.049968
 20
278.400008
 30
0.0
 11
341.049968
 21
275.700008
 31
0.0
  0
LINE
  5
14e
100
AcDbEntity
  8
Layer_1
 62
1
100
AcDbLine
 10
341.049968
 20
275.700008
 30
0.0
 11
331.049960
 21
275.700008
 31
0.0
  0
LINE
  5
14f
100
AcDbEntity
  8
Layer_1
 62
1
100
AcDbLine
 10
314.049966
 20
275.700008
 30
0.0
 11
314.049966
 21
278.400008
 31
0.0
  0
LINE
  5
150
100
AcDbEntity
  8
Layer_1
 62
1
100
AcDbLine
 10
314.049966
 20
278.400008
 30
0.0
 11
324.049974
 21
278.400008
 31
0.0
  0
LINE
  5
151
100
AcDbEntity
  8
Layer_1
 62
1
100
AcDbLine
 10
324.049974
 20
278.400008
 30
0.0
 11
324.049974
 21
275.700008
 31
0.0
  0
LINE
  5
152
100
AcDbEntity
  8
Layer_1
 62
1
100
AcDbLine
 10
324.049974
 20
275.700008
 30
0.0
 11
314.049966
 21
275.700008
 31
0.0
  0
LINE
  5
153
100
AcDbEntity
  8
Layer_1
 62
1
100
AcDbLine
 10
331.049960
 20
147.550017
 30
0.0
 11
331.049960
 21
150.250018
 31
0.0
  0
LINE
  5
154
100
AcDbEntity
  8
Layer_1
 62
1
100
AcDbLine
 10
331.049960
 20
150.250018
 30
0.0
 11
341.049968
 21
150.250018
 31
0.0
  0
LINE
  5
155
100
AcDbEntity
  8
Layer_1
 62
1
100
AcDbLine
 10
341.049968
 20
150.250018
 30
0.0
 11
341.049968
 21
147.550017
 31
0.0
  0
LINE
  5
156
100
AcDbEntity
  8
Layer_1
 62
1
100
AcDbLine
 10
341.049968
 20
147.550017
 30
0.0
 11
331.049960
 21
147.550017
 31
0.0
  0
LINE
  5
157
100
AcDbEntity
  8
Layer_1
 62
1
100
AcDbLine
 10
314.049966
 20
147.500016
 30
0.0
 11
314.049966
 21
150.200016
 31
0.0
  0
LINE
  5
158
100
AcDbEntity
  8
Layer_1
 62
1
100
AcDbLine
 10
314.049966
 20
150.200016
 30
0.0
 11
324.049974
 21
150.200016
 31
0.0
  0
LINE
  5
159
100
AcDbEntity
  8
Layer_1
 62
1
100
AcDbLine
 10
324.049974
 20
150.200016
 30
0.0
 11
324.049974
 21
147.500016
 31
0.0
  0
LINE
  5
15a
100
AcDbEntity
  8
Layer_1
 62
1
100
AcDbLine
 10
324.049974
 20
147.500016
 30
0.0
 11
314.049966
 21
147.500016
 31
0.0
  0
LINE
  5
15b
100
AcDbEntity
  8
Layer_1
 62
7
100
AcDbLine
 10
189.099978
 20
141.999978
 30
0.0
 11
350.999940
 21
141.999978
 31
0.0
  0
SPLINE
  5
15c
100
AcDbEntity
  8
Layer_1
 62
7
100
AcDbSpline
 70
8
 71
3
 72
8
 73
4
 74
0
 40
0
 40
0
 40
0
 40
0
 40
1
 40
1
 40
1
 40
1
 10
350.999940
 20
141.999978
 30
0.0
 10
356.539962
 20
141.999978
 30
0.0
 10
360.999948
 20
137.539978
 30
0.0
 10
360.999948
 20
131.999979
 30
0.0
  0
LINE
  5
15d
100
AcDbEntity
  8
Layer_1
 62
7
100
AcDbLine
 10
360.999948
 20
131.999979
 30
0.0
 11
360.999948
 21
10.099991
 31
0.0
  0
SPLINE
  5
15e
100
AcDbEntity
  8
Layer_1
 62
7
100
AcDbSpline
 70
8
 71
3
 72
8
 73
4
 74
0
 40
0
 40
0
 40
0
 40
0
 40
1
 40
1
 40
1
 40
1
 10
360.999948
 20
10.099991
 30
0.0
 10
360.999948
 20
4.559991
 30
0.0
 10
356.539962
 20
0.099991
 30
0.0
 10
350.999940
 20
0.099991
 30
0.0
  0
LINE
  5
15f
100
AcDbEntity
  8
Layer_1
 62
7
100
AcDbLine
 10
350.999940
 20
0.099991
 30
0.0
 11
189.099978
 21
0.099991
 31
0.0
  0
SPLINE
  5
160
100
AcDbEntity
  8
Layer_1
 62
7
100
AcDbSpline
 70
8
 71
3
 72
8
 73
4
 74
0
 40
0
 40
0
 40
0
 40
0
 40
1
 40
1
 40
1
 40
1
 10
189.099978
 20
0.099991
 30
0.0
 10
183.559979
 20
0.099991
 30
0.0
 10
179.099979
 20
4.559991
 30
0.0
 10
179.099979
 20
10.099991
 30
0.0
  0
LINE
  5
161
100
AcDbEntity
  8
Layer_1
 62
7
100
AcDbLine
 10
179.099979
 20
10.099991
 30
0.0
 11
179.099979
 21
131.999979
 31
0.0
  0
SPLINE
  5
162
100
AcDbEntity
  8
Layer_1
 62
7
100
AcDbSpline
 70
8
 71
3
 72
8
 73
4
 74
0
 40
0
 40
0
 40
0
 40
0
 40
1
 40
1
 40
1
 40
1
 10
179.099979
 20
131.999979
 30
0.0
 10
179.099979
 20
137.539978
 30
0.0
 10
183.559979
 20
141.999978
 30
0.0
 10
189.099978
 20
141.999978
 30
0.0
  0
LINE
  5
163
100
AcDbEntity
  8
Layer_1
 62
7
100
AcDbLine
 10
189.099978
 20
141.999978
 30
0.0
 11
189.099978
 21
141.999978
 31
0.0
  0
LINE
  5
164
100
AcDbEntity
  8
Layer_1
 62
1
100
AcDbLine
 10
184.099983
 20
29.822134
 30
0.0
 11
189.899982
 21
29.822134
 31
0.0
  0
LINE
  5
165
100
AcDbEntity
  8
Layer_1
 62
1
100
AcDbLine
 10
189.899982
 20
29.822134
 30
0.0
 11
189.899982
 21
19.822137
 31
0.0
  0
LINE
  5
166
100
AcDbEntity
  8
Layer_1
 62
1
100
AcDbLine
 10
189.899982
 20
19.822137
 30
0.0
 11
184.099983
 21
19.822137
 31
0.0
  0
LINE
  5
167
100
AcDbEntity
  8
Layer_1
 62
1
100
AcDbLine
 10
184.099983
 20
19.822137
 30
0.0
 11
184.099983
 21
29.822134
 31
0.0
  0
LINE
  5
168
100
AcDbEntity
  8
Layer_1
 62
1
100
AcDbLine
 10
184.099983
 20
46.822131
 30
0.0
 11
189.899982
 21
46.822134
 31
0.0
  0
LINE
  5
169
100
AcDbEntity
  8
Layer_1
 62
1
100
AcDbLine
 10
189.899982
 20
46.822134
 30
0.0
 11
189.899982
 21
36.822134
 31
0.0
  0
LINE
  5
16a
100
AcDbEntity
  8
Layer_1
 62
1
100
AcDbLine
 10
189.899982
 20
36.822134
 30
0.0
 11
184.099983
 21
36.822134
 31
0.0
  0
LINE
  5
16b
100
AcDbEntity
  8
Layer_1
 62
1
100
AcDbLine
 10
184.099983
 20
36.822134
 30
0.0
 11
184.099983
 21
46.822131
 31
0.0
  0
SPLINE
  5
16c
100
AcDbEntity
  8
Layer_1
 62
1
100
AcDbSpline
 70
8
 71
3
 72
8
 73
4
 74
0
 40
0
 40
0
 40
0
 40
0
 40
1
 40
1
 40
1
 40
1
 10
188.551664
 20
33.322141
 30
0.0
 10
188.551663
 20
32.465172
 30
0.0
 10
187.856952
 20
31.770461
 30
0.0
 10
186.999983
 20
31.770461
 30
0.0
  0
SPLINE
  5
16d
100
AcDbEntity
  8
Layer_1
 62
1
100
AcDbSpline
 70
8
 71
3
 72
8
 73
4
 74
0
 40
0
 40
0
 40
0
 40
0
 40
1
 40
1
 40
1
 40
1
 10
186.999983
 20
31.770461
 30
0.0
 10
186.143013
 20
31.770461
 30
0.0
 10
185.448302
 20
32.465172
 30
0.0
 10
185.448302
 20
33.322141
 30
0.0
  0
SPLINE
  5
16e
100
AcDbEntity
  8
Layer_1
 62
1
100
AcDbSpline
 70
8
 71
3
 72
8
 73
4
 74
0
 40
0
 40
0
 40
0
 40
0
 40
1
 40
1
 40
1
 40
1
 10
185.448302
 20
33.322141
 30
0.0
 10
185.448302
 20
34.179111
 30
0.0
 10
186.143013
 20
34.873822
 30
0.0
 10
186.999983
 20
34.873822
 30
0.0
  0
SPLINE
  5
16f
100
AcDbEntity
  8
Layer_1
 62
1
100
AcDbSpline
 70
8
 71
3
 72
8
 73
4
 74
0
 40
0
 40
0
 40
0
 40
0
 40
1
 40
1
 40
1
 40
1
 10
186.999983
 20
34.873822
 30
0.0
 10
187.856952
 20
34.873822
 30
0.0
 10
188.551663
 20
34.179111
 30
0.0
 10
188.551664
 20
33.322141
 30
0.0
  0
LINE
  5
170
100
AcDbEntity
  8
Layer_1
 62
1
100
AcDbLine
 10
188.551664
 20
33.322141
 30
0.0
 11
188.551664
 21
33.322141
 31
0.0
  0
LINE
  5
171
100
AcDbEntity
  8
Layer_1
 62
1
100
AcDbLine
 10
184.099983
 20
105.277838
 30
0.0
 11
189.899982
 21
105.277838
 31
0.0
  0
LINE
  5
172
100
AcDbEntity
  8
Layer_1
 62
1
100
AcDbLine
 10
189.899982
 20
105.277838
 30
0.0
 11
189.899982
 21
95.277841
 31
0.0
  0
LINE
  5
173
100
AcDbEntity
  8
Layer_1
 62
1
100
AcDbLine
 10
189.899982
 20
95.277841
 30
0.0
 11
184.099983
 21
95.277841
 31
0.0
  0
LINE
  5
174
100
AcDbEntity
  8
Layer_1
 62
1
100
AcDbLine
 10
184.099983
 20
95.277841
 30
0.0
 11
184.099983
 21
105.277838
 31
0.0
  0
LINE
  5
175
100
AcDbEntity
  8
Layer_1
 62
1
100
AcDbLine
 10
184.099983
 20
122.277835
 30
0.0
 11
189.899982
 21
122.277838
 31
0.0
  0
LINE
  5
176
100
AcDbEntity
  8
Layer_1
 62
1
100
AcDbLine
 10
189.899982
 20
122.277838
 30
0.0
 11
189.899982
 21
112.277838
 31
0.0
  0
LINE
  5
177
100
AcDbEntity
  8
Layer_1
 62
1
100
AcDbLine
 10
189.899982
 20
112.277838
 30
0.0
 11
184.099983
 21
112.277838
 31
0.0
  0
LINE
  5
178
100
AcDbEntity
  8
Layer_1
 62
1
100
AcDbLine
 10
184.099983
 20
112.277838
 30
0.0
 11
184.099983
 21
122.277835
 31
0.0
  0
SPLINE
  5
179
100
AcDbEntity
  8
Layer_1
 62
1
100
AcDbSpline
 70
8
 71
3
 72
8
 73
4
 74
0
 40
0
 40
0
 40
0
 40
0
 40
1
 40
1
 40
1
 40
1
 10
188.551664
 20
108.777845
 30
0.0
 10
188.551663
 20
107.920876
 30
0.0
 10
187.856952
 20
107.226165
 30
0.0
 10
186.999983
 20
107.226165
 30
0.0
  0
SPLINE
  5
17a
100
AcDbEntity
  8
Layer_1
 62
1
100
AcDbSpline
 70
8
 71
3
 72
8
 73
4
 74
0
 40
0
 40
0
 40
0
 40
0
 40
1
 40
1
 40
1
 40
1
 10
186.999983
 20
107.226165
 30
0.0
 10
186.143013
 20
107.226165
 30
0.0
 10
185.448302
 20
107.920876
 30
0.0
 10
185.448302
 20
108.777845
 30
0.0
  0
SPLINE
  5
17b
100
AcDbEntity
  8
Layer_1
 62
1
100
AcDbSpline
 70
8
 71
3
 72
8
 73
4
 74
0
 40
0
 40
0
 40
0
 40
0
 40
1
 40
1
 40
1
 40
1
 10
185.448302
 20
108.777845
 30
0.0
 10
185.448302
 20
109.634815
 30
0.0
 10
186.143013
 20
110.329526
 30
0.0
 10
186.999983
 20
110.329526
 30
0.0
  0
SPLINE
  5
17c
100
AcDbEntity
  8
Layer_1
 62
1
100
AcDbSpline
 70
8
 71
3
 72
8
 73
4
 74
0
 40
0
 40
0
 40
0
 40
0
 40
1
 40
1
 40
1
 40
1
 10
186.999983
 20
110.329526
 30
0.0
 10
187.856952
 20
110.329526
 30
0.0
 10
188.551663
 20
109.634815
 30
0.0
 10
188.551664
 20
108.777845
 30
0.0
  0
LINE
  5
17d
100
AcDbEntity
  8
Layer_1
 62
1
100
AcDbLine
 10
188.551664
 20
108.777845
 30
0.0
 11
188.551664
 21
108.777845
 31
0.0
  0
LINE
  5
17e
100
AcDbEntity
  8
Layer_1
 62
1
100
AcDbLine
 10
350.099953
 20
29.822131
 30
0.0
 11
355.899952
 21
29.822131
 31
0.0
  0
LINE
  5
17f
100
AcDbEntity
  8
Layer_1
 62
1
100
AcDbLine
 10
355.899952
 20
29.822131
 30
0.0
 11
355.899952
 21
19.822135
 31
0.0
  0
LINE
  5
180
100
AcDbEntity
  8
Layer_1
 62
1
100
AcDbLine
 10
355.899952
 20
19.822135
 30
0.0
 11
350.099953
 21
19.822135
 31
0.0
  0
LINE
  5
181
100
AcDbEntity
  8
Layer_1
 62
1
100
AcDbLine
 10
350.099953
 20
19.822135
 30
0.0
 11
350.099953
 21
29.822131
 31
0.0
  0
LINE
  5
182
100
AcDbEntity
  8
Layer_1
 62
1
100
AcDbLine
 10
350.099953
 20
46.822129
 30
0.0
 11
355.899952
 21
46.822131
 31
0.0
  0
LINE
  5
183
100
AcDbEntity
  8
Layer_1
 62
1
100
AcDbLine
 10
355.899952
 20
46.822131
 30
0.0
 11
355.899952
 21
36.822132
 31
0.0
  0
LINE
  5
184
100
AcDbEntity
  8
Layer_1
 62
1
100
AcDbLine
 10
355.899952
 20
36.822132
 30
0.0
 11
350.099953
 21
36.822132
 31
0.0
  0
LINE
  5
185
100
AcDbEntity
  8
Layer_1
 62
1
100
AcDbLine
 10
350.099953
 20
36.822132
 30
0.0
 11
350.099953
 21
46.822129
 31
0.0
  0
SPLINE
  5
186
100
AcDbEntity
  8
Layer_1
 62
1
100
AcDbSpline
 70
8
 71
3
 72
8
 73
4
 74
0
 40
0
 40
0
 40
0
 40
0
 40
1
 40
1
 40
1
 40
1
 10
354.551634
 20
33.322139
 30
0.0
 10
354.551633
 20
32.465169
 30
0.0
 10
353.856922
 20
31.770458
 30
0.0
 10
352.999953
 20
31.770458
 30
0.0
  0
SPLINE
  5
187
100
AcDbEntity
  8
Layer_1
 62
1
100
AcDbSpline
 70
8
 71
3
 72
8
 73
4
 74
0
 40
0
 40
0
 40
0
 40
0
 40
1
 40
1
 40
1
 40
1
 10
352.999953
 20
31.770458
 30
0.0
 10
352.142983
 20
31.770458
 30
0.0
 10
351.448272
 20
32.465169
 30
0.0
 10
351.448272
 20
33.322139
 30
0.0
  0
SPLINE
  5
188
100
AcDbEntity
  8
Layer_1
 62
1
100
AcDbSpline
 70
8
 71
3
 72
8
 73
4
 74
0
 40
0
 40
0
 40
0
 40
0
 40
1
 40
1
 40
1
 40
1
 10
351.448272
 20
33.322139
 30
0.0
 10
351.448272
 20
34.179108
 30
0.0
 10
352.142983
 20
34.873819
 30
0.0
 10
352.999953
 20
34.873819
 30
0.0
  0
SPLINE
  5
189
100
AcDbEntity
  8
Layer_1
 62
1
100
AcDbSpline
 70
8
 71
3
 72
8
 73
4
 74
0
 40
0
 40
0
 40
0
 40
0
 40
1
 40
1
 40
1
 40
1
 10
352.999953
 20
34.873819
 30
0.0
 10
353.856922
 20
34.873819
 30
0.0
 10
354.551633
 20
34.179108
 30
0.0
 10
354.551634
 20
33.322139
 30
0.0
  0
LINE
  5
18a
100
AcDbEntity
  8
Layer_1
 62
1
100
AcDbLine
 10
354.551634
 20
33.322139
 30
0.0
 11
354.551634
 21
33.322139
 31
0.0
  0
LINE
  5
18b
100
AcDbEntity
  8
Layer_1
 62
1
100
AcDbLine
 10
350.099953
 20
105.277827
 30
0.0
 11
355.899952
 21
105.277827
 31
0.0
  0
LINE
  5
18c
100
AcDbEntity
  8
Layer_1
 62
1
100
AcDbLine
 10
355.899952
 20
105.277827
 30
0.0
 11
355.899952
 21
95.277830
 31
0.0
  0
LINE
  5
18d
100
AcDbEntity
  8
Layer_1
 62
1
100
AcDbLine
 10
355.899952
 20
95.277830
 30
0.0
 11
350.099953
 21
95.277830
 31
0.0
  0
LINE
  5
18e
100
AcDbEntity
  8
Layer_1
 62
1
100
AcDbLine
 10
350.099953
 20
95.277830
 30
0.0
 11
350.099953
 21
105.277827
 31
0.0
  0
LINE
  5
18f
100
AcDbEntity
  8
Layer_1
 62
1
100
AcDbLine
 10
350.099953
 20
122.277824
 30
0.0
 11
355.899952
 21
122.277827
 31
0.0
  0
LINE
  5
190
100
AcDbEntity
  8
Layer_1
 62
1
100
AcDbLine
 10
355.899952
 20
122.277827
 30
0.0
 11
355.899952
 21
112.277827
 31
0.0
  0
LINE
  5
191
100
AcDbEntity
  8
Layer_1
 62
1
100
AcDbLine
 10
355.899952
 20
112.277827
 30
0.0
 11
350.099953
 21
112.277827
 31
0.0
  0
LINE
  5
192
100
AcDbEntity
  8
Layer_1
 62
1
100
AcDbLine
 10
350.099953
 20
112.277827
 30
0.0
 11
350.099953
 21
122.277824
 31
0.0
  0
SPLINE
  5
193
100
AcDbEntity
  8
Layer_1
 62
1
100
AcDbSpline
 70
8
 71
3
 72
8
 73
4
 74
0
 40
0
 40
0
 40
0
 40
0
 40
1
 40
1
 40
1
 40
1
 10
354.551634
 20
108.777834
 30
0.0
 10
354.551633
 20
107.920864
 30
0.0
 10
353.856922
 20
107.226154
 30
0.0
 10
352.999953
 20
107.226154
 30
0.0
  0
SPLINE
  5
194
100
AcDbEntity
  8
Layer_1
 62
1
100
AcDbSpline
 70
8
 71
3
 72
8
 73
4
 74
0
 40
0
 40
0
 40
0
 40
0
 40
1
 40
1
 40
1
 40
1
 10
352.999953
 20
107.226154
 30
0.0
 10
352.142983
 20
107.226154
 30
0.0
 10
351.448272
 20
107.920864
 30
0.0
 10
351.448272
 20
108.777834
 30
0.0
  0
SPLINE
  5
195
100
AcDbEntity
  8
Layer_1
 62
1
100
AcDbSpline
 70
8
 71
3
 72
8
 73
4
 74
0
 40
0
 40
0
 40
0
 40
0
 40
1
 40
1
 40
1
 40
1
 10
351.448272
 20
108.777834
 30
0.0
 10
351.448272
 20
109.634803
 30
0.0
 10
352.142983
 20
110.329514
 30
0.0
 10
352.999953
 20
110.329514
 30
0.0
  0
SPLINE
  5
196
100
AcDbEntity
  8
Layer_1
 62
1
100
AcDbSpline
 70
8
 71
3
 72
8
 73
4
 74
0
 40
0
 40
0
 40
0
 40
0
 40
1
 40
1
 40
1
 40
1
 10
352.999953
 20
110.329514
 30
0.0
 10
353.856922
 20
110.329514
 30
0.0
 10
354.551633
 20
109.634803
 30
0.0
 10
354.551634
 20
108.777834
 30
0.0
  0
LINE
  5
197
100
AcDbEntity
  8
Layer_1
 62
1
100
AcDbLine
 10
354.551634
 20
108.777834
 30
0.0
 11
354.551634
 21
108.777834
 31
0.0
  0
LINE
  5
198
100
AcDbEntity
  8
Layer_1
 62
1
100
AcDbLine
 10
216.049977
 20
133.799981
 30
0.0
 11
216.049977
 21
136.499981
 31
0.0
  0
LINE
  5
199
100
AcDbEntity
  8
Layer_1
 62
1
100
AcDbLine
 10
216.049977
 20
136.499981
 30
0.0
 11
226.049974
 21
136.499981
 31
0.0
  0
LINE
  5
19a
100
AcDbEntity
  8
Layer_1
 62
1
100
AcDbLine
 10
226.049974
 20
136.499981
 30
0.0
 11
226.049974
 21
133.799981
 31
0.0
  0
LINE
  5
19b
100
AcDbEntity
  8
Layer_1
 62
1
100
AcDbLine
 10
226.049974
 20
133.799981
 30
0.0
 11
216.049977
 21
133.799981
 31
0.0
  0
LINE
  5
19c
100
AcDbEntity
  8
Layer_1
 62
1
100
AcDbLine
 10
199.049980
 20
133.799981
 30
0.0
 11
199.049977
 21
136.499981
 31
0.0
  0
LINE
  5
19d
100
AcDbEntity
  8
Layer_1
 62
1
100
AcDbLine
 10
199.049977
 20
136.499981
 30
0.0
 11
209.049977
 21
136.499981
 31
0.0
  0
LINE
  5
19e
100
AcDbEntity
  8
Layer_1
 62
1
100
AcDbLine
 10
209.049977
 20
136.499981
 30
0.0
 11
209.049977
 21
133.799981
 31
0.0
  0
LINE
  5
19f
100
AcDbEntity
  8
Layer_1
 62
1
100
AcDbLine
 10
209.049977
 20
133.799981
 30
0.0
 11
199.049980
 21
133.799981
 31
0.0
  0
LINE
  5
1a0
100
AcDbEntity
  8
Layer_1
 62
1
100
AcDbLine
 10
216.049980
 20
5.649990
 30
0.0
 11
216.049980
 21
8.349990
 31
0.0
  0
LINE
  5
1a1
100
AcDbEntity
  8
Layer_1
 62
1
100
AcDbLine
 10
216.049980
 20
8.349990
 30
0.0
 11
226.049977
 21
8.349990
 31
0.0
  0
LINE
  5
1a2
100
AcDbEntity
  8
Layer_1
 62
1
100
AcDbLine
 10
226.049977
 20
8.349990
 30
0.0
 11
226.049977
 21
5.649990
 31
0.0
  0
LINE
  5
1a3
100
AcDbEntity
  8
Layer_1
 62
1
100
AcDbLine
 10
226.049977
 20
5.649990
 30
0.0
 11
216.049980
 21
5.649990
 31
0.0
  0
LINE
  5
1a4
100
AcDbEntity
  8
Layer_1
 62
1
100
AcDbLine
 10
199.049983
 20
5.649990
 30
0.0
 11
199.049980
 21
8.349990
 31
0.0
  0
LINE
  5
1a5
100
AcDbEntity
  8
Layer_1
 62
1
100
AcDbLine
 10
199.049980
 20
8.349990
 30
0.0
 11
209.049979
 21
8.349990
 31
0.0
  0
LINE
  5
1a6
100
AcDbEntity
  8
Layer_1
 62
1
100
AcDbLine
 10
209.049979
 20
8.349990
 30
0.0
 11
209.049979
 21
5.649990
 31
0.0
  0
LINE
  5
1a7
100
AcDbEntity
  8
Layer_1
 62
1
100
AcDbLine
 10
209.049979
 20
5.649990
 30
0.0
 11
199.049983
 21
5.649990
 31
0.0
  0
LINE
  5
1a8
100
AcDbEntity
  8
Layer_1
 62
1
100
AcDbLine
 10
331.049961
 20
133.799981
 30
0.0
 11
331.049961
 21
136.499981
 31
0.0
  0
LINE
  5
1a9
100
AcDbEntity
  8
Layer_1
 62
1
100
AcDbLine
 10
331.049961
 20
136.499981
 30
0.0
 11
341.049969
 21
136.499981
 31
0.0
  0
LINE
  5
1aa
100
AcDbEntity
  8
Layer_1
 62
1
100
AcDbLine
 10
341.049969
 20
136.499981
 30
0.0
 11
341.049969
 21
133.799981
 31
0.0
  0
LINE
  5
1ab
100
AcDbEntity
  8
Layer_1
 62
1
100
AcDbLine
 10
341.049969
 20
133.799981
 30
0.0
 11
331.049961
 21
133.799981
 31
0.0
  0
LINE
  5
1ac
100
AcDbEntity
  8
Layer_1
 62
1
100
AcDbLine
 10
314.049967
 20
133.799981
 30
0.0
 11
314.049967
 21
136.499981
 31
0.0
  0
LINE
  5
1ad
100
AcDbEntity
  8
Layer_1
 62
1
100
AcDbLine
 10
314.049967
 20
136.499981
 30
0.0
 11
324.049975
 21
136.499981
 31
0.0
  0
LINE
  5
1ae
100
AcDbEntity
  8
Layer_1
 62
1
100
AcDbLine
 10
324.049975
 20
136.499981
 30
0.0
 11
324.049975
 21
133.799981
 31
0.0
  0
LINE
  5
1af
100
AcDbEntity
  8
Layer_1
 62
1
100
AcDbLine
 10
324.049975
 20
133.799981
 30
0.0
 11
314.049967
 21
133.799981
 31
0.0
  0
LINE
  5
1b0
100
AcDbEntity
  8
Layer_1
 62
1
100
AcDbLine
 10
331.049961
 20
5.649990
 30
0.0
 11
331.049961
 21
8.349990
 31
0.0
  0
LINE
  5
1b1
100
AcDbEntity
  8
Layer_1
 62
1
100
AcDbLine
 10
331.049961
 20
8.349990
 30
0.0
 11
341.049969
 21
8.349990
 31
0.0
  0
LINE
  5
1b2
100
AcDbEntity
  8
Layer_1
 62
1
100
AcDbLine
 10
341.049969
 20
8.349990
 30
0.0
 11
341.049969
 21
5.649990
 31
0.0
  0
LINE
  5
1b3
100
AcDbEntity
  8
Layer_1
 62
1
100
AcDbLine
 10
341.049969
 20
5.649990
 30
0.0
 11
331.049961
 21
5.649990
 31
0.0
  0
LINE
  5
1b4
100
AcDbEntity
  8
Layer_1
 62
1
100
AcDbLine
 10
314.049967
 20
5.599989
 30
0.0
 11
314.049967
 21
8.299989
 31
0.0
  0
LINE
  5
1b5
100
AcDbEntity
  8
Layer_1
 62
1
100
AcDbLine
 10
314.049967
 20
8.299989
 30
0.0
 11
324.049975
 21
8.299989
 31
0.0
  0
LINE
  5
1b6
100
AcDbEntity
  8
Layer_1
 62
1
100
AcDbLine
 10
324.049975
 20
8.299989
 30
0.0
 11
324.049975
 21
5.599989
 31
0.0
  0
LINE
  5
1b7
100
AcDbEntity
  8
Layer_1
 62
1
100
AcDbLine
 10
324.049975
 20
5.599989
 30
0.0
 11
314.049967
 21
5.599989
 31
0.0
  0
ENDSEC
  0
SECTION
  2
OBJECTS
  0
DICTIONARY
  5
C
330
0
100
AcDbDictionary
  3
ACAD_GROUP
350
D
  3
ACAD_MLINESTYLE
350
17
  0
DICTIONARY
  5
D
330
C
100
AcDbDictionary
  0
DICTIONARY
  5
1A
330
C
100
AcDbDictionary
  0
DICTIONARY
  5
17
330
C
100
AcDbDictionary
  3
STANDARD
350
18
  0
DICTIONARY
  5
19
330
C
100
AcDbDictionary
  0
ENDSEC
  0
EOF
