  0
SECTION
  2
HEADER
  9
$ACADVER
  1
AC1014
  9
$HANDSEED
  5
FFFF
  9
$MEASUREMENT
 70
     1
  0
ENDSEC
  0
SECTION
  2
TABLES
  0
TABLE
  2
VPORT
  5
8
330
0
100
AcDbSymbolTable
 70
     4
  0
VPORT
  5
2E
330
8
100
AcDbSymbolTableRecord
100
AcDbViewportTableRecord
  2
*ACTIVE
 70
     0
 10
0.0
 20
0.0
 11
1.0
 21
1.0
 12
210.0
 22
148.5
 13
0.0
 23
0.0
 14
10.0
 24
10.0
 15
10.0
 25
10.0
 16
0.0
 26
0.0
 36
1.0
 17
0.0
 27
0.0
 37
0.0
 40
341.0
 41
1.24
 42
50.0
 43
0.0
 44
0.0
 50
0.0
 51
0.0
 71
     0
 72
   100
 73
     1
 74
     3
 75
     0
 76
     0
 77
     0
 78
     0
  0
ENDTAB
  0
TABLE
  2
LTYPE
  5
5
330
0
100
AcDbSymbolTable
 70
     1
  0
LTYPE
  5
14
330
5
100
AcDbSymbolTableRecord
100
AcDbLinetypeTableRecord
  2
BYBLOCK
 70
     0
  3

 72
    65
 73
     0
 40
0.0
  0
LTYPE
  5
15
330
5
100
AcDbSymbolTableRecord
100
AcDbLinetypeTableRecord
  2
BYLAYER
 70
     0
  3

 72
    65
 73
     0
 40
0.0
  0
LTYPE
  5
16
330
5
100
AcDbSymbolTableRecord
100
AcDbLinetypeTableRecord
  2
CONTINUOUS
 70
     0
  3
Solid line
 72
    65
 73
     0
 40
0.0
  0
ENDTAB
  0
TABLE
  2
LAYER
  5
2
100
AcDbSymbolTable
 70
2
  0
LAYER
  5
50
100
AcDbSymbolTableRecord
100
AcDbLayerTableRecord
  2
0
 70
0
  6
CONTINUOUS
  0
LAYER
  5
51
100
AcDbSymbolTableRecord
100
AcDbLayerTableRecord
  2
Layer_1
 70
0
  6
CONTINUOUS
  0
ENDTAB
  0
TABLE
  2
STYLE
  5
3
330
0
100
AcDbSymbolTable
 70
     1
  0
STYLE
  5
11
330
3
100
AcDbSymbolTableRecord
100
AcDbTextStyleTableRecord
  2
STANDARD
 70
     0
 40
0.0
 41
1.0
 50
0.0
 71
     0
 42
2.5
  3
txt
  4

  0
ENDTAB
  0
TABLE
  2
VIEW
  5
6
330
0
100
AcDbSymbolTable
 70
     0
  0
ENDTAB
  0
TABLE
  2
UCS
  5
7
330
0
100
AcDbSymbolTable
 70
     0
  0
ENDTAB
  0
TABLE
  2
APPID
  5
9
330
0
100
AcDbSymbolTable
 70
     2
  0
APPID
  5
12
330
9
100
AcDbSymbolTableRecord
100
AcDbRegAppTableRecord
  2
ACAD
 70
     0
  0
ENDTAB
  0
TABLE
  2
DIMSTYLE
  5
A
330
0
100
AcDbSymbolTable
 70
     1
  0
DIMSTYLE
105
27
330
A
100
AcDbSymbolTableRecord
100
AcDbDimStyleTableRecord
  2
ISO-25
 70
     0
  3

  4

  5

  6

  7

 40
1.0
 41
2.5
 42
0.625
 43
3.75
 44
1.25
 45
0.0
 46
0.0
 47
0.0
 48
0.0
140
2.5
141
2.5
142
0.0
143
0.03937007874016
144
1.0
145
0.0
146
1.0
147
0.625
 71
     0
 72
     0
 73
     0
 74
     0
 75
     0
 76
     0
 77
     1
 78
     8
170
     0
171
     3
172
     1
173
     0
174
     0
175
     0
176
     0
177
     0
178
     0
270
     2
271
     2
272
     2
273
     2
274
     3
340
11
275
     0
280
     0
281
     0
282
     0
283
     0
284
     8
285
     0
286
     0
287
     3
288
     0
  0
ENDTAB
  0
TABLE
  2
BLOCK_RECORD
  5
1
330
0
100
AcDbSymbolTable
 70
     1
  0
BLOCK_RECORD
  5
1F
330
1
100
AcDbSymbolTableRecord
100
AcDbBlockTableRecord
  2
*MODEL_SPACE
  0
BLOCK_RECORD
  5
1B
330
1
100
AcDbSymbolTableRecord
100
AcDbBlockTableRecord
  2
*PAPER_SPACE
  0
ENDTAB
  0
ENDSEC
  0
SECTION
  2
BLOCKS
  0
BLOCK
  5
20
330
1F
100
AcDbEntity
  8
0
100
AcDbBlockBegin
  2
*MODEL_SPACE
 70
     0
 10
0.0
 20
0.0
 30
0.0
  3
*MODEL_SPACE
  1

  0
ENDBLK
  5
21
330
1F
100
AcDbEntity
  8
0
100
AcDbBlockEnd
  0
BLOCK
  5
1C
330
1B
100
AcDbEntity
 67
     1
  8
0
100
AcDbBlockBegin
  2
*PAPER_SPACE
  1

  0
ENDBLK
  5
1D
330
1B
100
AcDbEntity
 67
     1
  8
0
100
AcDbBlockEnd
  0
ENDSEC
  0
SECTION
  2
ENTITIES
  0
LINE
  5
100
100
AcDbEntity
  8
Layer_1
 62
7
100
AcDbLine
 10
26.560437
 20
0.141109
 30
0.0
 11
16.599999
 21
0.141109
 31
0.0
  0
LINE
  5
101
100
AcDbEntity
  8
Layer_1
 62
7
100
AcDbLine
 10
16.599999
 20
0.141109
 30
0.0
 11
16.599999
 21
3.241094
 31
0.0
  0
LINE
  5
102
100
AcDbEntity
  8
Layer_1
 62
7
100
AcDbLine
 10
16.599999
 20
3.241094
 30
0.0
 11
2.599965
 21
3.241094
 31
0.0
  0
LINE
  5
103
100
AcDbEntity
  8
Layer_1
 62
7
100
AcDbLine
 10
2.599965
 20
3.241094
 30
0.0
 11
2.600002
 21
60.641104
 31
0.0
  0
LINE
  5
104
100
AcDbEntity
  8
Layer_1
 62
7
100
AcDbLine
 10
2.600002
 20
60.641104
 30
0.0
 11
0.100001
 21
63.141105
 31
0.0
  0
LINE
  5
105
100
AcDbEntity
  8
Layer_1
 62
7
100
AcDbLine
 10
0.100001
 20
63.190110
 30
0.0
 11
0.100566
 21
93.141107
 31
0.0
  0
LINE
  5
106
100
AcDbEntity
  8
Layer_1
 62
7
100
AcDbLine
 10
0.100566
 20
93.141107
 30
0.0
 11
2.600126
 21
95.641099
 31
0.0
  0
LINE
  5
107
100
AcDbEntity
  8
Layer_1
 62
7
100
AcDbLine
 10
2.600126
 20
95.641099
 30
0.0
 11
2.600126
 21
153.141119
 31
0.0
  0
LINE
  5
108
100
AcDbEntity
  8
Layer_1
 62
7
100
AcDbLine
 10
2.600126
 20
153.141119
 30
0.0
 11
16.600123
 21
153.141119
 31
0.0
  0
LINE
  5
109
100
AcDbEntity
  8
Layer_1
 62
7
100
AcDbLine
 10
16.600123
 20
153.141119
 30
0.0
 11
16.600123
 21
156.141119
 31
0.0
  0
LINE
  5
10a
100
AcDbEntity
  8
Layer_1
 62
7
100
AcDbLine
 10
16.600123
 20
156.141119
 30
0.0
 11
26.600123
 21
156.141119
 31
0.0
  0
LINE
  5
10b
100
AcDbEntity
  8
Layer_1
 62
7
100
AcDbLine
 10
26.600123
 20
156.141119
 30
0.0
 11
26.600123
 21
153.141119
 31
0.0
  0
LINE
  5
10c
100
AcDbEntity
  8
Layer_1
 62
7
100
AcDbLine
 10
26.600123
 20
153.141119
 30
0.0
 11
33.600119
 21
153.141119
 31
0.0
  0
LINE
  5
10d
100
AcDbEntity
  8
Layer_1
 62
7
100
AcDbLine
 10
33.600119
 20
153.141119
 30
0.0
 11
33.600119
 21
156.141119
 31
0.0
  0
LINE
  5
10e
100
AcDbEntity
  8
Layer_1
 62
7
100
AcDbLine
 10
33.600119
 20
156.141119
 30
0.0
 11
43.600119
 21
156.141119
 31
0.0
  0
LINE
  5
10f
100
AcDbEntity
  8
Layer_1
 62
7
100
AcDbLine
 10
43.600119
 20
156.141119
 30
0.0
 11
43.600119
 21
153.141116
 31
0.0
  0
LINE
  5
110
100
AcDbEntity
  8
Layer_1
 62
7
100
AcDbLine
 10
43.600119
 20
153.141116
 30
0.0
 11
77.806330
 21
153.141119
 31
0.0
  0
LINE
  5
111
100
AcDbEntity
  8
Layer_1
 62
7
100
AcDbLine
 10
77.806330
 20
153.141119
 30
0.0
 11
131.600107
 21
153.141119
 31
0.0
  0
LINE
  5
112
100
AcDbEntity
  8
Layer_1
 62
7
100
AcDbLine
 10
131.600107
 20
153.141119
 30
0.0
 11
131.600107
 21
156.141119
 31
0.0
  0
LINE
  5
113
100
AcDbEntity
  8
Layer_1
 62
7
100
AcDbLine
 10
131.600107
 20
156.141119
 30
0.0
 11
141.600109
 21
156.141119
 31
0.0
  0
LINE
  5
114
100
AcDbEntity
  8
Layer_1
 62
7
100
AcDbLine
 10
141.600109
 20
156.141119
 30
0.0
 11
141.600109
 21
153.141116
 31
0.0
  0
LINE
  5
115
100
AcDbEntity
  8
Layer_1
 62
7
100
AcDbLine
 10
141.600109
 20
153.141116
 30
0.0
 11
148.600109
 21
153.141119
 31
0.0
  0
LINE
  5
116
100
AcDbEntity
  8
Layer_1
 62
7
100
AcDbLine
 10
148.600109
 20
153.141119
 30
0.0
 11
148.600109
 21
156.141119
 31
0.0
  0
LINE
  5
117
100
AcDbEntity
  8
Layer_1
 62
7
100
AcDbLine
 10
148.600109
 20
156.141119
 30
0.0
 11
158.600109
 21
156.141119
 31
0.0
  0
LINE
  5
118
100
AcDbEntity
  8
Layer_1
 62
7
100
AcDbLine
 10
158.600109
 20
156.141119
 30
0.0
 11
158.600109
 21
153.141119
 31
0.0
  0
LINE
  5
119
100
AcDbEntity
  8
Layer_1
 62
7
100
AcDbLine
 10
158.600109
 20
153.141119
 30
0.0
 11
174.600105
 21
153.141116
 31
0.0
  0
LINE
  5
11a
100
AcDbEntity
  8
Layer_1
 62
7
100
AcDbLine
 10
174.600105
 20
153.141116
 30
0.0
 11
174.600105
 21
95.641124
 31
0.0
  0
LINE
  5
11b
100
AcDbEntity
  8
Layer_1
 62
7
100
AcDbLine
 10
174.600105
 20
95.641124
 30
0.0
 11
177.100103
 21
93.141124
 31
0.0
  0
LINE
  5
11c
100
AcDbEntity
  8
Layer_1
 62
7
100
AcDbLine
 10
177.100103
 20
93.141124
 30
0.0
 11
177.100103
 21
63.141130
 31
0.0
  0
LINE
  5
11d
100
AcDbEntity
  8
Layer_1
 62
7
100
AcDbLine
 10
177.100103
 20
63.141130
 30
0.0
 11
174.600105
 21
60.641129
 31
0.0
  0
LINE
  5
11e
100
AcDbEntity
  8
Layer_1
 62
7
100
AcDbLine
 10
174.600105
 20
60.641129
 30
0.0
 11
174.600105
 21
3.141131
 31
0.0
  0
LINE
  5
11f
100
AcDbEntity
  8
Layer_1
 62
7
100
AcDbLine
 10
174.600105
 20
3.141131
 30
0.0
 11
158.600109
 21
3.140906
 31
0.0
  0
LINE
  5
120
100
AcDbEntity
  8
Layer_1
 62
7
100
AcDbLine
 10
158.600109
 20
3.140906
 30
0.0
 11
158.600109
 21
0.141109
 31
0.0
  0
LINE
  5
121
100
AcDbEntity
  8
Layer_1
 62
7
100
AcDbLine
 10
158.560547
 20
0.141109
 30
0.0
 11
148.600109
 21
0.141109
 31
0.0
  0
LINE
  5
122
100
AcDbEntity
  8
Layer_1
 62
7
100
AcDbLine
 10
148.600109
 20
0.141109
 30
0.0
 11
148.600109
 21
3.140906
 31
0.0
  0
LINE
  5
123
100
AcDbEntity
  8
Layer_1
 62
7
100
AcDbLine
 10
148.600109
 20
3.140906
 30
0.0
 11
141.600109
 21
3.141131
 31
0.0
  0
LINE
  5
124
100
AcDbEntity
  8
Layer_1
 62
7
100
AcDbLine
 10
141.600109
 20
3.141131
 30
0.0
 11
141.600109
 21
0.141109
 31
0.0
  0
LINE
  5
125
100
AcDbEntity
  8
Layer_1
 62
7
100
AcDbLine
 10
141.560547
 20
0.141109
 30
0.0
 11
131.600107
 21
0.141109
 31
0.0
  0
LINE
  5
126
100
AcDbEntity
  8
Layer_1
 62
7
100
AcDbLine
 10
131.600107
 20
0.141109
 30
0.0
 11
131.600107
 21
3.141131
 31
0.0
  0
LINE
  5
127
100
AcDbEntity
  8
Layer_1
 62
7
100
AcDbLine
 10
131.600107
 20
3.141131
 30
0.0
 11
43.600116
 21
3.140877
 31
0.0
  0
LINE
  5
128
100
AcDbEntity
  8
Layer_1
 62
7
100
AcDbLine
 10
43.600116
 20
3.140877
 30
0.0
 11
43.600116
 21
0.141109
 31
0.0
  0
LINE
  5
129
100
AcDbEntity
  8
Layer_1
 62
7
100
AcDbLine
 10
43.560557
 20
0.141109
 30
0.0
 11
33.600119
 21
0.141109
 31
0.0
  0
LINE
  5
12a
100
AcDbEntity
  8
Layer_1
 62
7
100
AcDbLine
 10
33.600119
 20
0.141109
 30
0.0
 11
33.600119
 21
3.140877
 31
0.0
  0
LINE
  5
12b
100
AcDbEntity
  8
Layer_1
 62
7
100
AcDbLine
 10
33.600119
 20
3.140877
 30
0.0
 11
26.600120
 21
3.141103
 31
0.0
  0
LINE
  5
12c
100
AcDbEntity
  8
Layer_1
 62
7
100
AcDbLine
 10
26.600120
 20
3.141103
 30
0.0
 11
26.600120
 21
0.141109
 31
0.0
  0
LINE
  5
12d
100
AcDbEntity
  8
Layer_1
 62
1
100
AcDbLine
 10
2.679997
 20
74.391129
 30
0.0
 11
8.379996
 21
74.391129
 31
0.0
  0
LINE
  5
12e
100
AcDbEntity
  8
Layer_1
 62
1
100
AcDbLine
 10
8.379996
 20
74.391129
 30
0.0
 11
8.379996
 21
64.391134
 31
0.0
  0
LINE
  5
12f
100
AcDbEntity
  8
Layer_1
 62
1
100
AcDbLine
 10
8.379996
 20
64.391134
 30
0.0
 11
2.679997
 21
64.391134
 31
0.0
  0
LINE
  5
130
100
AcDbEntity
  8
Layer_1
 62
1
100
AcDbLine
 10
2.679997
 20
64.391134
 30
0.0
 11
2.679997
 21
74.391129
 31
0.0
  0
LINE
  5
131
100
AcDbEntity
  8
Layer_1
 62
1
100
AcDbLine
 10
2.679997
 20
91.391123
 30
0.0
 11
8.379996
 21
91.391126
 31
0.0
  0
LINE
  5
132
100
AcDbEntity
  8
Layer_1
 62
1
100
AcDbLine
 10
8.379996
 20
91.391126
 30
0.0
 11
8.379996
 21
81.391129
 31
0.0
  0
LINE
  5
133
100
AcDbEntity
  8
Layer_1
 62
1
100
AcDbLine
 10
8.379996
 20
81.391129
 30
0.0
 11
2.679997
 21
81.391129
 31
0.0
  0
LINE
  5
134
100
AcDbEntity
  8
Layer_1
 62
1
100
AcDbLine
 10
2.679997
 20
81.391129
 30
0.0
 11
2.679997
 21
91.391123
 31
0.0
  0
LINE
  5
135
100
AcDbEntity
  8
Layer_1
 62
1
100
AcDbLine
 10
168.649554
 20
74.391129
 30
0.0
 11
174.349554
 21
74.391129
 31
0.0
  0
LINE
  5
136
100
AcDbEntity
  8
Layer_1
 62
1
100
AcDbLine
 10
174.349554
 20
74.391129
 30
0.0
 11
174.349554
 21
64.391134
 31
0.0
  0
LINE
  5
137
100
AcDbEntity
  8
Layer_1
 62
1
100
AcDbLine
 10
174.349554
 20
64.391134
 30
0.0
 11
168.649554
 21
64.391134
 31
0.0
  0
LINE
  5
138
100
AcDbEntity
  8
Layer_1
 62
1
100
AcDbLine
 10
168.649554
 20
64.391134
 30
0.0
 11
168.649554
 21
74.391129
 31
0.0
  0
LINE
  5
139
100
AcDbEntity
  8
Layer_1
 62
1
100
AcDbLine
 10
168.649554
 20
91.391123
 30
0.0
 11
174.349554
 21
91.391126
 31
0.0
  0
LINE
  5
13a
100
AcDbEntity
  8
Layer_1
 62
1
100
AcDbLine
 10
174.349554
 20
91.391126
 30
0.0
 11
174.349554
 21
81.391129
 31
0.0
  0
LINE
  5
13b
100
AcDbEntity
  8
Layer_1
 62
1
100
AcDbLine
 10
174.349554
 20
81.391129
 30
0.0
 11
168.649554
 21
81.391129
 31
0.0
  0
LINE
  5
13c
100
AcDbEntity
  8
Layer_1
 62
1
100
AcDbLine
 10
168.649554
 20
81.391129
 30
0.0
 11
168.649554
 21
91.391123
 31
0.0
  0
LINE
  5
13d
100
AcDbEntity
  8
Layer_1
 62
1
100
AcDbLine
 10
19.944440
 20
138.447801
 30
0.0
 11
19.944440
 21
118.547784
 31
0.0
  0
LINE
  5
13e
100
AcDbEntity
  8
Layer_1
 62
1
100
AcDbLine
 10
19.944440
 20
118.547784
 30
0.0
 11
9.044442
 21
118.547784
 31
0.0
  0
LINE
  5
13f
100
AcDbEntity
  8
Layer_1
 62
1
100
AcDbLine
 10
9.044442
 20
118.547784
 30
0.0
 11
9.044442
 21
138.447801
 31
0.0
  0
LINE
  5
140
100
AcDbEntity
  8
Layer_1
 62
1
100
AcDbLine
 10
9.044442
 20
138.447801
 30
0.0
 11
19.944440
 21
138.447801
 31
0.0
  0
LINE
  5
141
100
AcDbEntity
  8
Layer_1
 62
1
100
AcDbLine
 10
38.556661
 20
136.447799
 30
0.0
 11
38.556661
 21
120.547800
 31
0.0
  0
LINE
  5
142
100
AcDbEntity
  8
Layer_1
 62
1
100
AcDbLine
 10
38.556661
 20
120.547800
 30
0.0
 11
29.656662
 21
120.547800
 31
0.0
  0
LINE
  5
143
100
AcDbEntity
  8
Layer_1
 62
1
100
AcDbLine
 10
29.656662
 20
120.547800
 30
0.0
 11
29.656662
 21
136.447799
 31
0.0
  0
LINE
  5
144
100
AcDbEntity
  8
Layer_1
 62
1
100
AcDbLine
 10
29.656662
 20
136.447799
 30
0.0
 11
38.556661
 21
136.447799
 31
0.0
  0
SPLINE
  5
145
100
AcDbEntity
  8
Layer_1
 62
1
100
AcDbSpline
 70
8
 71
3
 72
8
 73
4
 74
0
 40
0
 40
0
 40
0
 40
0
 40
1
 40
1
 40
1
 40
1
 10
34.106225
 20
140.947782
 30
0.0
 10
33.250180
 20
140.947782
 30
0.0
 10
32.556221
 20
141.641741
 30
0.0
 10
32.556224
 20
142.497783
 30
0.0
  0
SPLINE
  5
146
100
AcDbEntity
  8
Layer_1
 62
1
100
AcDbSpline
 70
8
 71
3
 72
8
 73
4
 74
0
 40
0
 40
0
 40
0
 40
0
 40
1
 40
1
 40
1
 40
1
 10
32.556224
 20
142.497783
 30
0.0
 10
32.556224
 20
143.353825
 30
0.0
 10
33.250183
 20
144.047784
 30
0.0
 10
34.106225
 20
144.047781
 30
0.0
  0
SPLINE
  5
147
100
AcDbEntity
  8
Layer_1
 62
1
100
AcDbSpline
 70
8
 71
3
 72
8
 73
4
 74
0
 40
0
 40
0
 40
0
 40
0
 40
1
 40
1
 40
1
 40
1
 10
34.106225
 20
144.047781
 30
0.0
 10
34.962262
 20
144.047781
 30
0.0
 10
35.656221
 20
143.353825
 30
0.0
 10
35.656221
 20
142.497783
 30
0.0
  0
SPLINE
  5
148
100
AcDbEntity
  8
Layer_1
 62
1
100
AcDbSpline
 70
8
 71
3
 72
8
 73
4
 74
0
 40
0
 40
0
 40
0
 40
0
 40
1
 40
1
 40
1
 40
1
 10
35.656221
 20
142.497783
 30
0.0
 10
35.656221
 20
141.641743
 30
0.0
 10
34.962262
 20
140.947784
 30
0.0
 10
34.106225
 20
140.947782
 30
0.0
  0
LINE
  5
149
100
AcDbEntity
  8
Layer_1
 62
1
100
AcDbLine
 10
34.106225
 20
140.947782
 30
0.0
 11
34.106225
 21
140.947782
 31
0.0
  0
SPLINE
  5
14a
100
AcDbEntity
  8
Layer_1
 62
1
100
AcDbSpline
 70
8
 71
3
 72
8
 73
4
 74
0
 40
0
 40
0
 40
0
 40
0
 40
1
 40
1
 40
1
 40
1
 10
34.056216
 20
113.047792
 30
0.0
 10
33.227789
 20
113.047792
 30
0.0
 10
32.556216
 20
113.719365
 30
0.0
 10
32.556216
 20
114.547792
 30
0.0
  0
SPLINE
  5
14b
100
AcDbEntity
  8
Layer_1
 62
1
100
AcDbSpline
 70
8
 71
3
 72
8
 73
4
 74
0
 40
0
 40
0
 40
0
 40
0
 40
1
 40
1
 40
1
 40
1
 10
32.556216
 20
114.547792
 30
0.0
 10
32.556216
 20
115.376219
 30
0.0
 10
33.227789
 20
116.047792
 30
0.0
 10
34.056216
 20
116.047792
 30
0.0
  0
SPLINE
  5
14c
100
AcDbEntity
  8
Layer_1
 62
1
100
AcDbSpline
 70
8
 71
3
 72
8
 73
4
 74
0
 40
0
 40
0
 40
0
 40
0
 40
1
 40
1
 40
1
 40
1
 10
34.056216
 20
116.047792
 30
0.0
 10
34.884645
 20
116.047792
 30
0.0
 10
35.556218
 20
115.376219
 30
0.0
 10
35.556218
 20
114.547792
 30
0.0
  0
SPLINE
  5
14d
100
AcDbEntity
  8
Layer_1
 62
1
100
AcDbSpline
 70
8
 71
3
 72
8
 73
4
 74
0
 40
0
 40
0
 40
0
 40
0
 40
1
 40
1
 40
1
 40
1
 10
35.556218
 20
114.547792
 30
0.0
 10
35.556218
 20
113.719365
 30
0.0
 10
34.884645
 20
113.047792
 30
0.0
 10
34.056216
 20
113.047792
 30
0.0
  0
LINE
  5
14e
100
AcDbEntity
  8
Layer_1
 62
1
100
AcDbLine
 10
34.056216
 20
113.047792
 30
0.0
 11
34.056216
 21
113.047792
 31
0.0
  0
LINE
  5
14f
100
AcDbEntity
  8
Layer_1
 62
1
100
AcDbLine
 10
153.793328
 20
34.491127
 30
0.0
 11
153.793328
 21
22.691128
 31
0.0
  0
LINE
  5
150
100
AcDbEntity
  8
Layer_1
 62
1
100
AcDbLine
 10
153.793328
 20
22.691128
 30
0.0
 11
142.993324
 21
22.691128
 31
0.0
  0
LINE
  5
151
100
AcDbEntity
  8
Layer_1
 62
1
100
AcDbLine
 10
142.993324
 20
22.691128
 30
0.0
 11
142.993324
 21
34.491127
 31
0.0
  0
LINE
  5
152
100
AcDbEntity
  8
Layer_1
 62
1
100
AcDbLine
 10
142.993324
 20
34.491127
 30
0.0
 11
153.793328
 21
34.491127
 31
0.0
  0
LINE
  5
153
100
AcDbEntity
  8
Layer_1
 62
3
100
AcDbLine
 10
78.144189
 20
124.149015
 30
0.0
 11
78.460278
 21
122.873370
 31
0.0
  0
SPLINE
  5
154
100
AcDbEntity
  8
Layer_1
 62
3
100
AcDbSpline
 70
8
 71
3
 72
8
 73
4
 74
0
 40
0
 40
0
 40
0
 40
0
 40
1
 40
1
 40
1
 40
1
 10
78.460278
 20
122.873370
 30
0.0
 10
78.497907
 20
122.722853
 30
0.0
 10
78.569405
 20
122.602437
 30
0.0
 10
78.674767
 20
122.512126
 30
0.0
  0
SPLINE
  5
155
100
AcDbEntity
  8
Layer_1
 62
3
100
AcDbSpline
 70
8
 71
3
 72
8
 73
4
 74
0
 40
0
 40
0
 40
0
 40
0
 40
1
 40
1
 40
1
 40
1
 10
78.674767
 20
122.512126
 30
0.0
 10
78.780132
 20
122.421815
 30
0.0
 10
78.915596
 20
122.376659
 30
0.0
 10
79.081167
 20
122.376659
 30
0.0
  0
LINE
  5
156
100
AcDbEntity
  8
Layer_1
 62
3
100
AcDbLine
 10
79.081167
 20
122.376659
 30
0.0
 11
91.973078
 21
122.376659
 31
0.0
  0
SPLINE
  5
157
100
AcDbEntity
  8
Layer_1
 62
3
100
AcDbSpline
 70
8
 71
3
 72
8
 73
4
 74
0
 40
0
 40
0
 40
0
 40
0
 40
1
 40
1
 40
1
 40
1
 10
91.973078
 20
122.376659
 30
0.0
 10
92.161225
 20
122.376659
 30
0.0
 10
92.319272
 20
122.429341
 30
0.0
 10
92.447212
 20
122.534703
 30
0.0
  0
SPLINE
  5
158
100
AcDbEntity
  8
Layer_1
 62
3
100
AcDbSpline
 70
8
 71
3
 72
8
 73
4
 74
0
 40
0
 40
0
 40
0
 40
0
 40
1
 40
1
 40
1
 40
1
 10
92.447212
 20
122.534703
 30
0.0
 10
92.575151
 20
122.632541
 30
0.0
 10
92.684278
 20
122.798110
 30
0.0
 10
92.774589
 20
123.031415
 30
0.0
  0
LINE
  5
159
100
AcDbEntity
  8
Layer_1
 62
3
100
AcDbLine
 10
92.774589
 20
123.031415
 30
0.0
 11
93.169700
 21
124.115148
 31
0.0
  0
LINE
  5
15a
100
AcDbEntity
  8
Layer_1
 62
3
100
AcDbLine
 10
93.169700
 20
124.115148
 30
0.0
 11
93.564812
 21
124.115148
 31
0.0
  0
LINE
  5
15b
100
AcDbEntity
  8
Layer_1
 62
3
100
AcDbLine
 10
93.564812
 20
124.115148
 30
0.0
 11
94.309878
 21
120.513992
 31
0.0
  0
LINE
  5
15c
100
AcDbEntity
  8
Layer_1
 62
3
100
AcDbLine
 10
94.309878
 20
120.513992
 30
0.0
 11
92.469789
 21
120.513992
 31
0.0
  0
LINE
  5
15d
100
AcDbEntity
  8
Layer_1
 62
3
100
AcDbLine
 10
92.469789
 20
120.513992
 30
0.0
 11
92.469789
 21
120.480126
 31
0.0
  0
SPLINE
  5
15e
100
AcDbEntity
  8
Layer_1
 62
3
100
AcDbSpline
 70
8
 71
3
 72
8
 73
4
 74
0
 40
0
 40
0
 40
0
 40
0
 40
1
 40
1
 40
1
 40
1
 10
92.469789
 20
120.480126
 30
0.0
 10
92.913818
 20
120.171564
 30
0.0
 10
93.263774
 20
119.851710
 30
0.0
 10
93.519656
 20
119.520570
 30
0.0
  0
SPLINE
  5
15f
100
AcDbEntity
  8
Layer_1
 62
3
100
AcDbSpline
 70
8
 71
3
 72
8
 73
4
 74
0
 40
0
 40
0
 40
0
 40
0
 40
1
 40
1
 40
1
 40
1
 10
93.519656
 20
119.520570
 30
0.0
 10
93.775538
 20
119.181903
 30
0.0
 10
93.967450
 20
118.854526
 30
0.0
 10
94.095389
 20
118.538437
 30
0.0
  0
SPLINE
  5
160
100
AcDbEntity
  8
Layer_1
 62
3
100
AcDbSpline
 70
8
 71
3
 72
8
 73
4
 74
0
 40
0
 40
0
 40
0
 40
0
 40
1
 40
1
 40
1
 40
1
 10
94.095389
 20
118.538437
 30
0.0
 10
94.230856
 20
118.214821
 30
0.0
 10
94.317405
 20
117.910021
 30
0.0
 10
94.355034
 20
117.624037
 30
0.0
  0
SPLINE
  5
161
100
AcDbEntity
  8
Layer_1
 62
3
100
AcDbSpline
 70
8
 71
3
 72
8
 73
4
 74
0
 40
0
 40
0
 40
0
 40
0
 40
1
 40
1
 40
1
 40
1
 10
94.355034
 20
117.624037
 30
0.0
 10
94.392663
 20
117.330526
 30
0.0
 10
94.411478
 20
117.070881
 30
0.0
 10
94.411478
 20
116.845106
 30
0.0
  0
SPLINE
  5
162
100
AcDbEntity
  8
Layer_1
 62
3
100
AcDbSpline
 70
8
 71
3
 72
8
 73
4
 74
0
 40
0
 40
0
 40
0
 40
0
 40
1
 40
1
 40
1
 40
1
 10
94.411478
 20
116.845106
 30
0.0
 10
94.411478
 20
116.152719
 30
0.0
 10
94.272250
 20
115.535595
 30
0.0
 10
93.993789
 20
114.993728
 30
0.0
  0
SPLINE
  5
163
100
AcDbEntity
  8
Layer_1
 62
3
100
AcDbSpline
 70
8
 71
3
 72
8
 73
4
 74
0
 40
0
 40
0
 40
0
 40
0
 40
1
 40
1
 40
1
 40
1
 10
93.993789
 20
114.993728
 30
0.0
 10
93.722856
 20
114.444335
 30
0.0
 10
93.346561
 20
113.985255
 30
0.0
 10
92.864900
 20
113.616484
 30
0.0
  0
SPLINE
  5
164
100
AcDbEntity
  8
Layer_1
 62
3
100
AcDbSpline
 70
8
 71
3
 72
8
 73
4
 74
0
 40
0
 40
0
 40
0
 40
0
 40
1
 40
1
 40
1
 40
1
 10
92.864900
 20
113.616484
 30
0.0
 10
92.383240
 20
113.240189
 30
0.0
 10
91.811272
 20
112.954202
 30
0.0
 10
91.148989
 20
112.758528
 30
0.0
  0
SPLINE
  5
165
100
AcDbEntity
  8
Layer_1
 62
3
100
AcDbSpline
 70
8
 71
3
 72
8
 73
4
 74
0
 40
0
 40
0
 40
0
 40
0
 40
1
 40
1
 40
1
 40
1
 10
91.148989
 20
112.758528
 30
0.0
 10
90.494234
 20
112.555328
 30
0.0
 10
89.775507
 20
112.453728
 30
0.0
 10
88.992812
 20
112.453728
 30
0.0
  0
SPLINE
  5
166
100
AcDbEntity
  8
Layer_1
 62
3
100
AcDbSpline
 70
8
 71
3
 72
8
 73
4
 74
0
 40
0
 40
0
 40
0
 40
0
 40
1
 40
1
 40
1
 40
1
 10
88.992812
 20
112.453728
 30
0.0
 10
88.127329
 20
112.453728
 30
0.0
 10
87.314529
 20
112.574144
 30
0.0
 10
86.554412
 20
112.814973
 30
0.0
  0
SPLINE
  5
167
100
AcDbEntity
  8
Layer_1
 62
3
100
AcDbSpline
 70
8
 71
3
 72
8
 73
4
 74
0
 40
0
 40
0
 40
0
 40
0
 40
1
 40
1
 40
1
 40
1
 10
86.554412
 20
112.814973
 30
0.0
 10
85.801818
 20
113.055802
 30
0.0
 10
85.143300
 20
113.401995
 30
0.0
 10
84.578856
 20
113.853551
 30
0.0
  0
SPLINE
  5
168
100
AcDbEntity
  8
Layer_1
 62
3
100
AcDbSpline
 70
8
 71
3
 72
8
 73
4
 74
0
 40
0
 40
0
 40
0
 40
0
 40
1
 40
1
 40
1
 40
1
 10
84.578856
 20
113.853551
 30
0.0
 10
84.014412
 20
114.297579
 30
0.0
 10
83.566618
 20
114.846973
 30
0.0
 10
83.235478
 20
115.501728
 30
0.0
  0
SPLINE
  5
169
100
AcDbEntity
  8
Layer_1
 62
3
100
AcDbSpline
 70
8
 71
3
 72
8
 73
4
 74
0
 40
0
 40
0
 40
0
 40
0
 40
1
 40
1
 40
1
 40
1
 10
83.235478
 20
115.501728
 30
0.0
 10
82.911863
 20
116.148957
 30
0.0
 10
82.750056
 20
116.886497
 30
0.0
 10
82.750056
 20
117.714348
 30
0.0
  0
SPLINE
  5
16a
100
AcDbEntity
  8
Layer_1
 62
3
100
AcDbSpline
 70
8
 71
3
 72
8
 73
4
 74
0
 40
0
 40
0
 40
0
 40
0
 40
1
 40
1
 40
1
 40
1
 10
82.750056
 20
117.714348
 30
0.0
 10
82.750056
 20
118.037961
 30
0.0
 10
82.780161
 20
118.335237
 30
0.0
 10
82.840367
 20
118.606170
 30
0.0
  0
SPLINE
  5
16b
100
AcDbEntity
  8
Layer_1
 62
3
100
AcDbSpline
 70
8
 71
3
 72
8
 73
4
 74
0
 40
0
 40
0
 40
0
 40
0
 40
1
 40
1
 40
1
 40
1
 10
82.840367
 20
118.606170
 30
0.0
 10
82.900574
 20
118.869577
 30
0.0
 10
82.983361
 20
119.114170
 30
0.0
 10
83.088723
 20
119.339948
 30
0.0
  0
SPLINE
  5
16c
100
AcDbEntity
  8
Layer_1
 62
3
100
AcDbSpline
 70
8
 71
3
 72
8
 73
4
 74
0
 40
0
 40
0
 40
0
 40
0
 40
1
 40
1
 40
1
 40
1
 10
83.088723
 20
119.339948
 30
0.0
 10
83.194085
 20
119.558199
 30
0.0
 10
83.310738
 20
119.757637
 30
0.0
 10
83.438678
 20
119.938259
 30
0.0
  0
SPLINE
  5
16d
100
AcDbEntity
  8
Layer_1
 62
3
100
AcDbSpline
 70
8
 71
3
 72
8
 73
4
 74
0
 40
0
 40
0
 40
0
 40
0
 40
1
 40
1
 40
1
 40
1
 10
83.438678
 20
119.938259
 30
0.0
 10
83.574145
 20
120.118881
 30
0.0
 10
83.713374
 20
120.280688
 30
0.0
 10
83.856367
 20
120.423681
 30
0.0
  0
LINE
  5
16e
100
AcDbEntity
  8
Layer_1
 62
3
100
AcDbLine
 10
83.856367
 20
120.423681
 30
0.0
 11
83.393523
 21
120.423681
 31
0.0
  0
LINE
  5
16f
100
AcDbEntity
  8
Layer_1
 62
3
100
AcDbLine
 10
83.393523
 20
120.423681
 30
0.0
 11
79.081167
 21
120.423681
 31
0.0
  0
SPLINE
  5
170
100
AcDbEntity
  8
Layer_1
 62
3
100
AcDbSpline
 70
8
 71
3
 72
8
 73
4
 74
0
 40
0
 40
0
 40
0
 40
0
 40
1
 40
1
 40
1
 40
1
 10
79.081167
 20
120.423681
 30
0.0
 10
78.915596
 20
120.423681
 30
0.0
 10
78.780132
 20
120.378526
 30
0.0
 10
78.674767
 20
120.288215
 30
0.0
  0
SPLINE
  5
171
100
AcDbEntity
  8
Layer_1
 62
3
100
AcDbSpline
 70
8
 71
3
 72
8
 73
4
 74
0
 40
0
 40
0
 40
0
 40
0
 40
1
 40
1
 40
1
 40
1
 10
78.674767
 20
120.288215
 30
0.0
 10
78.561878
 20
120.190377
 30
0.0
 10
78.490383
 20
120.066199
 30
0.0
 10
78.460278
 20
119.915681
 30
0.0
  0
LINE
  5
172
100
AcDbEntity
  8
Layer_1
 62
3
100
AcDbLine
 10
78.460278
 20
119.915681
 30
0.0
 11
78.144189
 21
118.323948
 31
0.0
  0
LINE
  5
173
100
AcDbEntity
  8
Layer_1
 62
3
100
AcDbLine
 10
78.144189
 20
118.323948
 30
0.0
 11
77.579745
 21
118.323948
 31
0.0
  0
LINE
  5
174
100
AcDbEntity
  8
Layer_1
 62
3
100
AcDbLine
 10
77.579745
 20
118.323948
 30
0.0
 11
77.579745
 21
124.149015
 31
0.0
  0
LINE
  5
175
100
AcDbEntity
  8
Layer_1
 62
3
100
AcDbLine
 10
77.579745
 20
124.149015
 30
0.0
 11
78.144189
 21
124.149015
 31
0.0
  0
LINE
  5
176
100
AcDbEntity
  8
Layer_1
 62
3
100
AcDbLine
 10
78.144189
 20
124.149015
 30
0.0
 11
78.144189
 21
124.149015
 31
0.0
  0
SPLINE
  5
177
100
AcDbEntity
  8
Layer_1
 62
3
100
AcDbSpline
 70
8
 71
3
 72
8
 73
4
 74
0
 40
0
 40
0
 40
0
 40
0
 40
1
 40
1
 40
1
 40
1
 10
84.454678
 20
120.423681
 30
0.0
 10
84.341789
 20
120.288215
 30
0.0
 10
84.240189
 20
120.111354
 30
0.0
 10
84.149878
 20
119.893103
 30
0.0
  0
SPLINE
  5
178
100
AcDbEntity
  8
Layer_1
 62
3
100
AcDbSpline
 70
8
 71
3
 72
8
 73
4
 74
0
 40
0
 40
0
 40
0
 40
0
 40
1
 40
1
 40
1
 40
1
 10
84.149878
 20
119.893103
 30
0.0
 10
84.067094
 20
119.667326
 30
0.0
 10
83.995596
 20
119.437783
 30
0.0
 10
83.935389
 20
119.204481
 30
0.0
  0
SPLINE
  5
179
100
AcDbEntity
  8
Layer_1
 62
3
100
AcDbSpline
 70
8
 71
3
 72
8
 73
4
 74
0
 40
0
 40
0
 40
0
 40
0
 40
1
 40
1
 40
1
 40
1
 10
83.935389
 20
119.204481
 30
0.0
 10
83.875183
 20
118.963653
 30
0.0
 10
83.830027
 20
118.734110
 30
0.0
 10
83.799923
 20
118.515859
 30
0.0
  0
SPLINE
  5
17a
100
AcDbEntity
  8
Layer_1
 62
3
100
AcDbSpline
 70
8
 71
3
 72
8
 73
4
 74
0
 40
0
 40
0
 40
0
 40
0
 40
1
 40
1
 40
1
 40
1
 10
83.799923
 20
118.515859
 30
0.0
 10
83.769818
 20
118.290081
 30
0.0
 10
83.754767
 20
118.105694
 30
0.0
 10
83.754767
 20
117.962703
 30
0.0
  0
SPLINE
  5
17b
100
AcDbEntity
  8
Layer_1
 62
3
100
AcDbSpline
 70
8
 71
3
 72
8
 73
4
 74
0
 40
0
 40
0
 40
0
 40
0
 40
1
 40
1
 40
1
 40
1
 10
83.754767
 20
117.962703
 30
0.0
 10
83.754767
 20
117.368154
 30
0.0
 10
83.875183
 20
116.856392
 30
0.0
 10
84.116012
 20
116.427417
 30
0.0
  0
SPLINE
  5
17c
100
AcDbEntity
  8
Layer_1
 62
3
100
AcDbSpline
 70
8
 71
3
 72
8
 73
4
 74
0
 40
0
 40
0
 40
0
 40
0
 40
1
 40
1
 40
1
 40
1
 10
84.116012
 20
116.427417
 30
0.0
 10
84.364367
 20
115.990913
 30
0.0
 10
84.691745
 20
115.633433
 30
0.0
 10
85.098145
 20
115.354973
 30
0.0
  0
SPLINE
  5
17d
100
AcDbEntity
  8
Layer_1
 62
3
100
AcDbSpline
 70
8
 71
3
 72
8
 73
4
 74
0
 40
0
 40
0
 40
0
 40
0
 40
1
 40
1
 40
1
 40
1
 10
85.098145
 20
115.354973
 30
0.0
 10
85.504545
 20
115.068986
 30
0.0
 10
85.974916
 20
114.858262
 30
0.0
 10
86.509256
 20
114.722795
 30
0.0
  0
SPLINE
  5
17e
100
AcDbEntity
  8
Layer_1
 62
3
100
AcDbSpline
 70
8
 71
3
 72
8
 73
4
 74
0
 40
0
 40
0
 40
0
 40
0
 40
1
 40
1
 40
1
 40
1
 10
86.509256
 20
114.722795
 30
0.0
 10
87.051123
 20
114.587328
 30
0.0
 10
87.611805
 20
114.519595
 30
0.0
 10
88.191300
 20
114.519595
 30
0.0
  0
SPLINE
  5
17f
100
AcDbEntity
  8
Layer_1
 62
3
100
AcDbSpline
 70
8
 71
3
 72
8
 73
4
 74
0
 40
0
 40
0
 40
0
 40
0
 40
1
 40
1
 40
1
 40
1
 10
88.191300
 20
114.519595
 30
0.0
 10
88.891212
 20
114.519595
 30
0.0
 10
89.534678
 20
114.583566
 30
0.0
 10
90.121700
 20
114.711506
 30
0.0
  0
SPLINE
  5
180
100
AcDbEntity
  8
Layer_1
 62
3
100
AcDbSpline
 70
8
 71
3
 72
8
 73
4
 74
0
 40
0
 40
0
 40
0
 40
0
 40
1
 40
1
 40
1
 40
1
 10
90.121700
 20
114.711506
 30
0.0
 10
90.716250
 20
114.839446
 30
0.0
 10
91.231776
 20
115.042646
 30
0.0
 10
91.668278
 20
115.321106
 30
0.0
  0
SPLINE
  5
181
100
AcDbEntity
  8
Layer_1
 62
3
100
AcDbSpline
 70
8
 71
3
 72
8
 73
4
 74
0
 40
0
 40
0
 40
0
 40
0
 40
1
 40
1
 40
1
 40
1
 10
91.668278
 20
115.321106
 30
0.0
 10
92.112307
 20
115.599566
 30
0.0
 10
92.458500
 20
115.953284
 30
0.0
 10
92.706856
 20
116.382262
 30
0.0
  0
SPLINE
  5
182
100
AcDbEntity
  8
Layer_1
 62
3
100
AcDbSpline
 70
8
 71
3
 72
8
 73
4
 74
0
 40
0
 40
0
 40
0
 40
0
 40
1
 40
1
 40
1
 40
1
 10
92.706856
 20
116.382262
 30
0.0
 10
92.955212
 20
116.811237
 30
0.0
 10
93.079389
 20
117.326761
 30
0.0
 10
93.079389
 20
117.928837
 30
0.0
  0
SPLINE
  5
183
100
AcDbEntity
  8
Layer_1
 62
3
100
AcDbSpline
 70
8
 71
3
 72
8
 73
4
 74
0
 40
0
 40
0
 40
0
 40
0
 40
1
 40
1
 40
1
 40
1
 10
93.079389
 20
117.928837
 30
0.0
 10
93.079389
 20
118.101932
 30
0.0
 10
93.056812
 20
118.301370
 30
0.0
 10
93.011656
 20
118.527148
 30
0.0
  0
SPLINE
  5
184
100
AcDbEntity
  8
Layer_1
 62
3
100
AcDbSpline
 70
8
 71
3
 72
8
 73
4
 74
0
 40
0
 40
0
 40
0
 40
0
 40
1
 40
1
 40
1
 40
1
 10
93.011656
 20
118.527148
 30
0.0
 10
92.974025
 20
118.745399
 30
0.0
 10
92.910056
 20
118.967415
 30
0.0
 10
92.819745
 20
119.193192
 30
0.0
  0
SPLINE
  5
185
100
AcDbEntity
  8
Layer_1
 62
3
100
AcDbSpline
 70
8
 71
3
 72
8
 73
4
 74
0
 40
0
 40
0
 40
0
 40
0
 40
1
 40
1
 40
1
 40
1
 10
92.819745
 20
119.193192
 30
0.0
 10
92.729434
 20
119.418970
 30
0.0
 10
92.601494
 20
119.640983
 30
0.0
 10
92.435923
 20
119.859237
 30
0.0
  0
SPLINE
  5
186
100
AcDbEntity
  8
Layer_1
 62
3
100
AcDbSpline
 70
8
 71
3
 72
8
 73
4
 74
0
 40
0
 40
0
 40
0
 40
0
 40
1
 40
1
 40
1
 40
1
 10
92.435923
 20
119.859237
 30
0.0
 10
92.277878
 20
120.069964
 30
0.0
 10
92.082205
 20
120.258110
 30
0.0
 10
91.848900
 20
120.423681
 30
0.0
  0
LINE
  5
187
100
AcDbEntity
  8
Layer_1
 62
3
100
AcDbLine
 10
91.848900
 20
120.423681
 30
0.0
 11
84.454678
 21
120.423681
 31
0.0
  0
LINE
  5
188
100
AcDbEntity
  8
Layer_1
 62
3
100
AcDbLine
 10
84.454678
 20
120.423681
 30
0.0
 11
84.454678
 21
120.423681
 31
0.0
  0
SPLINE
  5
189
100
AcDbEntity
  8
Layer_1
 62
3
100
AcDbSpline
 70
8
 71
3
 72
8
 73
4
 74
0
 40
0
 40
0
 40
0
 40
0
 40
1
 40
1
 40
1
 40
1
 10
96.895034
 20
105.671488
 30
0.0
 10
96.895034
 20
105.867161
 30
0.0
 10
96.928900
 20
106.051546
 30
0.0
 10
96.996634
 20
106.224641
 30
0.0
  0
SPLINE
  5
18a
100
AcDbEntity
  8
Layer_1
 62
3
100
AcDbSpline
 70
8
 71
3
 72
8
 73
4
 74
0
 40
0
 40
0
 40
0
 40
0
 40
1
 40
1
 40
1
 40
1
 10
96.996634
 20
106.224641
 30
0.0
 10
97.071894
 20
106.390212
 30
0.0
 10
97.169729
 20
106.536965
 30
0.0
 10
97.290145
 20
106.664908
 30
0.0
  0
SPLINE
  5
18b
100
AcDbEntity
  8
Layer_1
 62
3
100
AcDbSpline
 70
8
 71
3
 72
8
 73
4
 74
0
 40
0
 40
0
 40
0
 40
0
 40
1
 40
1
 40
1
 40
1
 10
97.290145
 20
106.664908
 30
0.0
 10
97.410561
 20
106.792847
 30
0.0
 10
97.553551
 20
106.894447
 30
0.0
 10
97.719123
 20
106.969708
 30
0.0
  0
SPLINE
  5
18c
100
AcDbEntity
  8
Layer_1
 62
3
100
AcDbSpline
 70
8
 71
3
 72
8
 73
4
 74
0
 40
0
 40
0
 40
0
 40
0
 40
1
 40
1
 40
1
 40
1
 10
97.719123
 20
106.969708
 30
0.0
 10
97.884694
 20
107.044965
 30
0.0
 10
98.069078
 20
107.082597
 30
0.0
 10
98.272278
 20
107.082597
 30
0.0
  0
SPLINE
  5
18d
100
AcDbEntity
  8
Layer_1
 62
3
100
AcDbSpline
 70
8
 71
3
 72
8
 73
4
 74
0
 40
0
 40
0
 40
0
 40
0
 40
1
 40
1
 40
1
 40
1
 10
98.272278
 20
107.082597
 30
0.0
 10
98.467951
 20
107.082597
 30
0.0
 10
98.648574
 20
107.044965
 30
0.0
 10
98.814145
 20
106.969708
 30
0.0
  0
SPLINE
  5
18e
100
AcDbEntity
  8
Layer_1
 62
3
100
AcDbSpline
 70
8
 71
3
 72
8
 73
4
 74
0
 40
0
 40
0
 40
0
 40
0
 40
1
 40
1
 40
1
 40
1
 10
98.814145
 20
106.969708
 30
0.0
 10
98.987240
 20
106.894447
 30
0.0
 10
99.133996
 20
106.792847
 30
0.0
 10
99.254412
 20
106.664908
 30
0.0
  0
SPLINE
  5
18f
100
AcDbEntity
  8
Layer_1
 62
3
100
AcDbSpline
 70
8
 71
3
 72
8
 73
4
 74
0
 40
0
 40
0
 40
0
 40
0
 40
1
 40
1
 40
1
 40
1
 10
99.254412
 20
106.664908
 30
0.0
 10
99.382351
 20
106.536965
 30
0.0
 10
99.480189
 20
106.390212
 30
0.0
 10
99.547923
 20
106.224641
 30
0.0
  0
SPLINE
  5
190
100
AcDbEntity
  8
Layer_1
 62
3
100
AcDbSpline
 70
8
 71
3
 72
8
 73
4
 74
0
 40
0
 40
0
 40
0
 40
0
 40
1
 40
1
 40
1
 40
1
 10
99.547923
 20
106.224641
 30
0.0
 10
99.615656
 20
106.051546
 30
0.0
 10
99.649523
 20
105.867161
 30
0.0
 10
99.649523
 20
105.671488
 30
0.0
  0
SPLINE
  5
191
100
AcDbEntity
  8
Layer_1
 62
3
100
AcDbSpline
 70
8
 71
3
 72
8
 73
4
 74
0
 40
0
 40
0
 40
0
 40
0
 40
1
 40
1
 40
1
 40
1
 10
99.649523
 20
105.671488
 30
0.0
 10
99.649523
 20
105.475812
 30
0.0
 10
99.615656
 20
105.291428
 30
0.0
 10
99.547923
 20
105.118333
 30
0.0
  0
SPLINE
  5
192
100
AcDbEntity
  8
Layer_1
 62
3
100
AcDbSpline
 70
8
 71
3
 72
8
 73
4
 74
0
 40
0
 40
0
 40
0
 40
0
 40
1
 40
1
 40
1
 40
1
 10
99.547923
 20
105.118333
 30
0.0
 10
99.480189
 20
104.937710
 30
0.0
 10
99.386116
 20
104.783428
 30
0.0
 10
99.265700
 20
104.655488
 30
0.0
  0
SPLINE
  5
193
100
AcDbEntity
  8
Layer_1
 62
3
100
AcDbSpline
 70
8
 71
3
 72
8
 73
4
 74
0
 40
0
 40
0
 40
0
 40
0
 40
1
 40
1
 40
1
 40
1
 10
99.265700
 20
104.655488
 30
0.0
 10
99.145285
 20
104.520022
 30
0.0
 10
99.002294
 20
104.418422
 30
0.0
 10
98.836723
 20
104.350688
 30
0.0
  0
SPLINE
  5
194
100
AcDbEntity
  8
Layer_1
 62
3
100
AcDbSpline
 70
8
 71
3
 72
8
 73
4
 74
0
 40
0
 40
0
 40
0
 40
0
 40
1
 40
1
 40
1
 40
1
 10
98.836723
 20
104.350688
 30
0.0
 10
98.671151
 20
104.275428
 30
0.0
 10
98.490529
 20
104.237799
 30
0.0
 10
98.294856
 20
104.237799
 30
0.0
  0
SPLINE
  5
195
100
AcDbEntity
  8
Layer_1
 62
3
100
AcDbSpline
 70
8
 71
3
 72
8
 73
4
 74
0
 40
0
 40
0
 40
0
 40
0
 40
1
 40
1
 40
1
 40
1
 10
98.294856
 20
104.237799
 30
0.0
 10
98.091656
 20
104.237799
 30
0.0
 10
97.903507
 20
104.275428
 30
0.0
 10
97.730412
 20
104.350688
 30
0.0
  0
SPLINE
  5
196
100
AcDbEntity
  8
Layer_1
 62
3
100
AcDbSpline
 70
8
 71
3
 72
8
 73
4
 74
0
 40
0
 40
0
 40
0
 40
0
 40
1
 40
1
 40
1
 40
1
 10
97.730412
 20
104.350688
 30
0.0
 10
97.557316
 20
104.418422
 30
0.0
 10
97.410561
 20
104.520022
 30
0.0
 10
97.290145
 20
104.655488
 30
0.0
  0
SPLINE
  5
197
100
AcDbEntity
  8
Layer_1
 62
3
100
AcDbSpline
 70
8
 71
3
 72
8
 73
4
 74
0
 40
0
 40
0
 40
0
 40
0
 40
1
 40
1
 40
1
 40
1
 10
97.290145
 20
104.655488
 30
0.0
 10
97.169729
 20
104.783428
 30
0.0
 10
97.071894
 20
104.937710
 30
0.0
 10
96.996634
 20
105.118333
 30
0.0
  0
SPLINE
  5
198
100
AcDbEntity
  8
Layer_1
 62
3
100
AcDbSpline
 70
8
 71
3
 72
8
 73
4
 74
0
 40
0
 40
0
 40
0
 40
0
 40
1
 40
1
 40
1
 40
1
 10
96.996634
 20
105.118333
 30
0.0
 10
96.928900
 20
105.291428
 30
0.0
 10
96.895034
 20
105.475812
 30
0.0
 10
96.895034
 20
105.671488
 30
0.0
  0
LINE
  5
199
100
AcDbEntity
  8
Layer_1
 62
3
100
AcDbLine
 10
96.895034
 20
105.671488
 30
0.0
 11
96.895034
 21
105.671488
 31
0.0
  0
LINE
  5
19a
100
AcDbEntity
  8
Layer_1
 62
3
100
AcDbLine
 10
83.506412
 20
108.369530
 30
0.0
 11
83.811212
 21
107.014863
 31
0.0
  0
SPLINE
  5
19b
100
AcDbEntity
  8
Layer_1
 62
3
100
AcDbSpline
 70
8
 71
3
 72
8
 73
4
 74
0
 40
0
 40
0
 40
0
 40
0
 40
1
 40
1
 40
1
 40
1
 10
83.811212
 20
107.014863
 30
0.0
 10
83.848843
 20
106.871870
 30
0.0
 10
83.920338
 20
106.755219
 30
0.0
 10
84.025700
 20
106.664908
 30
0.0
  0
SPLINE
  5
19c
100
AcDbEntity
  8
Layer_1
 62
3
100
AcDbSpline
 70
8
 71
3
 72
8
 73
4
 74
0
 40
0
 40
0
 40
0
 40
0
 40
1
 40
1
 40
1
 40
1
 10
84.025700
 20
106.664908
 30
0.0
 10
84.138589
 20
106.567070
 30
0.0
 10
84.277818
 20
106.518152
 30
0.0
 10
84.443389
 20
106.518152
 30
0.0
  0
LINE
  5
19d
100
AcDbEntity
  8
Layer_1
 62
3
100
AcDbLine
 10
84.443389
 20
106.518152
 30
0.0
 11
91.961789
 21
106.518152
 31
0.0
  0
SPLINE
  5
19e
100
AcDbEntity
  8
Layer_1
 62
3
100
AcDbSpline
 70
8
 71
3
 72
8
 73
4
 74
0
 40
0
 40
0
 40
0
 40
0
 40
1
 40
1
 40
1
 40
1
 10
91.961789
 20
106.518152
 30
0.0
 10
92.149938
 20
106.518152
 30
0.0
 10
92.307983
 20
106.570834
 30
0.0
 10
92.435923
 20
106.676197
 30
0.0
  0
SPLINE
  5
19f
100
AcDbEntity
  8
Layer_1
 62
3
100
AcDbSpline
 70
8
 71
3
 72
8
 73
4
 74
0
 40
0
 40
0
 40
0
 40
0
 40
1
 40
1
 40
1
 40
1
 10
92.435923
 20
106.676197
 30
0.0
 10
92.563863
 20
106.774034
 30
0.0
 10
92.669225
 20
106.943365
 30
0.0
 10
92.752012
 20
107.184197
 30
0.0
  0
LINE
  5
1a0
100
AcDbEntity
  8
Layer_1
 62
3
100
AcDbLine
 10
92.752012
 20
107.184197
 30
0.0
 11
93.158412
 21
108.324374
 31
0.0
  0
LINE
  5
1a1
100
AcDbEntity
  8
Layer_1
 62
3
100
AcDbLine
 10
93.158412
 20
108.324374
 30
0.0
 11
93.542234
 21
108.324374
 31
0.0
  0
LINE
  5
1a2
100
AcDbEntity
  8
Layer_1
 62
3
100
AcDbLine
 10
93.542234
 20
108.324374
 30
0.0
 11
94.298589
 21
104.553888
 31
0.0
  0
LINE
  5
1a3
100
AcDbEntity
  8
Layer_1
 62
3
100
AcDbLine
 10
94.298589
 20
104.553888
 30
0.0
 11
84.443389
 21
104.553888
 31
0.0
  0
SPLINE
  5
1a4
100
AcDbEntity
  8
Layer_1
 62
3
100
AcDbSpline
 70
8
 71
3
 72
8
 73
4
 74
0
 40
0
 40
0
 40
0
 40
0
 40
1
 40
1
 40
1
 40
1
 10
84.443389
 20
104.553888
 30
0.0
 10
84.270294
 20
104.553888
 30
0.0
 10
84.131063
 20
104.508733
 30
0.0
 10
84.025700
 20
104.418422
 30
0.0
  0
SPLINE
  5
1a5
100
AcDbEntity
  8
Layer_1
 62
3
100
AcDbSpline
 70
8
 71
3
 72
8
 73
4
 74
0
 40
0
 40
0
 40
0
 40
0
 40
1
 40
1
 40
1
 40
1
 10
84.025700
 20
104.418422
 30
0.0
 10
83.920338
 20
104.328110
 30
0.0
 10
83.848843
 20
104.207695
 30
0.0
 10
83.811212
 20
104.057177
 30
0.0
  0
LINE
  5
1a6
100
AcDbEntity
  8
Layer_1
 62
3
100
AcDbLine
 10
83.811212
 20
104.057177
 30
0.0
 11
83.506412
 21
102.792822
 31
0.0
  0
LINE
  5
1a7
100
AcDbEntity
  8
Layer_1
 62
3
100
AcDbLine
 10
83.506412
 20
102.792822
 30
0.0
 11
82.941967
 21
102.792822
 31
0.0
  0
LINE
  5
1a8
100
AcDbEntity
  8
Layer_1
 62
3
100
AcDbLine
 10
82.941967
 20
102.792822
 30
0.0
 11
82.941967
 21
108.369530
 31
0.0
  0
LINE
  5
1a9
100
AcDbEntity
  8
Layer_1
 62
3
100
AcDbLine
 10
82.941967
 20
108.369530
 30
0.0
 11
83.506412
 21
108.369530
 31
0.0
  0
LINE
  5
1aa
100
AcDbEntity
  8
Layer_1
 62
3
100
AcDbLine
 10
83.506412
 20
108.369530
 30
0.0
 11
83.506412
 21
108.369530
 31
0.0
  0
LINE
  5
1ab
100
AcDbEntity
  8
Layer_1
 62
3
100
AcDbLine
 10
86.080278
 20
85.641737
 30
0.0
 11
85.030412
 21
85.641737
 31
0.0
  0
SPLINE
  5
1ac
100
AcDbEntity
  8
Layer_1
 62
3
100
AcDbSpline
 70
8
 71
3
 72
8
 73
4
 74
0
 40
0
 40
0
 40
0
 40
0
 40
1
 40
1
 40
1
 40
1
 10
85.030412
 20
85.641737
 30
0.0
 10
84.767005
 20
85.957826
 30
0.0
 10
84.492307
 20
86.322832
 30
0.0
 10
84.206323
 20
86.736759
 30
0.0
  0
SPLINE
  5
1ad
100
AcDbEntity
  8
Layer_1
 62
3
100
AcDbSpline
 70
8
 71
3
 72
8
 73
4
 74
0
 40
0
 40
0
 40
0
 40
0
 40
1
 40
1
 40
1
 40
1
 10
84.206323
 20
86.736759
 30
0.0
 10
83.927865
 20
87.143159
 30
0.0
 10
83.668218
 20
87.587188
 30
0.0
 10
83.427389
 20
88.068848
 30
0.0
  0
SPLINE
  5
1ae
100
AcDbEntity
  8
Layer_1
 62
3
100
AcDbSpline
 70
8
 71
3
 72
8
 73
4
 74
0
 40
0
 40
0
 40
0
 40
0
 40
1
 40
1
 40
1
 40
1
 10
83.427389
 20
88.068848
 30
0.0
 10
83.194085
 20
88.550505
 30
0.0
 10
83.002174
 20
89.062270
 30
0.0
 10
82.851656
 20
89.604137
 30
0.0
  0
SPLINE
  5
1af
100
AcDbEntity
  8
Layer_1
 62
3
100
AcDbSpline
 70
8
 71
3
 72
8
 73
4
 74
0
 40
0
 40
0
 40
0
 40
0
 40
1
 40
1
 40
1
 40
1
 10
82.851656
 20
89.604137
 30
0.0
 10
82.693612
 20
90.138477
 30
0.0
 10
82.614589
 20
90.687870
 30
0.0
 10
82.614589
 20
91.252315
 30
0.0
  0
SPLINE
  5
1b0
100
AcDbEntity
  8
Layer_1
 62
3
100
AcDbSpline
 70
8
 71
3
 72
8
 73
4
 74
0
 40
0
 40
0
 40
0
 40
0
 40
1
 40
1
 40
1
 40
1
 10
82.614589
 20
91.252315
 30
0.0
 10
82.614589
 20
92.403781
 30
0.0
 10
82.798976
 20
93.442359
 30
0.0
 10
83.167745
 20
94.368045
 30
0.0
  0
SPLINE
  5
1b1
100
AcDbEntity
  8
Layer_1
 62
3
100
AcDbSpline
 70
8
 71
3
 72
8
 73
4
 74
0
 40
0
 40
0
 40
0
 40
0
 40
1
 40
1
 40
1
 40
1
 10
83.167745
 20
94.368045
 30
0.0
 10
83.544043
 20
95.293734
 30
0.0
 10
84.082145
 20
96.083959
 30
0.0
 10
84.782056
 20
96.738715
 30
0.0
  0
SPLINE
  5
1b2
100
AcDbEntity
  8
Layer_1
 62
3
100
AcDbSpline
 70
8
 71
3
 72
8
 73
4
 74
0
 40
0
 40
0
 40
0
 40
0
 40
1
 40
1
 40
1
 40
1
 10
84.782056
 20
96.738715
 30
0.0
 10
85.481967
 20
97.393470
 30
0.0
 10
86.332396
 20
97.901470
 30
0.0
 10
87.333345
 20
98.262715
 30
0.0
  0
SPLINE
  5
1b3
100
AcDbEntity
  8
Layer_1
 62
3
100
AcDbSpline
 70
8
 71
3
 72
8
 73
4
 74
0
 40
0
 40
0
 40
0
 40
0
 40
1
 40
1
 40
1
 40
1
 10
87.333345
 20
98.262715
 30
0.0
 10
88.341818
 20
98.616432
 30
0.0
 10
89.478234
 20
98.793292
 30
0.0
 10
90.742589
 20
98.793292
 30
0.0
  0
SPLINE
  5
1b4
100
AcDbEntity
  8
Layer_1
 62
3
100
AcDbSpline
 70
8
 71
3
 72
8
 73
4
 74
0
 40
0
 40
0
 40
0
 40
0
 40
1
 40
1
 40
1
 40
1
 10
90.742589
 20
98.793292
 30
0.0
 10
91.961789
 20
98.793292
 30
0.0
 10
93.075625
 20
98.601381
 30
0.0
 10
94.084100
 20
98.217559
 30
0.0
  0
SPLINE
  5
1b5
100
AcDbEntity
  8
Layer_1
 62
3
100
AcDbSpline
 70
8
 71
3
 72
8
 73
4
 74
0
 40
0
 40
0
 40
0
 40
0
 40
1
 40
1
 40
1
 40
1
 10
94.084100
 20
98.217559
 30
0.0
 10
95.092576
 20
97.833737
 30
0.0
 10
95.954294
 20
97.303159
 30
0.0
 10
96.669256
 20
96.625823
 30
0.0
  0
SPLINE
  5
1b6
100
AcDbEntity
  8
Layer_1
 62
3
100
AcDbSpline
 70
8
 71
3
 72
8
 73
4
 74
0
 40
0
 40
0
 40
0
 40
0
 40
1
 40
1
 40
1
 40
1
 10
96.669256
 20
96.625823
 30
0.0
 10
97.391745
 20
95.948492
 30
0.0
 10
97.948663
 20
95.150743
 30
0.0
 10
98.340012
 20
94.232581
 30
0.0
  0
SPLINE
  5
1b7
100
AcDbEntity
  8
Layer_1
 62
3
100
AcDbSpline
 70
8
 71
3
 72
8
 73
4
 74
0
 40
0
 40
0
 40
0
 40
0
 40
1
 40
1
 40
1
 40
1
 10
98.340012
 20
94.232581
 30
0.0
 10
98.738885
 20
93.306892
 30
0.0
 10
98.938323
 20
92.305943
 30
0.0
 10
98.938323
 20
91.229737
 30
0.0
  0
SPLINE
  5
1b8
100
AcDbEntity
  8
Layer_1
 62
3
100
AcDbSpline
 70
8
 71
3
 72
8
 73
4
 74
0
 40
0
 40
0
 40
0
 40
0
 40
1
 40
1
 40
1
 40
1
 10
98.938323
 20
91.229737
 30
0.0
 10
98.938323
 20
90.853439
 30
0.0
 10
98.911991
 20
90.439515
 30
0.0
 10
98.859300
 20
89.987959
 30
0.0
  0
SPLINE
  5
1b9
100
AcDbEntity
  8
Layer_1
 62
3
100
AcDbSpline
 70
8
 71
3
 72
8
 73
4
 74
0
 40
0
 40
0
 40
0
 40
0
 40
1
 40
1
 40
1
 40
1
 10
98.859300
 20
89.987959
 30
0.0
 10
98.806618
 20
89.528877
 30
0.0
 10
98.738885
 20
89.073559
 30
0.0
 10
98.656100
 20
88.622004
 30
0.0
  0
SPLINE
  5
1ba
100
AcDbEntity
  8
Layer_1
 62
3
100
AcDbSpline
 70
8
 71
3
 72
8
 73
4
 74
0
 40
0
 40
0
 40
0
 40
0
 40
1
 40
1
 40
1
 40
1
 10
98.656100
 20
88.622004
 30
0.0
 10
98.573316
 20
88.170448
 30
0.0
 10
98.479240
 20
87.737705
 30
0.0
 10
98.373878
 20
87.323781
 30
0.0
  0
SPLINE
  5
1bb
100
AcDbEntity
  8
Layer_1
 62
3
100
AcDbSpline
 70
8
 71
3
 72
8
 73
4
 74
0
 40
0
 40
0
 40
0
 40
0
 40
1
 40
1
 40
1
 40
1
 10
98.373878
 20
87.323781
 30
0.0
 10
98.268516
 20
86.909854
 30
0.0
 10
98.166916
 20
86.548610
 30
0.0
 10
98.069078
 20
86.240048
 30
0.0
  0
LINE
  5
1bc
100
AcDbEntity
  8
Layer_1
 62
3
100
AcDbLine
 10
98.069078
 20
86.240048
 30
0.0
 11
94.377612
 21
86.240048
 31
0.0
  0
LINE
  5
1bd
100
AcDbEntity
  8
Layer_1
 62
3
100
AcDbLine
 10
94.377612
 20
86.240048
 30
0.0
 11
94.377612
 21
86.962537
 31
0.0
  0
LINE
  5
1be
100
AcDbEntity
  8
Layer_1
 62
3
100
AcDbLine
 10
94.377612
 20
86.962537
 30
0.0
 11
96.409612
 21
87.639870
 31
0.0
  0
SPLINE
  5
1bf
100
AcDbEntity
  8
Layer_1
 62
3
100
AcDbSpline
 70
8
 71
3
 72
8
 73
4
 74
0
 40
0
 40
0
 40
0
 40
0
 40
1
 40
1
 40
1
 40
1
 10
96.409612
 20
87.639870
 30
0.0
 10
96.545078
 20
87.669972
 30
0.0
 10
96.646678
 20
87.730181
 30
0.0
 10
96.714412
 20
87.820492
 30
0.0
  0
SPLINE
  5
1c0
100
AcDbEntity
  8
Layer_1
 62
3
100
AcDbSpline
 70
8
 71
3
 72
8
 73
4
 74
0
 40
0
 40
0
 40
0
 40
0
 40
1
 40
1
 40
1
 40
1
 10
96.714412
 20
87.820492
 30
0.0
 10
96.789672
 20
87.910804
 30
0.0
 10
96.857405
 20
88.008641
 30
0.0
 10
96.917612
 20
88.114004
 30
0.0
  0
SPLINE
  5
1c1
100
AcDbEntity
  8
Layer_1
 62
3
100
AcDbSpline
 70
8
 71
3
 72
8
 73
4
 74
0
 40
0
 40
0
 40
0
 40
0
 40
1
 40
1
 40
1
 40
1
 10
96.917612
 20
88.114004
 30
0.0
 10
97.045551
 20
88.354832
 30
0.0
 10
97.165967
 20
88.622004
 30
0.0
 10
97.278856
 20
88.915515
 30
0.0
  0
SPLINE
  5
1c2
100
AcDbEntity
  8
Layer_1
 62
3
100
AcDbSpline
 70
8
 71
3
 72
8
 73
4
 74
0
 40
0
 40
0
 40
0
 40
0
 40
1
 40
1
 40
1
 40
1
 10
97.278856
 20
88.915515
 30
0.0
 10
97.399272
 20
89.209026
 30
0.0
 10
97.504634
 20
89.517588
 30
0.0
 10
97.594945
 20
89.841204
 30
0.0
  0
SPLINE
  5
1c3
100
AcDbEntity
  8
Layer_1
 62
3
100
AcDbSpline
 70
8
 71
3
 72
8
 73
4
 74
0
 40
0
 40
0
 40
0
 40
0
 40
1
 40
1
 40
1
 40
1
 10
97.594945
 20
89.841204
 30
0.0
 10
97.685256
 20
90.164816
 30
0.0
 10
97.752989
 20
90.492194
 30
0.0
 10
97.798145
 20
90.823337
 30
0.0
  0
SPLINE
  5
1c4
100
AcDbEntity
  8
Layer_1
 62
3
100
AcDbSpline
 70
8
 71
3
 72
8
 73
4
 74
0
 40
0
 40
0
 40
0
 40
0
 40
1
 40
1
 40
1
 40
1
 10
97.798145
 20
90.823337
 30
0.0
 10
97.850827
 20
91.146950
 30
0.0
 10
97.877167
 20
91.463039
 30
0.0
 10
97.877167
 20
91.771604
 30
0.0
  0
SPLINE
  5
1c5
100
AcDbEntity
  8
Layer_1
 62
3
100
AcDbSpline
 70
8
 71
3
 72
8
 73
4
 74
0
 40
0
 40
0
 40
0
 40
0
 40
1
 40
1
 40
1
 40
1
 10
97.877167
 20
91.771604
 30
0.0
 10
97.877167
 20
92.463988
 30
0.0
 10
97.737938
 20
93.099928
 30
0.0
 10
97.459478
 20
93.679426
 30
0.0
  0
SPLINE
  5
1c6
100
AcDbEntity
  8
Layer_1
 62
3
100
AcDbSpline
 70
8
 71
3
 72
8
 73
4
 74
0
 40
0
 40
0
 40
0
 40
0
 40
1
 40
1
 40
1
 40
1
 10
97.459478
 20
93.679426
 30
0.0
 10
97.181018
 20
94.251394
 30
0.0
 10
96.759567
 20
94.748105
 30
0.0
 10
96.195123
 20
95.169559
 30
0.0
  0
SPLINE
  5
1c7
100
AcDbEntity
  8
Layer_1
 62
3
100
AcDbSpline
 70
8
 71
3
 72
8
 73
4
 74
0
 40
0
 40
0
 40
0
 40
0
 40
1
 40
1
 40
1
 40
1
 10
96.195123
 20
95.169559
 30
0.0
 10
95.630678
 20
95.583483
 30
0.0
 10
94.927005
 20
95.907099
 30
0.0
 10
94.084100
 20
96.140404
 30
0.0
  0
SPLINE
  5
1c8
100
AcDbEntity
  8
Layer_1
 62
3
100
AcDbSpline
 70
8
 71
3
 72
8
 73
4
 74
0
 40
0
 40
0
 40
0
 40
0
 40
1
 40
1
 40
1
 40
1
 10
94.084100
 20
96.140404
 30
0.0
 10
93.241196
 20
96.366181
 30
0.0
 10
92.259063
 20
96.479070
 30
0.0
 10
91.137700
 20
96.479070
 30
0.0
  0
SPLINE
  5
1c9
100
AcDbEntity
  8
Layer_1
 62
3
100
AcDbSpline
 70
8
 71
3
 72
8
 73
4
 74
0
 40
0
 40
0
 40
0
 40
0
 40
1
 40
1
 40
1
 40
1
 10
91.137700
 20
96.479070
 30
0.0
 10
88.782085
 20
96.479070
 30
0.0
 10
87.009729
 20
95.974832
 30
0.0
 10
85.820634
 20
94.966359
 30
0.0
  0
SPLINE
  5
1ca
100
AcDbEntity
  8
Layer_1
 62
3
100
AcDbSpline
 70
8
 71
3
 72
8
 73
4
 74
0
 40
0
 40
0
 40
0
 40
0
 40
1
 40
1
 40
1
 40
1
 10
85.820634
 20
94.966359
 30
0.0
 10
84.639063
 20
93.957883
 30
0.0
 10
84.048278
 20
92.512905
 30
0.0
 10
84.048278
 20
90.631423
 30
0.0
  0
SPLINE
  5
1cb
100
AcDbEntity
  8
Layer_1
 62
3
100
AcDbSpline
 70
8
 71
3
 72
8
 73
4
 74
0
 40
0
 40
0
 40
0
 40
0
 40
1
 40
1
 40
1
 40
1
 10
84.048278
 20
90.631423
 30
0.0
 10
84.048278
 20
90.029350
 30
0.0
 10
84.116012
 20
89.487483
 30
0.0
 10
84.251478
 20
89.005826
 30
0.0
  0
SPLINE
  5
1cc
100
AcDbEntity
  8
Layer_1
 62
3
100
AcDbSpline
 70
8
 71
3
 72
8
 73
4
 74
0
 40
0
 40
0
 40
0
 40
0
 40
1
 40
1
 40
1
 40
1
 10
84.251478
 20
89.005826
 30
0.0
 10
84.386945
 20
88.524166
 30
0.0
 10
84.556278
 20
88.091426
 30
0.0
 10
84.759478
 20
87.707604
 30
0.0
  0
SPLINE
  5
1cd
100
AcDbEntity
  8
Layer_1
 62
3
100
AcDbSpline
 70
8
 71
3
 72
8
 73
4
 74
0
 40
0
 40
0
 40
0
 40
0
 40
1
 40
1
 40
1
 40
1
 10
84.759478
 20
87.707604
 30
0.0
 10
84.970205
 20
87.323781
 30
0.0
 10
85.192218
 20
86.988877
 30
0.0
 10
85.425523
 20
86.702892
 30
0.0
  0
SPLINE
  5
1ce
100
AcDbEntity
  8
Layer_1
 62
3
100
AcDbSpline
 70
8
 71
3
 72
8
 73
4
 74
0
 40
0
 40
0
 40
0
 40
0
 40
1
 40
1
 40
1
 40
1
 10
85.425523
 20
86.702892
 30
0.0
 10
85.658827
 20
86.409381
 30
0.0
 10
85.877078
 20
86.145972
 30
0.0
 10
86.080278
 20
85.912670
 30
0.0
  0
LINE
  5
1cf
100
AcDbEntity
  8
Layer_1
 62
3
100
AcDbLine
 10
86.080278
 20
85.912670
 30
0.0
 11
86.080278
 21
85.641737
 31
0.0
  0
LINE
  5
1d0
100
AcDbEntity
  8
Layer_1
 62
3
100
AcDbLine
 10
86.080278
 20
85.641737
 30
0.0
 11
86.080278
 21
85.641737
 31
0.0
  0
LINE
  5
1d1
100
AcDbEntity
  8
Layer_1
 62
3
100
AcDbLine
 10
85.402945
 20
72.135555
 30
0.0
 11
84.511123
 21
72.135555
 31
0.0
  0
SPLINE
  5
1d2
100
AcDbEntity
  8
Layer_1
 62
3
100
AcDbSpline
 70
8
 71
3
 72
8
 73
4
 74
0
 40
0
 40
0
 40
0
 40
0
 40
1
 40
1
 40
1
 40
1
 10
84.511123
 20
72.135555
 30
0.0
 10
84.285345
 20
72.376384
 30
0.0
 10
84.063329
 20
72.654844
 30
0.0
 10
83.845078
 20
72.970930
 30
0.0
  0
SPLINE
  5
1d3
100
AcDbEntity
  8
Layer_1
 62
3
100
AcDbSpline
 70
8
 71
3
 72
8
 73
4
 74
0
 40
0
 40
0
 40
0
 40
0
 40
1
 40
1
 40
1
 40
1
 10
83.845078
 20
72.970930
 30
0.0
 10
83.626827
 20
73.279495
 30
0.0
 10
83.431154
 20
73.621923
 30
0.0
 10
83.258056
 20
73.998219
 30
0.0
  0
SPLINE
  5
1d4
100
AcDbEntity
  8
Layer_1
 62
3
100
AcDbSpline
 70
8
 71
3
 72
8
 73
4
 74
0
 40
0
 40
0
 40
0
 40
0
 40
1
 40
1
 40
1
 40
1
 10
83.258056
 20
73.998219
 30
0.0
 10
83.084961
 20
74.374517
 30
0.0
 10
82.941967
 20
74.777152
 30
0.0
 10
82.829078
 20
75.206133
 30
0.0
  0
SPLINE
  5
1d5
100
AcDbEntity
  8
Layer_1
 62
3
100
AcDbSpline
 70
8
 71
3
 72
8
 73
4
 74
0
 40
0
 40
0
 40
0
 40
0
 40
1
 40
1
 40
1
 40
1
 10
82.829078
 20
75.206133
 30
0.0
 10
82.716189
 20
75.635111
 30
0.0
 10
82.659745
 20
76.079139
 30
0.0
 10
82.659745
 20
76.538219
 30
0.0
  0
SPLINE
  5
1d6
100
AcDbEntity
  8
Layer_1
 62
3
100
AcDbSpline
 70
8
 71
3
 72
8
 73
4
 74
0
 40
0
 40
0
 40
0
 40
0
 40
1
 40
1
 40
1
 40
1
 10
82.659745
 20
76.538219
 30
0.0
 10
82.659745
 20
77.290812
 30
0.0
 10
82.783923
 20
77.979435
 30
0.0
 10
83.032278
 20
78.604085
 30
0.0
  0
SPLINE
  5
1d7
100
AcDbEntity
  8
Layer_1
 62
3
100
AcDbSpline
 70
8
 71
3
 72
8
 73
4
 74
0
 40
0
 40
0
 40
0
 40
0
 40
1
 40
1
 40
1
 40
1
 10
83.032278
 20
78.604085
 30
0.0
 10
83.288161
 20
79.228739
 30
0.0
 10
83.660694
 20
79.766841
 30
0.0
 10
84.149878
 20
80.218397
 30
0.0
  0
SPLINE
  5
1d8
100
AcDbEntity
  8
Layer_1
 62
3
100
AcDbSpline
 70
8
 71
3
 72
8
 73
4
 74
0
 40
0
 40
0
 40
0
 40
0
 40
1
 40
1
 40
1
 40
1
 10
84.149878
 20
80.218397
 30
0.0
 10
84.646589
 20
80.669952
 30
0.0
 10
85.256189
 20
81.019908
 30
0.0
 10
85.978678
 20
81.268263
 30
0.0
  0
SPLINE
  5
1d9
100
AcDbEntity
  8
Layer_1
 62
3
100
AcDbSpline
 70
8
 71
3
 72
8
 73
4
 74
0
 40
0
 40
0
 40
0
 40
0
 40
1
 40
1
 40
1
 40
1
 10
85.978678
 20
81.268263
 30
0.0
 10
86.701167
 20
81.516622
 30
0.0
 10
87.532783
 20
81.640797
 30
0.0
 10
88.473523
 20
81.640797
 30
0.0
  0
SPLINE
  5
1da
100
AcDbEntity
  8
Layer_1
 62
3
100
AcDbSpline
 70
8
 71
3
 72
8
 73
4
 74
0
 40
0
 40
0
 40
0
 40
0
 40
1
 40
1
 40
1
 40
1
 10
88.473523
 20
81.640797
 30
0.0
 10
89.263745
 20
81.640797
 30
0.0
 10
90.016338
 20
81.524146
 30
0.0
 10
90.731300
 20
81.290841
 30
0.0
  0
SPLINE
  5
1db
100
AcDbEntity
  8
Layer_1
 62
3
100
AcDbSpline
 70
8
 71
3
 72
8
 73
4
 74
0
 40
0
 40
0
 40
0
 40
0
 40
1
 40
1
 40
1
 40
1
 10
90.731300
 20
81.290841
 30
0.0
 10
91.453789
 20
81.050012
 30
0.0
 10
92.085967
 20
80.703819
 30
0.0
 10
92.627834
 20
80.252263
 30
0.0
  0
SPLINE
  5
1dc
100
AcDbEntity
  8
Layer_1
 62
3
100
AcDbSpline
 70
8
 71
3
 72
8
 73
4
 74
0
 40
0
 40
0
 40
0
 40
0
 40
1
 40
1
 40
1
 40
1
 10
92.627834
 20
80.252263
 30
0.0
 10
93.169700
 20
79.800711
 30
0.0
 10
93.602440
 20
79.255079
 30
0.0
 10
93.926056
 20
78.615374
 30
0.0
  0
SPLINE
  5
1dd
100
AcDbEntity
  8
Layer_1
 62
3
100
AcDbSpline
 70
8
 71
3
 72
8
 73
4
 74
0
 40
0
 40
0
 40
0
 40
0
 40
1
 40
1
 40
1
 40
1
 10
93.926056
 20
78.615374
 30
0.0
 10
94.249672
 20
77.968146
 30
0.0
 10
94.411478
 20
77.241895
 30
0.0
 10
94.411478
 20
76.436622
 30
0.0
  0
SPLINE
  5
1de
100
AcDbEntity
  8
Layer_1
 62
3
100
AcDbSpline
 70
8
 71
3
 72
8
 73
4
 74
0
 40
0
 40
0
 40
0
 40
0
 40
1
 40
1
 40
1
 40
1
 10
94.411478
 20
76.436622
 30
0.0
 10
94.411478
 20
75.744235
 30
0.0
 10
94.283538
 20
75.130873
 30
0.0
 10
94.027656
 20
74.596530
 30
0.0
  0
SPLINE
  5
1df
100
AcDbEntity
  8
Layer_1
 62
3
100
AcDbSpline
 70
8
 71
3
 72
8
 73
4
 74
0
 40
0
 40
0
 40
0
 40
0
 40
1
 40
1
 40
1
 40
1
 10
94.027656
 20
74.596530
 30
0.0
 10
93.779300
 20
74.054666
 30
0.0
 10
93.451923
 20
73.603111
 30
0.0
 10
93.045523
 20
73.241866
 30
0.0
  0
SPLINE
  5
1e0
100
AcDbEntity
  8
Layer_1
 62
3
100
AcDbSpline
 70
8
 71
3
 72
8
 73
4
 74
0
 40
0
 40
0
 40
0
 40
0
 40
1
 40
1
 40
1
 40
1
 10
93.045523
 20
73.241866
 30
0.0
 10
92.639123
 20
72.873095
 30
0.0
 10
92.172516
 20
72.594635
 30
0.0
 10
91.645700
 20
72.406488
 30
0.0
  0
SPLINE
  5
1e1
100
AcDbEntity
  8
Layer_1
 62
3
100
AcDbSpline
 70
8
 71
3
 72
8
 73
4
 74
0
 40
0
 40
0
 40
0
 40
0
 40
1
 40
1
 40
1
 40
1
 10
91.645700
 20
72.406488
 30
0.0
 10
91.118885
 20
72.210812
 30
0.0
 10
90.580783
 20
72.112977
 30
0.0
 10
90.031389
 20
72.112977
 30
0.0
  0
SPLINE
  5
1e2
100
AcDbEntity
  8
Layer_1
 62
3
100
AcDbSpline
 70
8
 71
3
 72
8
 73
4
 74
0
 40
0
 40
0
 40
0
 40
0
 40
1
 40
1
 40
1
 40
1
 10
90.031389
 20
72.112977
 30
0.0
 10
89.963656
 20
72.112977
 30
0.0
 10
89.888396
 20
72.116731
 30
0.0
 10
89.805612
 20
72.124266
 30
0.0
  0
SPLINE
  5
1e3
100
AcDbEntity
  8
Layer_1
 62
3
100
AcDbSpline
 70
8
 71
3
 72
8
 73
4
 74
0
 40
0
 40
0
 40
0
 40
0
 40
1
 40
1
 40
1
 40
1
 10
89.805612
 20
72.124266
 30
0.0
 10
89.730351
 20
72.124266
 30
0.0
 10
89.651329
 20
72.128020
 30
0.0
 10
89.568545
 20
72.135555
 30
0.0
  0
SPLINE
  5
1e4
100
AcDbEntity
  8
Layer_1
 62
3
100
AcDbSpline
 70
8
 71
3
 72
8
 73
4
 74
0
 40
0
 40
0
 40
0
 40
0
 40
1
 40
1
 40
1
 40
1
 10
89.568545
 20
72.135555
 30
0.0
 10
89.485761
 20
72.135555
 30
0.0
 10
89.406738
 20
72.143090
 30
0.0
 10
89.331478
 20
72.158133
 30
0.0
  0
SPLINE
  5
1e5
100
AcDbEntity
  8
Layer_1
 62
3
100
AcDbSpline
 70
8
 71
3
 72
8
 73
4
 74
0
 40
0
 40
0
 40
0
 40
0
 40
1
 40
1
 40
1
 40
1
 10
89.331478
 20
72.158130
 30
0.0
 10
89.256218
 20
72.173172
 30
0.0
 10
89.188485
 20
72.184461
 30
0.0
 10
89.128278
 20
72.191999
 30
0.0
  0
LINE
  5
1e6
100
AcDbEntity
  8
Layer_1
 62
3
100
AcDbLine
 10
89.128278
 20
72.191999
 30
0.0
 11
89.128278
 21
79.597511
 31
0.0
  0
SPLINE
  5
1e7
100
AcDbEntity
  8
Layer_1
 62
3
100
AcDbSpline
 70
8
 71
3
 72
8
 73
4
 74
0
 40
0
 40
0
 40
0
 40
0
 40
1
 40
1
 40
1
 40
1
 10
89.128278
 20
79.597511
 30
0.0
 10
87.480100
 20
79.589975
 30
0.0
 10
86.219507
 20
79.270133
 30
0.0
 10
85.346500
 20
78.637952
 30
0.0
  0
SPLINE
  5
1e8
100
AcDbEntity
  8
Layer_1
 62
3
100
AcDbSpline
 70
8
 71
3
 72
8
 73
4
 74
0
 40
0
 40
0
 40
0
 40
0
 40
1
 40
1
 40
1
 40
1
 10
85.346500
 20
78.637952
 30
0.0
 10
84.473494
 20
77.998250
 30
0.0
 10
84.036989
 20
77.049984
 30
0.0
 10
84.036989
 20
75.793152
 30
0.0
  0
SPLINE
  5
1e9
100
AcDbEntity
  8
Layer_1
 62
3
100
AcDbSpline
 70
8
 71
3
 72
8
 73
4
 74
0
 40
0
 40
0
 40
0
 40
0
 40
1
 40
1
 40
1
 40
1
 10
84.036989
 20
75.793152
 30
0.0
 10
84.036989
 20
75.371701
 30
0.0
 10
84.082145
 20
74.980352
 30
0.0
 10
84.172456
 20
74.619111
 30
0.0
  0
SPLINE
  5
1ea
100
AcDbEntity
  8
Layer_1
 62
3
100
AcDbSpline
 70
8
 71
3
 72
8
 73
4
 74
0
 40
0
 40
0
 40
0
 40
0
 40
1
 40
1
 40
1
 40
1
 10
84.172456
 20
74.619111
 30
0.0
 10
84.270294
 20
74.257866
 30
0.0
 10
84.386945
 20
73.930488
 30
0.0
 10
84.522412
 20
73.636977
 30
0.0
  0
SPLINE
  5
1eb
100
AcDbEntity
  8
Layer_1
 62
3
100
AcDbSpline
 70
8
 71
3
 72
8
 73
4
 74
0
 40
0
 40
0
 40
0
 40
0
 40
1
 40
1
 40
1
 40
1
 10
84.522412
 20
73.636977
 30
0.0
 10
84.665405
 20
73.343466
 30
0.0
 10
84.815923
 20
73.087584
 30
0.0
 10
84.973967
 20
72.869330
 30
0.0
  0
SPLINE
  5
1ec
100
AcDbEntity
  8
Layer_1
 62
3
100
AcDbSpline
 70
8
 71
3
 72
8
 73
4
 74
0
 40
0
 40
0
 40
0
 40
0
 40
1
 40
1
 40
1
 40
1
 10
84.973967
 20
72.869330
 30
0.0
 10
85.132012
 20
72.643555
 30
0.0
 10
85.275005
 20
72.451644
 30
0.0
 10
85.402945
 20
72.293599
 30
0.0
  0
LINE
  5
1ed
100
AcDbEntity
  8
Layer_1
 62
3
100
AcDbLine
 10
85.402945
 20
72.293599
 30
0.0
 11
85.402945
 21
72.135555
 31
0.0
  0
LINE
  5
1ee
100
AcDbEntity
  8
Layer_1
 62
3
100
AcDbLine
 10
85.402945
 20
72.135555
 30
0.0
 11
85.402945
 21
72.135555
 31
0.0
  0
SPLINE
  5
1ef
100
AcDbEntity
  8
Layer_1
 62
3
100
AcDbSpline
 70
8
 71
3
 72
8
 73
4
 74
0
 40
0
 40
0
 40
0
 40
0
 40
1
 40
1
 40
1
 40
1
 10
89.941078
 20
74.190133
 30
0.0
 10
90.430263
 20
74.190133
 30
0.0
 10
90.893107
 20
74.231523
 30
0.0
 10
91.329612
 20
74.314311
 30
0.0
  0
SPLINE
  5
1f0
100
AcDbEntity
  8
Layer_1
 62
3
100
AcDbSpline
 70
8
 71
3
 72
8
 73
4
 74
0
 40
0
 40
0
 40
0
 40
0
 40
1
 40
1
 40
1
 40
1
 10
91.329612
 20
74.314311
 30
0.0
 10
91.773640
 20
74.397095
 30
0.0
 10
92.161225
 20
74.532561
 30
0.0
 10
92.492367
 20
74.720711
 30
0.0
  0
SPLINE
  5
1f1
100
AcDbEntity
  8
Layer_1
 62
3
100
AcDbSpline
 70
8
 71
3
 72
8
 73
4
 74
0
 40
0
 40
0
 40
0
 40
0
 40
1
 40
1
 40
1
 40
1
 10
92.492367
 20
74.720711
 30
0.0
 10
92.831034
 20
74.908857
 30
0.0
 10
93.098205
 20
75.153450
 30
0.0
 10
93.293878
 20
75.454488
 30
0.0
  0
SPLINE
  5
1f2
100
AcDbEntity
  8
Layer_1
 62
3
100
AcDbSpline
 70
8
 71
3
 72
8
 73
4
 74
0
 40
0
 40
0
 40
0
 40
0
 40
1
 40
1
 40
1
 40
1
 10
93.293878
 20
75.454488
 30
0.0
 10
93.489551
 20
75.755523
 30
0.0
 10
93.587389
 20
76.124295
 30
0.0
 10
93.587389
 20
76.560799
 30
0.0
  0
SPLINE
  5
1f3
100
AcDbEntity
  8
Layer_1
 62
3
100
AcDbSpline
 70
8
 71
3
 72
8
 73
4
 74
0
 40
0
 40
0
 40
0
 40
0
 40
1
 40
1
 40
1
 40
1
 10
93.587389
 20
76.560799
 30
0.0
 10
93.587389
 20
76.982250
 30
0.0
 10
93.500840
 20
77.362311
 30
0.0
 10
93.327745
 20
77.700974
 30
0.0
  0
SPLINE
  5
1f4
100
AcDbEntity
  8
Layer_1
 62
3
100
AcDbSpline
 70
8
 71
3
 72
8
 73
4
 74
0
 40
0
 40
0
 40
0
 40
0
 40
1
 40
1
 40
1
 40
1
 10
93.327745
 20
77.700974
 30
0.0
 10
93.154650
 20
78.032117
 30
0.0
 10
92.910056
 20
78.325628
 30
0.0
 10
92.593967
 20
78.581511
 30
0.0
  0
SPLINE
  5
1f5
100
AcDbEntity
  8
Layer_1
 62
3
100
AcDbSpline
 70
8
 71
3
 72
8
 73
4
 74
0
 40
0
 40
0
 40
0
 40
0
 40
1
 40
1
 40
1
 40
1
 10
92.593967
 20
78.581511
 30
0.0
 10
92.285405
 20
78.829863
 30
0.0
 10
91.905345
 20
79.036828
 30
0.0
 10
91.453789
 20
79.202399
 30
0.0
  0
SPLINE
  5
1f6
100
AcDbEntity
  8
Layer_1
 62
3
100
AcDbSpline
 70
8
 71
3
 72
8
 73
4
 74
0
 40
0
 40
0
 40
0
 40
0
 40
1
 40
1
 40
1
 40
1
 10
91.453789
 20
79.202399
 30
0.0
 10
91.002234
 20
79.360441
 30
0.0
 10
90.497996
 20
79.473333
 30
0.0
 10
89.941078
 20
79.541063
 30
0.0
  0
LINE
  5
1f7
100
AcDbEntity
  8
Layer_1
 62
3
100
AcDbLine
 10
89.941078
 20
79.541063
 30
0.0
 11
89.941078
 21
74.190133
 31
0.0
  0
LINE
  5
1f8
100
AcDbEntity
  8
Layer_1
 62
3
100
AcDbLine
 10
89.941078
 20
74.190133
 30
0.0
 11
89.941078
 21
74.190133
 31
0.0
  0
LINE
  5
1f9
100
AcDbEntity
  8
Layer_1
 62
3
100
AcDbLine
 10
83.506412
 20
67.972247
 30
0.0
 11
83.811212
 21
66.707888
 31
0.0
  0
SPLINE
  5
1fa
100
AcDbEntity
  8
Layer_1
 62
3
100
AcDbSpline
 70
8
 71
3
 72
8
 73
4
 74
0
 40
0
 40
0
 40
0
 40
0
 40
1
 40
1
 40
1
 40
1
 10
83.811212
 20
66.707888
 30
0.0
 10
83.856367
 20
66.564898
 30
0.0
 10
83.931627
 20
66.448247
 30
0.0
 10
84.036989
 20
66.357935
 30
0.0
  0
SPLINE
  5
1fb
100
AcDbEntity
  8
Layer_1
 62
3
100
AcDbSpline
 70
8
 71
3
 72
8
 73
4
 74
0
 40
0
 40
0
 40
0
 40
0
 40
1
 40
1
 40
1
 40
1
 10
84.036989
 20
66.357935
 30
0.0
 10
84.142351
 20
66.260098
 30
0.0
 10
84.277818
 20
66.211177
 30
0.0
 10
84.443389
 20
66.211177
 30
0.0
  0
LINE
  5
1fc
100
AcDbEntity
  8
Layer_1
 62
3
100
AcDbLine
 10
84.443389
 20
66.211177
 30
0.0
 11
91.973078
 21
66.211177
 31
0.0
  0
SPLINE
  5
1fd
100
AcDbEntity
  8
Layer_1
 62
3
100
AcDbSpline
 70
8
 71
3
 72
8
 73
4
 74
0
 40
0
 40
0
 40
0
 40
0
 40
1
 40
1
 40
1
 40
1
 10
91.973078
 20
66.211177
 30
0.0
 10
92.161225
 20
66.211177
 30
0.0
 10
92.319272
 20
66.263860
 30
0.0
 10
92.447212
 20
66.369224
 30
0.0
  0
SPLINE
  5
1fe
100
AcDbEntity
  8
Layer_1
 62
3
100
AcDbSpline
 70
8
 71
3
 72
8
 73
4
 74
0
 40
0
 40
0
 40
0
 40
0
 40
1
 40
1
 40
1
 40
1
 10
92.447212
 20
66.369224
 30
0.0
 10
92.575151
 20
66.474586
 30
0.0
 10
92.684278
 20
66.643920
 30
0.0
 10
92.774589
 20
66.877224
 30
0.0
  0
LINE
  5
1ff
100
AcDbEntity
  8
Layer_1
 62
3
100
AcDbLine
 10
92.774589
 20
66.877224
 30
0.0
 11
93.169700
 21
67.960958
 31
0.0
  0
LINE
  5
200
100
AcDbEntity
  8
Layer_1
 62
3
100
AcDbLine
 10
93.169700
 20
67.960958
 30
0.0
 11
93.564812
 21
67.960958
 31
0.0
  0
LINE
  5
201
100
AcDbEntity
  8
Layer_1
 62
3
100
AcDbLine
 10
93.564812
 20
67.960958
 30
0.0
 11
94.309878
 21
64.337224
 31
0.0
  0
LINE
  5
202
100
AcDbEntity
  8
Layer_1
 62
3
100
AcDbLine
 10
94.309878
 20
64.337224
 30
0.0
 11
92.469789
 21
64.337224
 31
0.0
  0
LINE
  5
203
100
AcDbEntity
  8
Layer_1
 62
3
100
AcDbLine
 10
92.469789
 20
64.337224
 30
0.0
 11
92.469789
 21
64.314647
 31
0.0
  0
SPLINE
  5
204
100
AcDbEntity
  8
Layer_1
 62
3
100
AcDbSpline
 70
8
 71
3
 72
8
 73
4
 74
0
 40
0
 40
0
 40
0
 40
0
 40
1
 40
1
 40
1
 40
1
 10
92.469789
 20
64.314644
 30
0.0
 10
92.876189
 20
64.021135
 30
0.0
 10
93.207329
 20
63.727624
 30
0.0
 10
93.463212
 20
63.434113
 30
0.0
  0
SPLINE
  5
205
100
AcDbEntity
  8
Layer_1
 62
3
100
AcDbSpline
 70
8
 71
3
 72
8
 73
4
 74
0
 40
0
 40
0
 40
0
 40
0
 40
1
 40
1
 40
1
 40
1
 10
93.463212
 20
63.434113
 30
0.0
 10
93.719094
 20
63.133075
 30
0.0
 10
93.914767
 20
62.832037
 30
0.0
 10
94.050234
 20
62.531002
 30
0.0
  0
SPLINE
  5
206
100
AcDbEntity
  8
Layer_1
 62
3
100
AcDbSpline
 70
8
 71
3
 72
8
 73
4
 74
0
 40
0
 40
0
 40
0
 40
0
 40
1
 40
1
 40
1
 40
1
 10
94.050234
 20
62.531002
 30
0.0
 10
94.193225
 20
62.229964
 30
0.0
 10
94.287300
 20
61.928926
 30
0.0
 10
94.332456
 20
61.627891
 30
0.0
  0
SPLINE
  5
207
100
AcDbEntity
  8
Layer_1
 62
3
100
AcDbSpline
 70
8
 71
3
 72
8
 73
4
 74
0
 40
0
 40
0
 40
0
 40
0
 40
1
 40
1
 40
1
 40
1
 10
94.332456
 20
61.627891
 30
0.0
 10
94.385138
 20
61.319326
 30
0.0
 10
94.411478
 20
61.007002
 30
0.0
 10
94.411478
 20
60.690913
 30
0.0
  0
SPLINE
  5
208
100
AcDbEntity
  8
Layer_1
 62
3
100
AcDbSpline
 70
8
 71
3
 72
8
 73
4
 74
0
 40
0
 40
0
 40
0
 40
0
 40
1
 40
1
 40
1
 40
1
 10
94.411478
 20
60.690913
 30
0.0
 10
94.411478
 20
60.194202
 30
0.0
 10
94.336218
 20
59.727593
 30
0.0
 10
94.185700
 20
59.291091
 30
0.0
  0
SPLINE
  5
209
100
AcDbEntity
  8
Layer_1
 62
3
100
AcDbSpline
 70
8
 71
3
 72
8
 73
4
 74
0
 40
0
 40
0
 40
0
 40
0
 40
1
 40
1
 40
1
 40
1
 10
94.185700
 20
59.291091
 30
0.0
 10
94.035183
 20
58.854586
 30
0.0
 10
93.801878
 20
58.478291
 30
0.0
 10
93.485789
 20
58.162202
 30
0.0
  0
SPLINE
  5
20a
100
AcDbEntity
  8
Layer_1
 62
3
100
AcDbSpline
 70
8
 71
3
 72
8
 73
4
 74
0
 40
0
 40
0
 40
0
 40
0
 40
1
 40
1
 40
1
 40
1
 10
93.485789
 20
58.162202
 30
0.0
 10
93.169700
 20
57.838586
 30
0.0
 10
92.763300
 20
57.586469
 30
0.0
 10
92.266589
 20
57.405847
 30
0.0
  0
SPLINE
  5
20b
100
AcDbEntity
  8
Layer_1
 62
3
100
AcDbSpline
 70
8
 71
3
 72
8
 73
4
 74
0
 40
0
 40
0
 40
0
 40
0
 40
1
 40
1
 40
1
 40
1
 10
92.266589
 20
57.405847
 30
0.0
 10
91.769878
 20
57.217698
 30
0.0
 10
91.175329
 20
57.123624
 30
0.0
 10
90.482945
 20
57.123624
 30
0.0
  0
LINE
  5
20c
100
AcDbEntity
  8
Layer_1
 62
3
100
AcDbLine
 10
90.482945
 20
57.123624
 30
0.0
 11
84.488545
 21
57.123624
 31
0.0
  0
SPLINE
  5
20d
100
AcDbEntity
  8
Layer_1
 62
3
100
AcDbSpline
 70
8
 71
3
 72
8
 73
4
 74
0
 40
0
 40
0
 40
0
 40
0
 40
1
 40
1
 40
1
 40
1
 10
84.488545
 20
57.123624
 30
0.0
 10
84.300396
 20
57.123624
 30
0.0
 10
84.149878
 20
57.074707
 30
0.0
 10
84.036989
 20
56.976869
 30
0.0
  0
SPLINE
  5
20e
100
AcDbEntity
  8
Layer_1
 62
3
100
AcDbSpline
 70
8
 71
3
 72
8
 73
4
 74
0
 40
0
 40
0
 40
0
 40
0
 40
1
 40
1
 40
1
 40
1
 10
84.036989
 20
56.976869
 30
0.0
 10
83.924100
 20
56.871504
 30
0.0
 10
83.848843
 20
56.754853
 30
0.0
 10
83.811212
 20
56.626913
 30
0.0
  0
LINE
  5
20f
100
AcDbEntity
  8
Layer_1
 62
3
100
AcDbLine
 10
83.811212
 20
56.626913
 30
0.0
 11
83.506412
 21
55.509313
 31
0.0
  0
LINE
  5
210
100
AcDbEntity
  8
Layer_1
 62
3
100
AcDbLine
 10
83.506412
 20
55.509313
 30
0.0
 11
82.941967
 21
55.509313
 31
0.0
  0
LINE
  5
211
100
AcDbEntity
  8
Layer_1
 62
3
100
AcDbLine
 10
82.941967
 20
55.509313
 30
0.0
 11
82.941967
 21
60.792513
 31
0.0
  0
LINE
  5
212
100
AcDbEntity
  8
Layer_1
 62
3
100
AcDbLine
 10
82.941967
 20
60.792513
 30
0.0
 11
83.506412
 21
60.792513
 31
0.0
  0
LINE
  5
213
100
AcDbEntity
  8
Layer_1
 62
3
100
AcDbLine
 10
83.506412
 20
60.792513
 30
0.0
 11
83.811212
 21
59.562024
 31
0.0
  0
SPLINE
  5
214
100
AcDbEntity
  8
Layer_1
 62
3
100
AcDbSpline
 70
8
 71
3
 72
8
 73
4
 74
0
 40
0
 40
0
 40
0
 40
0
 40
1
 40
1
 40
1
 40
1
 10
83.811212
 20
59.562024
 30
0.0
 10
83.856367
 20
59.419031
 30
0.0
 10
83.931627
 20
59.302380
 30
0.0
 10
84.036989
 20
59.212069
 30
0.0
  0
SPLINE
  5
215
100
AcDbEntity
  8
Layer_1
 62
3
100
AcDbSpline
 70
8
 71
3
 72
8
 73
4
 74
0
 40
0
 40
0
 40
0
 40
0
 40
1
 40
1
 40
1
 40
1
 10
84.036989
 20
59.212069
 30
0.0
 10
84.149878
 20
59.121758
 30
0.0
 10
84.300396
 20
59.076602
 30
0.0
 10
84.488545
 20
59.076602
 30
0.0
  0
LINE
  5
216
100
AcDbEntity
  8
Layer_1
 62
3
100
AcDbLine
 10
84.488545
 20
59.076602
 30
0.0
 11
89.726589
 21
59.076602
 31
0.0
  0
SPLINE
  5
217
100
AcDbEntity
  8
Layer_1
 62
3
100
AcDbSpline
 70
8
 71
3
 72
8
 73
4
 74
0
 40
0
 40
0
 40
0
 40
0
 40
1
 40
1
 40
1
 40
1
 10
89.726589
 20
59.076602
 30
0.0
 10
90.238351
 20
59.076602
 30
0.0
 10
90.697434
 20
59.106707
 30
0.0
 10
91.103834
 20
59.166913
 30
0.0
  0
SPLINE
  5
218
100
AcDbEntity
  8
Layer_1
 62
3
100
AcDbSpline
 70
8
 71
3
 72
8
 73
4
 74
0
 40
0
 40
0
 40
0
 40
0
 40
1
 40
1
 40
1
 40
1
 10
91.103834
 20
59.166913
 30
0.0
 10
91.517761
 20
59.227120
 30
0.0
 10
91.867716
 20
59.347535
 30
0.0
 10
92.153700
 20
59.528158
 30
0.0
  0
SPLINE
  5
219
100
AcDbEntity
  8
Layer_1
 62
3
100
AcDbSpline
 70
8
 71
3
 72
8
 73
4
 74
0
 40
0
 40
0
 40
0
 40
0
 40
1
 40
1
 40
1
 40
1
 10
92.153700
 20
59.528158
 30
0.0
 10
92.447212
 20
59.701253
 30
0.0
 10
92.672989
 20
59.949609
 30
0.0
 10
92.831034
 20
60.273224
 30
0.0
  0
SPLINE
  5
21a
100
AcDbEntity
  8
Layer_1
 62
3
100
AcDbSpline
 70
8
 71
3
 72
8
 73
4
 74
0
 40
0
 40
0
 40
0
 40
0
 40
1
 40
1
 40
1
 40
1
 10
92.831034
 20
60.273224
 30
0.0
 10
92.989078
 20
60.589313
 30
0.0
 10
93.068100
 20
61.010764
 30
0.0
 10
93.068100
 20
61.537580
 30
0.0
  0
SPLINE
  5
21b
100
AcDbEntity
  8
Layer_1
 62
3
100
AcDbSpline
 70
8
 71
3
 72
8
 73
4
 74
0
 40
0
 40
0
 40
0
 40
0
 40
1
 40
1
 40
1
 40
1
 10
93.068100
 20
61.537580
 30
0.0
 10
93.068100
 20
61.770882
 30
0.0
 10
93.045523
 20
62.011713
 30
0.0
 10
93.000367
 20
62.260069
 30
0.0
  0
SPLINE
  5
21c
100
AcDbEntity
  8
Layer_1
 62
3
100
AcDbSpline
 70
8
 71
3
 72
8
 73
4
 74
0
 40
0
 40
0
 40
0
 40
0
 40
1
 40
1
 40
1
 40
1
 10
93.000367
 20
62.260069
 30
0.0
 10
92.955212
 20
62.508424
 30
0.0
 10
92.883716
 20
62.753015
 30
0.0
 10
92.785878
 20
62.993847
 30
0.0
  0
SPLINE
  5
21d
100
AcDbEntity
  8
Layer_1
 62
3
100
AcDbSpline
 70
8
 71
3
 72
8
 73
4
 74
0
 40
0
 40
0
 40
0
 40
0
 40
1
 40
1
 40
1
 40
1
 10
92.785878
 20
62.993847
 30
0.0
 10
92.695567
 20
63.234675
 30
0.0
 10
92.575151
 20
63.464215
 30
0.0
 10
92.424634
 20
63.682469
 30
0.0
  0
SPLINE
  5
21e
100
AcDbEntity
  8
Layer_1
 62
3
100
AcDbSpline
 70
8
 71
3
 72
8
 73
4
 74
0
 40
0
 40
0
 40
0
 40
0
 40
1
 40
1
 40
1
 40
1
 10
92.424634
 20
63.682469
 30
0.0
 10
92.274116
 20
63.900720
 30
0.0
 10
92.093494
 20
64.092631
 30
0.0
 10
91.882767
 20
64.258202
 30
0.0
  0
LINE
  5
21f
100
AcDbEntity
  8
Layer_1
 62
3
100
AcDbLine
 10
91.882767
 20
64.258202
 30
0.0
 11
84.443389
 21
64.258202
 31
0.0
  0
SPLINE
  5
220
100
AcDbEntity
  8
Layer_1
 62
3
100
AcDbSpline
 70
8
 71
3
 72
8
 73
4
 74
0
 40
0
 40
0
 40
0
 40
0
 40
1
 40
1
 40
1
 40
1
 10
84.443389
 20
64.258202
 30
0.0
 10
84.270294
 20
64.258202
 30
0.0
 10
84.131063
 20
64.213044
 30
0.0
 10
84.025700
 20
64.122735
 30
0.0
  0
SPLINE
  5
221
100
AcDbEntity
  8
Layer_1
 62
3
100
AcDbSpline
 70
8
 71
3
 72
8
 73
4
 74
0
 40
0
 40
0
 40
0
 40
0
 40
1
 40
1
 40
1
 40
1
 10
84.025700
 20
64.122735
 30
0.0
 10
83.920338
 20
64.024898
 30
0.0
 10
83.848843
 20
63.904482
 30
0.0
 10
83.811212
 20
63.761491
 30
0.0
  0
LINE
  5
222
100
AcDbEntity
  8
Layer_1
 62
3
100
AcDbLine
 10
83.811212
 20
63.761491
 30
0.0
 11
83.506412
 21
62.677758
 31
0.0
  0
LINE
  5
223
100
AcDbEntity
  8
Layer_1
 62
3
100
AcDbLine
 10
83.506412
 20
62.677758
 30
0.0
 11
82.941967
 21
62.677758
 31
0.0
  0
LINE
  5
224
100
AcDbEntity
  8
Layer_1
 62
3
100
AcDbLine
 10
82.941967
 20
62.677758
 30
0.0
 11
82.941967
 21
67.972247
 31
0.0
  0
LINE
  5
225
100
AcDbEntity
  8
Layer_1
 62
3
100
AcDbLine
 10
82.941967
 20
67.972247
 30
0.0
 11
83.506412
 21
67.972247
 31
0.0
  0
LINE
  5
226
100
AcDbEntity
  8
Layer_1
 62
3
100
AcDbLine
 10
83.506412
 20
67.972247
 30
0.0
 11
83.506412
 21
67.972247
 31
0.0
  0
LINE
  5
227
100
AcDbEntity
  8
Layer_1
 62
3
100
AcDbLine
 10
93.056812
 20
50.310512
 30
0.0
 11
93.056812
 21
52.105445
 31
0.0
  0
LINE
  5
228
100
AcDbEntity
  8
Layer_1
 62
3
100
AcDbLine
 10
93.056812
 20
52.105445
 30
0.0
 11
93.700278
 21
52.105445
 31
0.0
  0
SPLINE
  5
229
100
AcDbEntity
  8
Layer_1
 62
3
100
AcDbSpline
 70
8
 71
3
 72
8
 73
4
 74
0
 40
0
 40
0
 40
0
 40
0
 40
1
 40
1
 40
1
 40
1
 10
93.700278
 20
52.105445
 30
0.0
 10
93.768012
 20
51.811934
 30
0.0
 10
93.831983
 20
51.544763
 30
0.0
 10
93.892189
 20
51.303934
 30
0.0
  0
SPLINE
  5
22a
100
AcDbEntity
  8
Layer_1
 62
3
100
AcDbSpline
 70
8
 71
3
 72
8
 73
4
 74
0
 40
0
 40
0
 40
0
 40
0
 40
1
 40
1
 40
1
 40
1
 10
93.892189
 20
51.303934
 30
0.0
 10
93.959923
 20
51.063105
 30
0.0
 10
94.050234
 20
50.856143
 30
0.0
 10
94.163123
 20
50.683045
 30
0.0
  0
SPLINE
  5
22b
100
AcDbEntity
  8
Layer_1
 62
3
100
AcDbSpline
 70
8
 71
3
 72
8
 73
4
 74
0
 40
0
 40
0
 40
0
 40
0
 40
1
 40
1
 40
1
 40
1
 10
94.163123
 20
50.683045
 30
0.0
 10
94.276012
 20
50.509950
 30
0.0
 10
94.430294
 20
50.374483
 30
0.0
 10
94.625967
 20
50.276645
 30
0.0
  0
SPLINE
  5
22c
100
AcDbEntity
  8
Layer_1
 62
3
100
AcDbSpline
 70
8
 71
3
 72
8
 73
4
 74
0
 40
0
 40
0
 40
0
 40
0
 40
1
 40
1
 40
1
 40
1
 10
94.625967
 20
50.276645
 30
0.0
 10
94.829167
 20
50.178810
 30
0.0
 10
95.103863
 20
50.118604
 30
0.0
 10
95.450056
 20
50.096023
 30
0.0
  0
LINE
  5
22d
100
AcDbEntity
  8
Layer_1
 62
3
100
AcDbLine
 10
95.450056
 20
50.096023
 30
0.0
 11
96.883745
 21
50.005715
 31
0.0
  0
LINE
  5
22e
100
AcDbEntity
  8
Layer_1
 62
3
100
AcDbLine
 10
96.883745
 20
50.005715
 30
0.0
 11
97.222412
 21
48.357534
 31
0.0
  0
LINE
  5
22f
100
AcDbEntity
  8
Layer_1
 62
3
100
AcDbLine
 10
97.222412
 20
48.357534
 30
0.0
 11
94.027656
 21
48.357534
 31
0.0
  0
LINE
  5
230
100
AcDbEntity
  8
Layer_1
 62
3
100
AcDbLine
 10
94.027656
 20
48.357534
 30
0.0
 11
94.027656
 21
44.417712
 31
0.0
  0
LINE
  5
231
100
AcDbEntity
  8
Layer_1
 62
3
100
AcDbLine
 10
94.027656
 20
44.417712
 30
0.0
 11
93.056812
 21
44.699934
 31
0.0
  0
LINE
  5
232
100
AcDbEntity
  8
Layer_1
 62
3
100
AcDbLine
 10
93.056812
 20
44.699934
 30
0.0
 11
93.056812
 21
48.357534
 31
0.0
  0
LINE
  5
233
100
AcDbEntity
  8
Layer_1
 62
3
100
AcDbLine
 10
93.056812
 20
48.357534
 30
0.0
 11
85.323923
 21
48.357534
 31
0.0
  0
SPLINE
  5
234
100
AcDbEntity
  8
Layer_1
 62
3
100
AcDbSpline
 70
8
 71
3
 72
8
 73
4
 74
0
 40
0
 40
0
 40
0
 40
0
 40
1
 40
1
 40
1
 40
1
 10
85.323923
 20
48.357534
 30
0.0
 10
85.090618
 20
48.357534
 30
0.0
 10
84.891183
 20
48.282277
 30
0.0
 10
84.725612
 20
48.131756
 30
0.0
  0
SPLINE
  5
235
100
AcDbEntity
  8
Layer_1
 62
3
100
AcDbSpline
 70
8
 71
3
 72
8
 73
4
 74
0
 40
0
 40
0
 40
0
 40
0
 40
1
 40
1
 40
1
 40
1
 10
84.725612
 20
48.131756
 30
0.0
 10
84.567567
 20
47.973715
 30
0.0
 10
84.435863
 20
47.785566
 30
0.0
 10
84.330500
 20
47.567315
 30
0.0
  0
SPLINE
  5
236
100
AcDbEntity
  8
Layer_1
 62
3
100
AcDbSpline
 70
8
 71
3
 72
8
 73
4
 74
0
 40
0
 40
0
 40
0
 40
0
 40
1
 40
1
 40
1
 40
1
 10
84.330500
 20
47.567315
 30
0.0
 10
84.232663
 20
47.349061
 30
0.0
 10
84.157405
 20
47.119521
 30
0.0
 10
84.104723
 20
46.878692
 30
0.0
  0
SPLINE
  5
237
100
AcDbEntity
  8
Layer_1
 62
3
100
AcDbSpline
 70
8
 71
3
 72
8
 73
4
 74
0
 40
0
 40
0
 40
0
 40
0
 40
1
 40
1
 40
1
 40
1
 10
84.104723
 20
46.878692
 30
0.0
 10
84.059567
 20
46.637861
 30
0.0
 10
84.036989
 20
46.427134
 30
0.0
 10
84.036989
 20
46.246512
 30
0.0
  0
SPLINE
  5
238
100
AcDbEntity
  8
Layer_1
 62
3
100
AcDbSpline
 70
8
 71
3
 72
8
 73
4
 74
0
 40
0
 40
0
 40
0
 40
0
 40
1
 40
1
 40
1
 40
1
 10
84.036989
 20
46.246512
 30
0.0
 10
84.036989
 20
46.126099
 30
0.0
 10
84.048278
 20
45.990632
 30
0.0
 10
84.070856
 20
45.840115
 30
0.0
  0
SPLINE
  5
239
100
AcDbEntity
  8
Layer_1
 62
3
100
AcDbSpline
 70
8
 71
3
 72
8
 73
4
 74
0
 40
0
 40
0
 40
0
 40
0
 40
1
 40
1
 40
1
 40
1
 10
84.070856
 20
45.840115
 30
0.0
 10
84.100961
 20
45.682070
 30
0.0
 10
84.131063
 20
45.531550
 30
0.0
 10
84.161167
 20
45.388559
 30
0.0
  0
SPLINE
  5
23a
100
AcDbEntity
  8
Layer_1
 62
3
100
AcDbSpline
 70
8
 71
3
 72
8
 73
4
 74
0
 40
0
 40
0
 40
0
 40
0
 40
1
 40
1
 40
1
 40
1
 10
84.161167
 20
45.388559
 30
0.0
 10
84.198796
 20
45.238039
 30
0.0
 10
84.236425
 20
45.102572
 30
0.0
 10
84.274056
 20
44.982159
 30
0.0
  0
SPLINE
  5
23b
100
AcDbEntity
  8
Layer_1
 62
3
100
AcDbSpline
 70
8
 71
3
 72
8
 73
4
 74
0
 40
0
 40
0
 40
0
 40
0
 40
1
 40
1
 40
1
 40
1
 10
84.274056
 20
44.982159
 30
0.0
 10
84.319212
 20
44.861743
 30
0.0
 10
84.360605
 20
44.771432
 30
0.0
 10
84.398234
 20
44.711226
 30
0.0
  0
LINE
  5
23c
100
AcDbEntity
  8
Layer_1
 62
3
100
AcDbLine
 10
84.398234
 20
44.711226
 30
0.0
 11
84.398234
 21
44.553181
 31
0.0
  0
LINE
  5
23d
100
AcDbEntity
  8
Layer_1
 62
3
100
AcDbLine
 10
84.398234
 20
44.553181
 30
0.0
 11
83.743478
 21
44.553181
 31
0.0
  0
SPLINE
  5
23e
100
AcDbEntity
  8
Layer_1
 62
3
100
AcDbSpline
 70
8
 71
3
 72
8
 73
4
 74
0
 40
0
 40
0
 40
0
 40
0
 40
1
 40
1
 40
1
 40
1
 10
83.743478
 20
44.553181
 30
0.0
 10
83.675745
 20
44.658543
 30
0.0
 10
83.585434
 20
44.809061
 30
0.0
 10
83.472545
 20
45.004734
 30
0.0
  0
SPLINE
  5
23f
100
AcDbEntity
  8
Layer_1
 62
3
100
AcDbSpline
 70
8
 71
3
 72
8
 73
4
 74
0
 40
0
 40
0
 40
0
 40
0
 40
1
 40
1
 40
1
 40
1
 10
83.472545
 20
45.004734
 30
0.0
 10
83.359656
 20
45.192883
 30
0.0
 10
83.246767
 20
45.414899
 30
0.0
 10
83.133878
 20
45.670781
 30
0.0
  0
SPLINE
  5
240
100
AcDbEntity
  8
Layer_1
 62
3
100
AcDbSpline
 70
8
 71
3
 72
8
 73
4
 74
0
 40
0
 40
0
 40
0
 40
0
 40
1
 40
1
 40
1
 40
1
 10
83.133878
 20
45.670781
 30
0.0
 10
83.028516
 20
45.926661
 30
0.0
 10
82.938205
 20
46.208883
 30
0.0
 10
82.862945
 20
46.517445
 30
0.0
  0
SPLINE
  5
241
100
AcDbEntity
  8
Layer_1
 62
3
100
AcDbSpline
 70
8
 71
3
 72
8
 73
4
 74
0
 40
0
 40
0
 40
0
 40
0
 40
1
 40
1
 40
1
 40
1
 10
82.862945
 20
46.517445
 30
0.0
 10
82.780161
 20
46.818483
 30
0.0
 10
82.738767
 20
47.134572
 30
0.0
 10
82.738767
 20
47.465715
 30
0.0
  0
SPLINE
  5
242
100
AcDbEntity
  8
Layer_1
 62
3
100
AcDbSpline
 70
8
 71
3
 72
8
 73
4
 74
0
 40
0
 40
0
 40
0
 40
0
 40
1
 40
1
 40
1
 40
1
 10
82.738767
 20
47.465715
 30
0.0
 10
82.738767
 20
47.872112
 30
0.0
 10
82.791450
 20
48.248410
 30
0.0
 10
82.896812
 20
48.594604
 30
0.0
  0
SPLINE
  5
243
100
AcDbEntity
  8
Layer_1
 62
3
100
AcDbSpline
 70
8
 71
3
 72
8
 73
4
 74
0
 40
0
 40
0
 40
0
 40
0
 40
1
 40
1
 40
1
 40
1
 10
82.896812
 20
48.594604
 30
0.0
 10
82.994650
 20
48.940794
 30
0.0
 10
83.133878
 20
49.241832
 30
0.0
 10
83.314500
 20
49.497712
 30
0.0
  0
SPLINE
  5
244
100
AcDbEntity
  8
Layer_1
 62
3
100
AcDbSpline
 70
8
 71
3
 72
8
 73
4
 74
0
 40
0
 40
0
 40
0
 40
0
 40
1
 40
1
 40
1
 40
1
 10
83.314500
 20
49.497712
 30
0.0
 10
83.502650
 20
49.746067
 30
0.0
 10
83.735954
 20
49.945505
 30
0.0
 10
84.014412
 20
50.096023
 30
0.0
  0
SPLINE
  5
245
100
AcDbEntity
  8
Layer_1
 62
3
100
AcDbSpline
 70
8
 71
3
 72
8
 73
4
 74
0
 40
0
 40
0
 40
0
 40
0
 40
1
 40
1
 40
1
 40
1
 10
84.014412
 20
50.096023
 30
0.0
 10
84.300396
 20
50.239016
 30
0.0
 10
84.624012
 20
50.310512
 30
0.0
 10
84.985256
 20
50.310512
 30
0.0
  0
LINE
  5
246
100
AcDbEntity
  8
Layer_1
 62
3
100
AcDbLine
 10
84.985256
 20
50.310512
 30
0.0
 11
93.056812
 21
50.310512
 31
0.0
  0
LINE
  5
247
100
AcDbEntity
  8
Layer_1
 62
3
100
AcDbLine
 10
93.056812
 20
50.310512
 30
0.0
 11
93.056812
 21
50.310512
 31
0.0
  0
LINE
  5
248
100
AcDbEntity
  8
Layer_1
 62
3
100
AcDbLine
 10
83.506412
 20
41.015972
 30
0.0
 11
83.811212
 21
39.740327
 31
0.0
  0
SPLINE
  5
249
100
AcDbEntity
  8
Layer_1
 62
3
100
AcDbSpline
 70
8
 71
3
 72
8
 73
4
 74
0
 40
0
 40
0
 40
0
 40
0
 40
1
 40
1
 40
1
 40
1
 10
83.811212
 20
39.740327
 30
0.0
 10
83.848843
 20
39.589810
 30
0.0
 10
83.920338
 20
39.469394
 30
0.0
 10
84.025700
 20
39.379083
 30
0.0
  0
SPLINE
  5
24a
100
AcDbEntity
  8
Layer_1
 62
3
100
AcDbSpline
 70
8
 71
3
 72
8
 73
4
 74
0
 40
0
 40
0
 40
0
 40
0
 40
1
 40
1
 40
1
 40
1
 10
84.025700
 20
39.379083
 30
0.0
 10
84.138589
 20
39.281245
 30
0.0
 10
84.277818
 20
39.232327
 30
0.0
 10
84.443389
 20
39.232327
 30
0.0
  0
LINE
  5
24b
100
AcDbEntity
  8
Layer_1
 62
3
100
AcDbLine
 10
84.443389
 20
39.232327
 30
0.0
 11
91.939212
 21
39.232327
 31
0.0
  0
SPLINE
  5
24c
100
AcDbEntity
  8
Layer_1
 62
3
100
AcDbSpline
 70
8
 71
3
 72
8
 73
4
 74
0
 40
0
 40
0
 40
0
 40
0
 40
1
 40
1
 40
1
 40
1
 10
91.939212
 20
39.232327
 30
0.0
 10
92.134885
 20
39.232327
 30
0.0
 10
92.300456
 20
39.288772
 30
0.0
 10
92.435923
 20
39.401661
 30
0.0
  0
SPLINE
  5
24d
100
AcDbEntity
  8
Layer_1
 62
3
100
AcDbSpline
 70
8
 71
3
 72
8
 73
4
 74
0
 40
0
 40
0
 40
0
 40
0
 40
1
 40
1
 40
1
 40
1
 10
92.435923
 20
39.401661
 30
0.0
 10
92.571389
 20
39.507023
 30
0.0
 10
92.680516
 20
39.676356
 30
0.0
 10
92.763300
 20
39.909661
 30
0.0
  0
LINE
  5
24e
100
AcDbEntity
  8
Layer_1
 62
3
100
AcDbLine
 10
92.763300
 20
39.909661
 30
0.0
 11
93.169700
 21
41.004683
 31
0.0
  0
LINE
  5
24f
100
AcDbEntity
  8
Layer_1
 62
3
100
AcDbLine
 10
93.169700
 20
41.004683
 30
0.0
 11
93.564812
 21
41.004683
 31
0.0
  0
LINE
  5
250
100
AcDbEntity
  8
Layer_1
 62
3
100
AcDbLine
 10
93.564812
 20
41.004683
 30
0.0
 11
94.309878
 21
37.414819
 31
0.0
  0
LINE
  5
251
100
AcDbEntity
  8
Layer_1
 62
3
100
AcDbLine
 10
94.309878
 20
37.414819
 30
0.0
 11
91.815034
 21
37.414819
 31
0.0
  0
LINE
  5
252
100
AcDbEntity
  8
Layer_1
 62
3
100
AcDbLine
 10
91.815034
 20
37.414819
 30
0.0
 11
91.815034
 21
37.392241
 31
0.0
  0
SPLINE
  5
253
100
AcDbEntity
  8
Layer_1
 62
3
100
AcDbSpline
 70
8
 71
3
 72
8
 73
4
 74
0
 40
0
 40
0
 40
0
 40
0
 40
1
 40
1
 40
1
 40
1
 10
91.815034
 20
37.392241
 30
0.0
 10
92.146174
 20
37.181514
 30
0.0
 10
92.466025
 20
36.959501
 30
0.0
 10
92.774589
 20
36.726197
 30
0.0
  0
SPLINE
  5
254
100
AcDbEntity
  8
Layer_1
 62
3
100
AcDbSpline
 70
8
 71
3
 72
8
 73
4
 74
0
 40
0
 40
0
 40
0
 40
0
 40
1
 40
1
 40
1
 40
1
 10
92.774589
 20
36.726197
 30
0.0
 10
93.083151
 20
36.492892
 30
0.0
 10
93.357850
 20
36.237012
 30
0.0
 10
93.598678
 20
35.958552
 30
0.0
  0
SPLINE
  5
255
100
AcDbEntity
  8
Layer_1
 62
3
100
AcDbSpline
 70
8
 71
3
 72
8
 73
4
 74
0
 40
0
 40
0
 40
0
 40
0
 40
1
 40
1
 40
1
 40
1
 10
93.598678
 20
35.958552
 30
0.0
 10
93.839507
 20
35.672565
 30
0.0
 10
94.035183
 20
35.367765
 30
0.0
 10
94.185700
 20
35.044152
 30
0.0
  0
SPLINE
  5
256
100
AcDbEntity
  8
Layer_1
 62
3
100
AcDbSpline
 70
8
 71
3
 72
8
 73
4
 74
0
 40
0
 40
0
 40
0
 40
0
 40
1
 40
1
 40
1
 40
1
 10
94.185700
 20
35.044152
 30
0.0
 10
94.336218
 20
34.713012
 30
0.0
 10
94.411478
 20
34.348003
 30
0.0
 10
94.411478
 20
33.949130
 30
0.0
  0
SPLINE
  5
257
100
AcDbEntity
  8
Layer_1
 62
3
100
AcDbSpline
 70
8
 71
3
 72
8
 73
4
 74
0
 40
0
 40
0
 40
0
 40
0
 40
1
 40
1
 40
1
 40
1
 10
94.411478
 20
33.949130
 30
0.0
 10
94.411478
 20
33.745930
 30
0.0
 10
94.400189
 20
33.565308
 30
0.0
 10
94.377612
 20
33.407263
 30
0.0
  0
SPLINE
  5
258
100
AcDbEntity
  8
Layer_1
 62
3
100
AcDbSpline
 70
8
 71
3
 72
8
 73
4
 74
0
 40
0
 40
0
 40
0
 40
0
 40
1
 40
1
 40
1
 40
1
 10
94.377612
 20
33.407263
 30
0.0
 10
94.362569
 20
33.249219
 30
0.0
 10
94.336218
 20
33.106225
 30
0.0
 10
94.298589
 20
32.978286
 30
0.0
  0
SPLINE
  5
259
100
AcDbEntity
  8
Layer_1
 62
3
100
AcDbSpline
 70
8
 71
3
 72
8
 73
4
 74
0
 40
0
 40
0
 40
0
 40
0
 40
1
 40
1
 40
1
 40
1
 10
94.298589
 20
32.978286
 30
0.0
 10
94.268485
 20
32.842819
 30
0.0
 10
94.227094
 20
32.718641
 30
0.0
 10
94.174412
 20
32.605752
 30
0.0
  0
SPLINE
  5
25a
100
AcDbEntity
  8
Layer_1
 62
3
100
AcDbSpline
 70
8
 71
3
 72
8
 73
4
 74
0
 40
0
 40
0
 40
0
 40
0
 40
1
 40
1
 40
1
 40
1
 10
94.174412
 20
32.605752
 30
0.0
 10
94.129256
 20
32.485337
 30
0.0
 10
94.076574
 20
32.361159
 30
0.0
 10
94.016367
 20
32.233219
 30
0.0
  0
LINE
  5
25b
100
AcDbEntity
  8
Layer_1
 62
3
100
AcDbLine
 10
94.016367
 20
32.233219
 30
0.0
 11
91.340900
 21
32.233219
 31
0.0
  0
LINE
  5
25c
100
AcDbEntity
  8
Layer_1
 62
3
100
AcDbLine
 10
91.340900
 20
32.233219
 30
0.0
 11
91.340900
 21
32.944419
 31
0.0
  0
LINE
  5
25d
100
AcDbEntity
  8
Layer_1
 62
3
100
AcDbLine
 10
91.340900
 20
32.944419
 30
0.0
 11
92.277878
 21
33.305663
 31
0.0
  0
SPLINE
  5
25e
100
AcDbEntity
  8
Layer_1
 62
3
100
AcDbSpline
 70
8
 71
3
 72
8
 73
4
 74
0
 40
0
 40
0
 40
0
 40
0
 40
1
 40
1
 40
1
 40
1
 10
92.277878
 20
33.305663
 30
0.0
 10
92.353138
 20
33.335765
 30
0.0
 10
92.420872
 20
33.399737
 30
0.0
 10
92.481078
 20
33.497574
 30
0.0
  0
SPLINE
  5
25f
100
AcDbEntity
  8
Layer_1
 62
3
100
AcDbSpline
 70
8
 71
3
 72
8
 73
4
 74
0
 40
0
 40
0
 40
0
 40
0
 40
1
 40
1
 40
1
 40
1
 10
92.481078
 20
33.497574
 30
0.0
 10
92.541285
 20
33.587886
 30
0.0
 10
92.590205
 20
33.697012
 30
0.0
 10
92.627834
 20
33.824952
 30
0.0
  0
SPLINE
  5
260
100
AcDbEntity
  8
Layer_1
 62
3
100
AcDbSpline
 70
8
 71
3
 72
8
 73
4
 74
0
 40
0
 40
0
 40
0
 40
0
 40
1
 40
1
 40
1
 40
1
 10
92.627834
 20
33.824952
 30
0.0
 10
92.665463
 20
33.945365
 30
0.0
 10
92.695567
 20
34.073308
 30
0.0
 10
92.718145
 20
34.208774
 30
0.0
  0
SPLINE
  5
261
100
AcDbEntity
  8
Layer_1
 62
3
100
AcDbSpline
 70
8
 71
3
 72
8
 73
4
 74
0
 40
0
 40
0
 40
0
 40
0
 40
1
 40
1
 40
1
 40
1
 10
92.718145
 20
34.208774
 30
0.0
 10
92.740723
 20
34.344241
 30
0.0
 10
92.752012
 20
34.472181
 30
0.0
 10
92.752012
 20
34.592597
 30
0.0
  0
SPLINE
  5
262
100
AcDbEntity
  8
Layer_1
 62
3
100
AcDbSpline
 70
8
 71
3
 72
8
 73
4
 74
0
 40
0
 40
0
 40
0
 40
0
 40
1
 40
1
 40
1
 40
1
 10
92.752012
 20
34.592597
 30
0.0
 10
92.752012
 20
34.871054
 30
0.0
 10
92.714383
 20
35.134463
 30
0.0
 10
92.639123
 20
35.382819
 30
0.0
  0
SPLINE
  5
263
100
AcDbEntity
  8
Layer_1
 62
3
100
AcDbSpline
 70
8
 71
3
 72
8
 73
4
 74
0
 40
0
 40
0
 40
0
 40
0
 40
1
 40
1
 40
1
 40
1
 10
92.639123
 20
35.382819
 30
0.0
 10
92.563863
 20
35.623648
 30
0.0
 10
92.454738
 20
35.856952
 30
0.0
 10
92.311745
 20
36.082730
 30
0.0
  0
SPLINE
  5
264
100
AcDbEntity
  8
Layer_1
 62
3
100
AcDbSpline
 70
8
 71
3
 72
8
 73
4
 74
0
 40
0
 40
0
 40
0
 40
0
 40
1
 40
1
 40
1
 40
1
 10
92.311745
 20
36.082730
 30
0.0
 10
92.176278
 20
36.300981
 30
0.0
 10
92.006945
 20
36.507943
 30
0.0
 10
91.803745
 20
36.703619
 30
0.0
  0
SPLINE
  5
265
100
AcDbEntity
  8
Layer_1
 62
3
100
AcDbSpline
 70
8
 71
3
 72
8
 73
4
 74
0
 40
0
 40
0
 40
0
 40
0
 40
1
 40
1
 40
1
 40
1
 10
91.803745
 20
36.703619
 30
0.0
 10
91.608072
 20
36.899292
 30
0.0
 10
91.386056
 20
37.091203
 30
0.0
 10
91.137700
 20
37.279352
 30
0.0
  0
LINE
  5
266
100
AcDbEntity
  8
Layer_1
 62
3
100
AcDbLine
 10
91.137700
 20
37.279352
 30
0.0
 11
84.443389
 21
37.279352
 31
0.0
  0
SPLINE
  5
267
100
AcDbEntity
  8
Layer_1
 62
3
100
AcDbSpline
 70
8
 71
3
 72
8
 73
4
 74
0
 40
0
 40
0
 40
0
 40
0
 40
1
 40
1
 40
1
 40
1
 10
84.443389
 20
37.279352
 30
0.0
 10
84.270294
 20
37.279352
 30
0.0
 10
84.131063
 20
37.234197
 30
0.0
 10
84.025700
 20
37.143886
 30
0.0
  0
SPLINE
  5
268
100
AcDbEntity
  8
Layer_1
 62
3
100
AcDbSpline
 70
8
 71
3
 72
8
 73
4
 74
0
 40
0
 40
0
 40
0
 40
0
 40
1
 40
1
 40
1
 40
1
 10
84.025700
 20
37.143886
 30
0.0
 10
83.920338
 20
37.053574
 30
0.0
 10
83.848843
 20
36.933159
 30
0.0
 10
83.811212
 20
36.782641
 30
0.0
  0
LINE
  5
269
100
AcDbEntity
  8
Layer_1
 62
3
100
AcDbLine
 10
83.811212
 20
36.782641
 30
0.0
 11
83.506412
 21
35.269930
 31
0.0
  0
LINE
  5
26a
100
AcDbEntity
  8
Layer_1
 62
3
100
AcDbLine
 10
83.506412
 20
35.269930
 30
0.0
 11
82.941967
 21
35.269930
 31
0.0
  0
LINE
  5
26b
100
AcDbEntity
  8
Layer_1
 62
3
100
AcDbLine
 10
82.941967
 20
35.269930
 30
0.0
 11
82.941967
 21
41.015972
 31
0.0
  0
LINE
  5
26c
100
AcDbEntity
  8
Layer_1
 62
3
100
AcDbLine
 10
82.941967
 20
41.015972
 30
0.0
 11
83.506412
 21
41.015972
 31
0.0
  0
LINE
  5
26d
100
AcDbEntity
  8
Layer_1
 62
3
100
AcDbLine
 10
83.506412
 20
41.015972
 30
0.0
 11
83.506412
 21
41.015972
 31
0.0
  0
LINE
  5
26e
100
AcDbEntity
  8
Layer_1
 62
1
100
AcDbLine
 10
230.052572
 20
30.941085
 30
0.0
 11
230.052572
 21
48.841083
 31
0.0
  0
LINE
  5
26f
100
AcDbEntity
  8
Layer_1
 62
1
100
AcDbLine
 10
230.052572
 20
48.841083
 30
0.0
 11
222.152574
 21
48.841083
 31
0.0
  0
LINE
  5
270
100
AcDbEntity
  8
Layer_1
 62
1
100
AcDbLine
 10
222.152574
 20
48.841083
 30
0.0
 11
222.152574
 21
30.941085
 31
0.0
  0
LINE
  5
271
100
AcDbEntity
  8
Layer_1
 62
1
100
AcDbLine
 10
222.152574
 20
30.941085
 30
0.0
 11
230.052572
 21
30.941085
 31
0.0
  0
SPLINE
  5
272
100
AcDbEntity
  8
Layer_1
 62
1
100
AcDbSpline
 70
8
 71
3
 72
8
 73
4
 74
0
 40
0
 40
0
 40
0
 40
0
 40
1
 40
1
 40
1
 40
1
 10
226.102568
 20
27.991112
 30
0.0
 10
225.691483
 20
27.991115
 30
0.0
 10
225.297232
 20
27.817274
 30
0.0
 10
225.006552
 20
27.507840
 30
0.0
  0
SPLINE
  5
273
100
AcDbEntity
  8
Layer_1
 62
1
100
AcDbSpline
 70
8
 71
3
 72
8
 73
4
 74
0
 40
0
 40
0
 40
0
 40
0
 40
1
 40
1
 40
1
 40
1
 10
225.006552
 20
27.507840
 30
0.0
 10
224.715869
 20
27.198403
 30
0.0
 10
224.552566
 20
26.778719
 30
0.0
 10
224.552566
 20
26.341111
 30
0.0
  0
SPLINE
  5
274
100
AcDbEntity
  8
Layer_1
 62
1
100
AcDbSpline
 70
8
 71
3
 72
8
 73
4
 74
0
 40
0
 40
0
 40
0
 40
0
 40
1
 40
1
 40
1
 40
1
 10
224.552566
 20
26.341111
 30
0.0
 10
224.552566
 20
25.429844
 30
0.0
 10
225.246525
 20
24.691113
 30
0.0
 10
226.102568
 20
24.691113
 30
0.0
  0
SPLINE
  5
275
100
AcDbEntity
  8
Layer_1
 62
1
100
AcDbSpline
 70
8
 71
3
 72
8
 73
4
 74
0
 40
0
 40
0
 40
0
 40
0
 40
1
 40
1
 40
1
 40
1
 10
226.102568
 20
24.691113
 30
0.0
 10
226.958607
 20
24.691116
 30
0.0
 10
227.652566
 20
25.429844
 30
0.0
 10
227.652566
 20
26.341111
 30
0.0
  0
SPLINE
  5
276
100
AcDbEntity
  8
Layer_1
 62
1
100
AcDbSpline
 70
8
 71
3
 72
8
 73
4
 74
0
 40
0
 40
0
 40
0
 40
0
 40
1
 40
1
 40
1
 40
1
 10
227.652566
 20
26.341111
 30
0.0
 10
227.652566
 20
27.252381
 30
0.0
 10
226.958610
 20
27.991112
 30
0.0
 10
226.102568
 20
27.991112
 30
0.0
  0
LINE
  5
277
100
AcDbEntity
  8
Layer_1
 62
1
100
AcDbLine
 10
226.102568
 20
27.991112
 30
0.0
 11
226.102568
 21
27.991112
 31
0.0
  0
SPLINE
  5
278
100
AcDbEntity
  8
Layer_1
 62
1
100
AcDbSpline
 70
8
 71
3
 72
8
 73
4
 74
0
 40
0
 40
0
 40
0
 40
0
 40
1
 40
1
 40
1
 40
1
 10
226.102576
 20
55.091052
 30
0.0
 10
225.704750
 20
55.091052
 30
0.0
 10
225.323219
 20
54.917212
 30
0.0
 10
225.041914
 20
54.607777
 30
0.0
  0
SPLINE
  5
279
100
AcDbEntity
  8
Layer_1
 62
1
100
AcDbSpline
 70
8
 71
3
 72
8
 73
4
 74
0
 40
0
 40
0
 40
0
 40
0
 40
1
 40
1
 40
1
 40
1
 10
225.041914
 20
54.607777
 30
0.0
 10
224.760609
 20
54.298343
 30
0.0
 10
224.602573
 20
53.878659
 30
0.0
 10
224.602573
 20
53.441054
 30
0.0
  0
SPLINE
  5
27a
100
AcDbEntity
  8
Layer_1
 62
1
100
AcDbSpline
 70
8
 71
3
 72
8
 73
4
 74
0
 40
0
 40
0
 40
0
 40
0
 40
1
 40
1
 40
1
 40
1
 10
224.602573
 20
53.441054
 30
0.0
 10
224.602573
 20
53.003446
 30
0.0
 10
224.760609
 20
52.583759
 30
0.0
 10
225.041914
 20
52.274325
 30
0.0
  0
SPLINE
  5
27b
100
AcDbEntity
  8
Layer_1
 62
1
100
AcDbSpline
 70
8
 71
3
 72
8
 73
4
 74
0
 40
0
 40
0
 40
0
 40
0
 40
1
 40
1
 40
1
 40
1
 10
225.041914
 20
52.274325
 30
0.0
 10
225.323219
 20
51.964888
 30
0.0
 10
225.704750
 20
51.791050
 30
0.0
 10
226.102576
 20
51.791053
 30
0.0
  0
SPLINE
  5
27c
100
AcDbEntity
  8
Layer_1
 62
1
100
AcDbSpline
 70
8
 71
3
 72
8
 73
4
 74
0
 40
0
 40
0
 40
0
 40
0
 40
1
 40
1
 40
1
 40
1
 10
226.102576
 20
51.791053
 30
0.0
 10
226.500399
 20
51.791053
 30
0.0
 10
226.881933
 20
51.964890
 30
0.0
 10
227.163238
 20
52.274325
 30
0.0
  0
SPLINE
  5
27d
100
AcDbEntity
  8
Layer_1
 62
1
100
AcDbSpline
 70
8
 71
3
 72
8
 73
4
 74
0
 40
0
 40
0
 40
0
 40
0
 40
1
 40
1
 40
1
 40
1
 10
227.163238
 20
52.274325
 30
0.0
 10
227.444540
 20
52.583761
 30
0.0
 10
227.602576
 20
53.003446
 30
0.0
 10
227.602576
 20
53.441054
 30
0.0
  0
SPLINE
  5
27e
100
AcDbEntity
  8
Layer_1
 62
1
100
AcDbSpline
 70
8
 71
3
 72
8
 73
4
 74
0
 40
0
 40
0
 40
0
 40
0
 40
1
 40
1
 40
1
 40
1
 10
227.602576
 20
53.441054
 30
0.0
 10
227.602576
 20
54.352321
 30
0.0
 10
226.931003
 20
55.091052
 30
0.0
 10
226.102576
 20
55.091052
 30
0.0
  0
LINE
  5
27f
100
AcDbEntity
  8
Layer_1
 62
1
100
AcDbLine
 10
226.102576
 20
55.091052
 30
0.0
 11
226.102576
 21
55.091052
 31
0.0
  0
SPLINE
  5
280
100
AcDbEntity
  8
Layer_1
 62
1
100
AcDbSpline
 70
8
 71
3
 72
8
 73
4
 74
0
 40
0
 40
0
 40
0
 40
0
 40
1
 40
1
 40
1
 40
1
 10
209.318835
 20
39.984405
 30
0.0
 10
209.317706
 20
37.960753
 30
0.0
 10
208.513911
 20
36.303956
 30
0.0
 10
207.502582
 20
36.240552
 30
0.0
  0
LINE
  5
281
100
AcDbEntity
  8
Layer_1
 62
1
100
AcDbLine
 10
207.502582
 20
36.240552
 30
0.0
 11
207.502582
 21
32.034225
 31
0.0
  0
LINE
  5
282
100
AcDbEntity
  8
Layer_1
 62
1
100
AcDbLine
 10
207.502582
 20
32.034225
 30
0.0
 11
193.602585
 21
32.034225
 31
0.0
  0
LINE
  5
283
100
AcDbEntity
  8
Layer_1
 62
1
100
AcDbLine
 10
193.602585
 20
32.034225
 30
0.0
 11
193.602585
 21
47.934579
 31
0.0
  0
LINE
  5
284
100
AcDbEntity
  8
Layer_1
 62
1
100
AcDbLine
 10
193.602585
 20
47.934579
 30
0.0
 11
207.502582
 21
47.934579
 31
0.0
  0
LINE
  5
285
100
AcDbEntity
  8
Layer_1
 62
1
100
AcDbLine
 10
207.502582
 20
47.934579
 30
0.0
 11
207.502582
 21
43.729914
 31
0.0
  0
SPLINE
  5
286
100
AcDbEntity
  8
Layer_1
 62
1
100
AcDbSpline
 70
8
 71
3
 72
8
 73
4
 74
0
 40
0
 40
0
 40
0
 40
0
 40
1
 40
1
 40
1
 40
1
 10
207.502582
 20
43.729914
 30
0.0
 10
208.514233
 20
43.666488
 30
0.0
 10
209.318121
 20
42.008697
 30
0.0
 10
209.318835
 20
39.984405
 30
0.0
  0
LINE
  5
287
100
AcDbEntity
  8
Layer_1
 62
1
100
AcDbLine
 10
209.318835
 20
39.984405
 30
0.0
 11
209.318835
 21
39.984405
 31
0.0
  0
SPLINE
  5
288
100
AcDbEntity
  8
Layer_1
 62
1
100
AcDbSpline
 70
8
 71
3
 72
8
 73
4
 74
0
 40
0
 40
0
 40
0
 40
0
 40
1
 40
1
 40
1
 40
1
 10
200.652493
 20
28.984399
 30
0.0
 10
200.214886
 20
28.984399
 30
0.0
 10
199.795201
 20
28.810561
 30
0.0
 10
199.485766
 20
28.501127
 30
0.0
  0
SPLINE
  5
289
100
AcDbEntity
  8
Layer_1
 62
1
100
AcDbSpline
 70
8
 71
3
 72
8
 73
4
 74
0
 40
0
 40
0
 40
0
 40
0
 40
1
 40
1
 40
1
 40
1
 10
199.485766
 20
28.501127
 30
0.0
 10
199.176331
 20
28.191690
 30
0.0
 10
199.002492
 20
27.772006
 30
0.0
 10
199.002492
 20
27.334398
 30
0.0
  0
SPLINE
  5
28a
100
AcDbEntity
  8
Layer_1
 62
1
100
AcDbSpline
 70
8
 71
3
 72
8
 73
4
 74
0
 40
0
 40
0
 40
0
 40
0
 40
1
 40
1
 40
1
 40
1
 10
199.002492
 20
27.334398
 30
0.0
 10
199.002492
 20
26.896792
 30
0.0
 10
199.176331
 20
26.477105
 30
0.0
 10
199.485766
 20
26.167671
 30
0.0
  0
SPLINE
  5
28b
100
AcDbEntity
  8
Layer_1
 62
1
100
AcDbSpline
 70
8
 71
3
 72
8
 73
4
 74
0
 40
0
 40
0
 40
0
 40
0
 40
1
 40
1
 40
1
 40
1
 10
199.485766
 20
26.167671
 30
0.0
 10
199.795201
 20
25.858237
 30
0.0
 10
200.214886
 20
25.684397
 30
0.0
 10
200.652493
 20
25.684397
 30
0.0
  0
SPLINE
  5
28c
100
AcDbEntity
  8
Layer_1
 62
1
100
AcDbSpline
 70
8
 71
3
 72
8
 73
4
 74
0
 40
0
 40
0
 40
0
 40
0
 40
1
 40
1
 40
1
 40
1
 10
200.652493
 20
25.684397
 30
0.0
 10
201.563763
 20
25.684399
 30
0.0
 10
202.302492
 20
26.423130
 30
0.0
 10
202.302491
 20
27.334398
 30
0.0
  0
SPLINE
  5
28d
100
AcDbEntity
  8
Layer_1
 62
1
100
AcDbSpline
 70
8
 71
3
 72
8
 73
4
 74
0
 40
0
 40
0
 40
0
 40
0
 40
1
 40
1
 40
1
 40
1
 10
202.302491
 20
27.334398
 30
0.0
 10
202.302492
 20
28.245668
 30
0.0
 10
201.563763
 20
28.984399
 30
0.0
 10
200.652493
 20
28.984399
 30
0.0
  0
LINE
  5
28e
100
AcDbEntity
  8
Layer_1
 62
1
100
AcDbLine
 10
200.652493
 20
28.984399
 30
0.0
 11
200.652493
 21
28.984399
 31
0.0
  0
SPLINE
  5
28f
100
AcDbEntity
  8
Layer_1
 62
1
100
AcDbSpline
 70
8
 71
3
 72
8
 73
4
 74
0
 40
0
 40
0
 40
0
 40
0
 40
1
 40
1
 40
1
 40
1
 10
200.652482
 20
54.284399
 30
0.0
 10
199.741214
 20
54.284399
 30
0.0
 10
199.002485
 20
53.545671
 30
0.0
 10
199.002484
 20
52.634401
 30
0.0
  0
SPLINE
  5
290
100
AcDbEntity
  8
Layer_1
 62
1
100
AcDbSpline
 70
8
 71
3
 72
8
 73
4
 74
0
 40
0
 40
0
 40
0
 40
0
 40
1
 40
1
 40
1
 40
1
 10
199.002484
 20
52.634401
 30
0.0
 10
199.002483
 20
52.196795
 30
0.0
 10
199.176321
 20
51.777111
 30
0.0
 10
199.485756
 20
51.467674
 30
0.0
  0
SPLINE
  5
291
100
AcDbEntity
  8
Layer_1
 62
1
100
AcDbSpline
 70
8
 71
3
 72
8
 73
4
 74
0
 40
0
 40
0
 40
0
 40
0
 40
1
 40
1
 40
1
 40
1
 10
199.485756
 20
51.467674
 30
0.0
 10
199.795190
 20
51.158237
 30
0.0
 10
200.214874
 20
50.984400
 30
0.0
 10
200.652482
 20
50.984397
 30
0.0
  0
SPLINE
  5
292
100
AcDbEntity
  8
Layer_1
 62
1
100
AcDbSpline
 70
8
 71
3
 72
8
 73
4
 74
0
 40
0
 40
0
 40
0
 40
0
 40
1
 40
1
 40
1
 40
1
 10
200.652482
 20
50.984397
 30
0.0
 10
201.090090
 20
50.984397
 30
0.0
 10
201.509775
 20
51.158237
 30
0.0
 10
201.819210
 20
51.467671
 30
0.0
  0
SPLINE
  5
293
100
AcDbEntity
  8
Layer_1
 62
1
100
AcDbSpline
 70
8
 71
3
 72
8
 73
4
 74
0
 40
0
 40
0
 40
0
 40
0
 40
1
 40
1
 40
1
 40
1
 10
201.819210
 20
51.467671
 30
0.0
 10
202.128645
 20
51.777108
 30
0.0
 10
202.302484
 20
52.196792
 30
0.0
 10
202.302483
 20
52.634401
 30
0.0
  0
SPLINE
  5
294
100
AcDbEntity
  8
Layer_1
 62
1
100
AcDbSpline
 70
8
 71
3
 72
8
 73
4
 74
0
 40
0
 40
0
 40
0
 40
0
 40
1
 40
1
 40
1
 40
1
 10
202.302483
 20
52.634401
 30
0.0
 10
202.302482
 20
53.545671
 30
0.0
 10
201.563751
 20
54.284402
 30
0.0
 10
200.652482
 20
54.284399
 30
0.0
  0
LINE
  5
295
100
AcDbEntity
  8
Layer_1
 62
1
100
AcDbLine
 10
200.652482
 20
54.284399
 30
0.0
 11
200.652482
 21
54.284399
 31
0.0
  0
LINE
  5
296
100
AcDbEntity
  8
Layer_1
 62
7
100
AcDbLine
 10
206.352583
 20
0.141138
 30
0.0
 11
206.352583
 21
3.141137
 31
0.0
  0
LINE
  5
297
100
AcDbEntity
  8
Layer_1
 62
7
100
AcDbLine
 10
206.352583
 20
3.141137
 30
0.0
 11
213.352580
 21
3.141137
 31
0.0
  0
LINE
  5
298
100
AcDbEntity
  8
Layer_1
 62
7
100
AcDbLine
 10
213.352580
 20
3.141137
 30
0.0
 11
213.352580
 21
0.141115
 31
0.0
  0
LINE
  5
299
100
AcDbEntity
  8
Layer_1
 62
7
100
AcDbLine
 10
213.352580
 20
0.141115
 30
0.0
 11
223.312581
 21
0.141138
 31
0.0
  0
LINE
  5
29a
100
AcDbEntity
  8
Layer_1
 62
7
100
AcDbLine
 10
223.352580
 20
0.141138
 30
0.0
 11
223.352580
 21
3.141143
 31
0.0
  0
LINE
  5
29b
100
AcDbEntity
  8
Layer_1
 62
7
100
AcDbLine
 10
223.352580
 20
3.141143
 30
0.0
 11
257.558791
 21
3.141137
 31
0.0
  0
LINE
  5
29c
100
AcDbEntity
  8
Layer_1
 62
7
100
AcDbLine
 10
257.558791
 20
3.141137
 30
0.0
 11
311.352571
 21
3.141137
 31
0.0
  0
LINE
  5
29d
100
AcDbEntity
  8
Layer_1
 62
7
100
AcDbLine
 10
311.352571
 20
3.141137
 30
0.0
 11
311.352571
 21
0.141115
 31
0.0
  0
LINE
  5
29e
100
AcDbEntity
  8
Layer_1
 62
7
100
AcDbLine
 10
311.352571
 20
0.141115
 30
0.0
 11
321.348568
 21
0.141138
 31
0.0
  0
LINE
  5
29f
100
AcDbEntity
  8
Layer_1
 62
7
100
AcDbLine
 10
321.352576
 20
0.141138
 30
0.0
 11
321.352576
 21
3.141143
 31
0.0
  0
LINE
  5
2a0
100
AcDbEntity
  8
Layer_1
 62
7
100
AcDbLine
 10
321.352576
 20
3.141143
 30
0.0
 11
328.352576
 21
3.141137
 31
0.0
  0
LINE
  5
2a1
100
AcDbEntity
  8
Layer_1
 62
7
100
AcDbLine
 10
328.352576
 20
3.141137
 30
0.0
 11
328.352576
 21
0.141115
 31
0.0
  0
LINE
  5
2a2
100
AcDbEntity
  8
Layer_1
 62
7
100
AcDbLine
 10
328.352576
 20
0.141115
 30
0.0
 11
338.339574
 21
0.141138
 31
0.0
  0
LINE
  5
2a3
100
AcDbEntity
  8
Layer_1
 62
7
100
AcDbLine
 10
338.352584
 20
0.141138
 30
0.0
 11
338.352584
 21
3.141137
 31
0.0
  0
LINE
  5
2a4
100
AcDbEntity
  8
Layer_1
 62
7
100
AcDbLine
 10
338.352584
 20
3.141137
 30
0.0
 11
354.352581
 21
3.141143
 31
0.0
  0
LINE
  5
2a5
100
AcDbEntity
  8
Layer_1
 62
7
100
AcDbLine
 10
354.352581
 20
3.141143
 30
0.0
 11
354.352581
 21
60.641133
 31
0.0
  0
LINE
  5
2a6
100
AcDbEntity
  8
Layer_1
 62
7
100
AcDbLine
 10
354.352581
 20
60.641133
 30
0.0
 11
356.852564
 21
63.141108
 31
0.0
  0
LINE
  5
2a7
100
AcDbEntity
  8
Layer_1
 62
7
100
AcDbLine
 10
356.852564
 20
63.141108
 30
0.0
 11
356.852581
 21
93.070103
 31
0.0
  0
LINE
  5
2a8
100
AcDbEntity
  8
Layer_1
 62
7
100
AcDbLine
 10
356.852581
 20
93.141127
 30
0.0
 11
354.352581
 21
95.641127
 31
0.0
  0
LINE
  5
2a9
100
AcDbEntity
  8
Layer_1
 62
7
100
AcDbLine
 10
354.352581
 20
95.641127
 30
0.0
 11
354.352581
 21
153.141117
 31
0.0
  0
LINE
  5
2aa
100
AcDbEntity
  8
Layer_1
 62
7
100
AcDbLine
 10
354.352581
 20
153.141117
 30
0.0
 11
338.352584
 21
153.141343
 31
0.0
  0
LINE
  5
2ab
100
AcDbEntity
  8
Layer_1
 62
7
100
AcDbLine
 10
338.352584
 20
153.141343
 30
0.0
 11
338.352584
 21
156.141139
 31
0.0
  0
LINE
  5
2ac
100
AcDbEntity
  8
Layer_1
 62
7
100
AcDbLine
 10
338.352584
 20
156.141139
 30
0.0
 11
328.352585
 21
156.141139
 31
0.0
  0
LINE
  5
2ad
100
AcDbEntity
  8
Layer_1
 62
7
100
AcDbLine
 10
328.352585
 20
156.141139
 30
0.0
 11
328.352585
 21
153.141343
 31
0.0
  0
LINE
  5
2ae
100
AcDbEntity
  8
Layer_1
 62
7
100
AcDbLine
 10
328.352585
 20
153.141343
 30
0.0
 11
321.352585
 21
153.141117
 31
0.0
  0
LINE
  5
2af
100
AcDbEntity
  8
Layer_1
 62
7
100
AcDbLine
 10
321.352585
 20
153.141117
 30
0.0
 11
321.352585
 21
156.141139
 31
0.0
  0
LINE
  5
2b0
100
AcDbEntity
  8
Layer_1
 62
7
100
AcDbLine
 10
321.352585
 20
156.141139
 30
0.0
 11
311.352588
 21
156.141139
 31
0.0
  0
LINE
  5
2b1
100
AcDbEntity
  8
Layer_1
 62
7
100
AcDbLine
 10
311.352588
 20
156.141139
 30
0.0
 11
311.352588
 21
153.141117
 31
0.0
  0
LINE
  5
2b2
100
AcDbEntity
  8
Layer_1
 62
7
100
AcDbLine
 10
311.352588
 20
153.141117
 30
0.0
 11
223.352597
 21
153.141371
 31
0.0
  0
LINE
  5
2b3
100
AcDbEntity
  8
Layer_1
 62
7
100
AcDbLine
 10
223.352597
 20
153.141371
 30
0.0
 11
223.352597
 21
156.141139
 31
0.0
  0
LINE
  5
2b4
100
AcDbEntity
  8
Layer_1
 62
7
100
AcDbLine
 10
223.352597
 20
156.141139
 30
0.0
 11
213.352597
 21
156.141139
 31
0.0
  0
LINE
  5
2b5
100
AcDbEntity
  8
Layer_1
 62
7
100
AcDbLine
 10
213.352597
 20
156.141139
 30
0.0
 11
213.352597
 21
153.141371
 31
0.0
  0
LINE
  5
2b6
100
AcDbEntity
  8
Layer_1
 62
7
100
AcDbLine
 10
213.352597
 20
153.141371
 30
0.0
 11
206.352600
 21
153.141145
 31
0.0
  0
LINE
  5
2b7
100
AcDbEntity
  8
Layer_1
 62
7
100
AcDbLine
 10
206.352600
 20
153.141145
 30
0.0
 11
206.352600
 21
156.141139
 31
0.0
  0
LINE
  5
2b8
100
AcDbEntity
  8
Layer_1
 62
7
100
AcDbLine
 10
206.352600
 20
156.141139
 30
0.0
 11
196.352601
 21
156.141139
 31
0.0
  0
LINE
  5
2b9
100
AcDbEntity
  8
Layer_1
 62
7
100
AcDbLine
 10
196.352601
 20
156.141139
 30
0.0
 11
196.352601
 21
153.041154
 31
0.0
  0
LINE
  5
2ba
100
AcDbEntity
  8
Layer_1
 62
7
100
AcDbLine
 10
196.352601
 20
153.041154
 30
0.0
 11
182.352567
 21
153.041154
 31
0.0
  0
LINE
  5
2bb
100
AcDbEntity
  8
Layer_1
 62
7
100
AcDbLine
 10
182.352567
 20
153.041154
 30
0.0
 11
182.352603
 21
95.641153
 31
0.0
  0
LINE
  5
2bc
100
AcDbEntity
  8
Layer_1
 62
7
100
AcDbLine
 10
182.352603
 20
95.641153
 30
0.0
 11
179.852603
 21
93.141155
 31
0.0
  0
LINE
  5
2bd
100
AcDbEntity
  8
Layer_1
 62
7
100
AcDbLine
 10
179.852603
 20
93.141155
 30
0.0
 11
179.852603
 21
63.141156
 31
0.0
  0
LINE
  5
2be
100
AcDbEntity
  8
Layer_1
 62
7
100
AcDbLine
 10
179.852603
 20
63.141156
 30
0.0
 11
182.352603
 21
60.641161
 31
0.0
  0
LINE
  5
2bf
100
AcDbEntity
  8
Layer_1
 62
7
100
AcDbLine
 10
182.352603
 20
60.641161
 30
0.0
 11
182.352603
 21
3.141137
 31
0.0
  0
LINE
  5
2c0
100
AcDbEntity
  8
Layer_1
 62
7
100
AcDbLine
 10
182.352603
 20
3.141137
 30
0.0
 11
196.352601
 21
3.141137
 31
0.0
  0
LINE
  5
2c1
100
AcDbEntity
  8
Layer_1
 62
7
100
AcDbLine
 10
196.352601
 20
3.141137
 30
0.0
 11
196.352601
 21
0.141115
 31
0.0
  0
LINE
  5
2c2
100
AcDbEntity
  8
Layer_1
 62
7
100
AcDbLine
 10
196.352601
 20
0.141115
 30
0.0
 11
206.348598
 21
0.141138
 31
0.0
  0
LINE
  5
2c3
100
AcDbEntity
  8
Layer_1
 62
1
100
AcDbLine
 10
182.432584
 20
81.891131
 30
0.0
 11
188.132583
 21
81.891131
 31
0.0
  0
LINE
  5
2c4
100
AcDbEntity
  8
Layer_1
 62
1
100
AcDbLine
 10
188.132583
 20
81.891131
 30
0.0
 11
188.132583
 21
91.891122
 31
0.0
  0
LINE
  5
2c5
100
AcDbEntity
  8
Layer_1
 62
1
100
AcDbLine
 10
188.132583
 20
91.891122
 30
0.0
 11
182.432584
 21
91.891122
 31
0.0
  0
LINE
  5
2c6
100
AcDbEntity
  8
Layer_1
 62
1
100
AcDbLine
 10
182.432584
 20
91.891122
 30
0.0
 11
182.432584
 21
81.891131
 31
0.0
  0
LINE
  5
2c7
100
AcDbEntity
  8
Layer_1
 62
1
100
AcDbLine
 10
182.432584
 20
64.891137
 30
0.0
 11
188.132583
 21
64.891134
 31
0.0
  0
LINE
  5
2c8
100
AcDbEntity
  8
Layer_1
 62
1
100
AcDbLine
 10
188.132583
 20
64.891134
 30
0.0
 11
188.132583
 21
74.891131
 31
0.0
  0
LINE
  5
2c9
100
AcDbEntity
  8
Layer_1
 62
1
100
AcDbLine
 10
188.132583
 20
74.891131
 30
0.0
 11
182.432584
 21
74.891131
 31
0.0
  0
LINE
  5
2ca
100
AcDbEntity
  8
Layer_1
 62
1
100
AcDbLine
 10
182.432584
 20
74.891131
 30
0.0
 11
182.432584
 21
64.891137
 31
0.0
  0
LINE
  5
2cb
100
AcDbEntity
  8
Layer_1
 62
1
100
AcDbLine
 10
348.402701
 20
81.891131
 30
0.0
 11
354.102701
 21
81.891131
 31
0.0
  0
LINE
  5
2cc
100
AcDbEntity
  8
Layer_1
 62
1
100
AcDbLine
 10
354.102701
 20
81.891131
 30
0.0
 11
354.102701
 21
91.891122
 31
0.0
  0
LINE
  5
2cd
100
AcDbEntity
  8
Layer_1
 62
1
100
AcDbLine
 10
354.102701
 20
91.891122
 30
0.0
 11
348.402701
 21
91.891122
 31
0.0
  0
LINE
  5
2ce
100
AcDbEntity
  8
Layer_1
 62
1
100
AcDbLine
 10
348.402701
 20
91.891122
 30
0.0
 11
348.402701
 21
81.891131
 31
0.0
  0
LINE
  5
2cf
100
AcDbEntity
  8
Layer_1
 62
1
100
AcDbLine
 10
348.402701
 20
64.891137
 30
0.0
 11
354.102701
 21
64.891134
 31
0.0
  0
LINE
  5
2d0
100
AcDbEntity
  8
Layer_1
 62
1
100
AcDbLine
 10
354.102701
 20
64.891134
 30
0.0
 11
354.102701
 21
74.891131
 31
0.0
  0
LINE
  5
2d1
100
AcDbEntity
  8
Layer_1
 62
1
100
AcDbLine
 10
354.102701
 20
74.891131
 30
0.0
 11
348.402701
 21
74.891131
 31
0.0
  0
LINE
  5
2d2
100
AcDbEntity
  8
Layer_1
 62
1
100
AcDbLine
 10
348.402701
 20
74.891131
 30
0.0
 11
348.402701
 21
64.891137
 31
0.0
  0
SPLINE
  5
2d3
100
AcDbEntity
  8
Layer_1
 62
1
100
AcDbSpline
 70
8
 71
3
 72
8
 73
4
 74
0
 40
0
 40
0
 40
0
 40
0
 40
1
 40
1
 40
1
 40
1
 10
337.150354
 20
138.848619
 30
0.0
 10
336.294315
 20
138.848622
 30
0.0
 10
335.600356
 20
138.154665
 30
0.0
 10
335.600353
 20
137.298629
 30
0.0
  0
SPLINE
  5
2d4
100
AcDbEntity
  8
Layer_1
 62
1
100
AcDbSpline
 70
8
 71
3
 72
8
 73
4
 74
0
 40
0
 40
0
 40
0
 40
0
 40
1
 40
1
 40
1
 40
1
 10
335.600353
 20
137.298629
 30
0.0
 10
335.600362
 20
136.442592
 30
0.0
 10
336.294318
 20
135.748642
 30
0.0
 10
337.150354
 20
135.748642
 30
0.0
  0
SPLINE
  5
2d5
100
AcDbEntity
  8
Layer_1
 62
1
100
AcDbSpline
 70
8
 71
3
 72
8
 73
4
 74
0
 40
0
 40
0
 40
0
 40
0
 40
1
 40
1
 40
1
 40
1
 10
337.150354
 20
135.748642
 30
0.0
 10
338.006388
 20
135.748645
 30
0.0
 10
338.700341
 20
136.442595
 30
0.0
 10
338.700350
 20
137.298629
 30
0.0
  0
SPLINE
  5
2d6
100
AcDbEntity
  8
Layer_1
 62
1
100
AcDbSpline
 70
8
 71
3
 72
8
 73
4
 74
0
 40
0
 40
0
 40
0
 40
0
 40
1
 40
1
 40
1
 40
1
 10
338.700350
 20
137.298629
 30
0.0
 10
338.700344
 20
138.154665
 30
0.0
 10
338.006391
 20
138.848619
 30
0.0
 10
337.150354
 20
138.848619
 30
0.0
  0
LINE
  5
2d7
100
AcDbEntity
  8
Layer_1
 62
1
100
AcDbLine
 10
337.150354
 20
138.848619
 30
0.0
 11
337.150354
 21
138.848619
 31
0.0
  0
SPLINE
  5
2d8
100
AcDbEntity
  8
Layer_1
 62
1
100
AcDbSpline
 70
8
 71
3
 72
8
 73
4
 74
0
 40
0
 40
0
 40
0
 40
0
 40
1
 40
1
 40
1
 40
1
 10
337.150354
 20
106.848635
 30
0.0
 10
336.294315
 20
106.848638
 30
0.0
 10
335.600356
 20
106.154681
 30
0.0
 10
335.600353
 20
105.298645
 30
0.0
  0
SPLINE
  5
2d9
100
AcDbEntity
  8
Layer_1
 62
1
100
AcDbSpline
 70
8
 71
3
 72
8
 73
4
 74
0
 40
0
 40
0
 40
0
 40
0
 40
1
 40
1
 40
1
 40
1
 10
335.600353
 20
105.298645
 30
0.0
 10
335.600356
 20
104.442606
 30
0.0
 10
336.294315
 20
103.748649
 30
0.0
 10
337.150354
 20
103.748649
 30
0.0
  0
SPLINE
  5
2da
100
AcDbEntity
  8
Layer_1
 62
1
100
AcDbSpline
 70
8
 71
3
 72
8
 73
4
 74
0
 40
0
 40
0
 40
0
 40
0
 40
1
 40
1
 40
1
 40
1
 10
337.150354
 20
103.748649
 30
0.0
 10
338.006391
 20
103.748655
 30
0.0
 10
338.700344
 20
104.442608
 30
0.0
 10
338.700347
 20
105.298645
 30
0.0
  0
SPLINE
  5
2db
100
AcDbEntity
  8
Layer_1
 62
1
100
AcDbSpline
 70
8
 71
3
 72
8
 73
4
 74
0
 40
0
 40
0
 40
0
 40
0
 40
1
 40
1
 40
1
 40
1
 10
338.700347
 20
105.298645
 30
0.0
 10
338.700344
 20
106.154679
 30
0.0
 10
338.006391
 20
106.848632
 30
0.0
 10
337.150354
 20
106.848635
 30
0.0
  0
LINE
  5
2dc
100
AcDbEntity
  8
Layer_1
 62
1
100
AcDbLine
 10
337.150354
 20
106.848635
 30
0.0
 11
337.150354
 21
106.848635
 31
0.0
  0
SPLINE
  5
2dd
100
AcDbEntity
  8
Layer_1
 62
1
100
AcDbSpline
 70
8
 71
3
 72
8
 73
4
 74
0
 40
0
 40
0
 40
0
 40
0
 40
1
 40
1
 40
1
 40
1
 10
305.150356
 20
106.848635
 30
0.0
 10
304.294317
 20
106.848638
 30
0.0
 10
303.600361
 20
106.154681
 30
0.0
 10
303.600355
 20
105.298645
 30
0.0
  0
SPLINE
  5
2de
100
AcDbEntity
  8
Layer_1
 62
1
100
AcDbSpline
 70
8
 71
3
 72
8
 73
4
 74
0
 40
0
 40
0
 40
0
 40
0
 40
1
 40
1
 40
1
 40
1
 10
303.600355
 20
105.298645
 30
0.0
 10
303.600361
 20
104.442606
 30
0.0
 10
304.294317
 20
103.748649
 30
0.0
 10
305.150356
 20
103.748649
 30
0.0
  0
SPLINE
  5
2df
100
AcDbEntity
  8
Layer_1
 62
1
100
AcDbSpline
 70
8
 71
3
 72
8
 73
4
 74
0
 40
0
 40
0
 40
0
 40
0
 40
1
 40
1
 40
1
 40
1
 10
305.150356
 20
103.748649
 30
0.0
 10
306.006393
 20
103.748655
 30
0.0
 10
306.700346
 20
104.442608
 30
0.0
 10
306.700349
 20
105.298645
 30
0.0
  0
SPLINE
  5
2e0
100
AcDbEntity
  8
Layer_1
 62
1
100
AcDbSpline
 70
8
 71
3
 72
8
 73
4
 74
0
 40
0
 40
0
 40
0
 40
0
 40
1
 40
1
 40
1
 40
1
 10
306.700349
 20
105.298645
 30
0.0
 10
306.700346
 20
106.154679
 30
0.0
 10
306.006393
 20
106.848632
 30
0.0
 10
305.150356
 20
106.848635
 30
0.0
  0
LINE
  5
2e1
100
AcDbEntity
  8
Layer_1
 62
1
100
AcDbLine
 10
305.150356
 20
106.848635
 30
0.0
 11
305.150356
 21
106.848635
 31
0.0
  0
SPLINE
  5
2e2
100
AcDbEntity
  8
Layer_1
 62
1
100
AcDbSpline
 70
8
 71
3
 72
8
 73
4
 74
0
 40
0
 40
0
 40
0
 40
0
 40
1
 40
1
 40
1
 40
1
 10
305.150356
 20
138.848619
 30
0.0
 10
304.294317
 20
138.848622
 30
0.0
 10
303.600361
 20
138.154665
 30
0.0
 10
303.600355
 20
137.298629
 30
0.0
  0
SPLINE
  5
2e3
100
AcDbEntity
  8
Layer_1
 62
1
100
AcDbSpline
 70
8
 71
3
 72
8
 73
4
 74
0
 40
0
 40
0
 40
0
 40
0
 40
1
 40
1
 40
1
 40
1
 10
303.600355
 20
137.298629
 30
0.0
 10
303.600364
 20
136.442592
 30
0.0
 10
304.294320
 20
135.748642
 30
0.0
 10
305.150356
 20
135.748642
 30
0.0
  0
SPLINE
  5
2e4
100
AcDbEntity
  8
Layer_1
 62
1
100
AcDbSpline
 70
8
 71
3
 72
8
 73
4
 74
0
 40
0
 40
0
 40
0
 40
0
 40
1
 40
1
 40
1
 40
1
 10
305.150356
 20
135.748642
 30
0.0
 10
306.006390
 20
135.748648
 30
0.0
 10
306.700341
 20
136.442595
 30
0.0
 10
306.700349
 20
137.298629
 30
0.0
  0
SPLINE
  5
2e5
100
AcDbEntity
  8
Layer_1
 62
1
100
AcDbSpline
 70
8
 71
3
 72
8
 73
4
 74
0
 40
0
 40
0
 40
0
 40
0
 40
1
 40
1
 40
1
 40
1
 10
306.700349
 20
137.298629
 30
0.0
 10
306.700346
 20
138.154663
 30
0.0
 10
306.006393
 20
138.848616
 30
0.0
 10
305.150356
 20
138.848619
 30
0.0
  0
LINE
  5
2e6
100
AcDbEntity
  8
Layer_1
 62
1
100
AcDbLine
 10
305.150356
 20
138.848619
 30
0.0
 11
305.150356
 21
138.848619
 31
0.0
  0
LINE
  5
2e7
100
AcDbEntity
  8
Layer_1
 62
1
100
AcDbLine
 10
337.911494
 20
123.440637
 30
0.0
 11
328.228844
 21
123.440637
 31
0.0
  0
SPLINE
  5
2e8
100
AcDbEntity
  8
Layer_1
 62
1
100
AcDbSpline
 70
8
 71
3
 72
8
 73
4
 74
0
 40
0
 40
0
 40
0
 40
0
 40
1
 40
1
 40
1
 40
1
 10
328.228844
 20
123.440637
 30
0.0
 10
327.358810
 20
126.319947
 30
0.0
 10
324.842672
 20
128.393606
 30
0.0
 10
321.850182
 20
128.697574
 30
0.0
  0
LINE
  5
2e9
100
AcDbEntity
  8
Layer_1
 62
1
100
AcDbLine
 10
321.850182
 20
128.697574
 30
0.0
 11
321.850182
 21
138.217070
 31
0.0
  0
SPLINE
  5
2ea
100
AcDbEntity
  8
Layer_1
 62
1
100
AcDbSpline
 70
8
 71
3
 72
8
 73
4
 74
0
 40
0
 40
0
 40
0
 40
0
 40
1
 40
1
 40
1
 40
1
 10
321.850182
 20
138.217070
 30
0.0
 10
330.084582
 20
137.851923
 30
0.0
 10
336.862618
 20
131.616121
 30
0.0
 10
337.911494
 20
123.440637
 30
0.0
  0
LINE
  5
2eb
100
AcDbEntity
  8
Layer_1
 62
1
100
AcDbLine
 10
337.911494
 20
123.440637
 30
0.0
 11
337.911494
 21
123.440637
 31
0.0
  0
LINE
  5
2ec
100
AcDbEntity
  8
Layer_1
 62
1
100
AcDbLine
 10
328.228844
 20
123.440637
 30
0.0
 11
337.911494
 21
123.440637
 31
0.0
  0
LINE
  5
2ed
100
AcDbEntity
  8
Layer_1
 62
1
100
AcDbLine
 10
337.968268
 20
119.690717
 30
0.0
 11
328.366097
 21
119.690717
 31
0.0
  0
LINE
  5
2ee
100
AcDbEntity
  8
Layer_1
 62
1
100
AcDbLine
 10
321.850182
 20
104.380714
 30
0.0
 11
321.850182
 21
113.881457
 31
0.0
  0
SPLINE
  5
2ef
100
AcDbEntity
  8
Layer_1
 62
1
100
AcDbSpline
 70
8
 71
3
 72
8
 73
4
 74
0
 40
0
 40
0
 40
0
 40
0
 40
1
 40
1
 40
1
 40
1
 10
321.850182
 20
113.881457
 30
0.0
 10
325.047999
 20
114.209315
 30
0.0
 10
327.674901
 20
116.551325
 30
0.0
 10
328.366097
 20
119.690717
 30
0.0
  0
LINE
  5
2f0
100
AcDbEntity
  8
Layer_1
 62
1
100
AcDbLine
 10
328.366097
 20
119.690717
 30
0.0
 11
337.968268
 21
119.690717
 31
0.0
  0
SPLINE
  5
2f1
100
AcDbEntity
  8
Layer_1
 62
1
100
AcDbSpline
 70
8
 71
3
 72
8
 73
4
 74
0
 40
0
 40
0
 40
0
 40
0
 40
1
 40
1
 40
1
 40
1
 10
337.968268
 20
119.690717
 30
0.0
 10
337.159558
 20
111.284790
 30
0.0
 10
330.286563
 20
104.756375
 30
0.0
 10
321.850182
 20
104.380714
 30
0.0
  0
LINE
  5
2f2
100
AcDbEntity
  8
Layer_1
 62
1
100
AcDbLine
 10
321.850182
 20
104.380714
 30
0.0
 11
321.850182
 21
104.380714
 31
0.0
  0
SPLINE
  5
2f3
100
AcDbEntity
  8
Layer_1
 62
1
100
AcDbSpline
 70
8
 71
3
 72
8
 73
4
 74
0
 40
0
 40
0
 40
0
 40
0
 40
1
 40
1
 40
1
 40
1
 10
304.250245
 20
121.292836
 30
0.0
 10
304.261506
 20
112.231332
 30
0.0
 10
311.397817
 20
104.781292
 30
0.0
 10
320.450458
 20
104.380460
 30
0.0
  0
LINE
  5
2f4
100
AcDbEntity
  8
Layer_1
 62
1
100
AcDbLine
 10
320.450458
 20
104.380460
 30
0.0
 11
320.450458
 21
113.881198
 31
0.0
  0
SPLINE
  5
2f5
100
AcDbEntity
  8
Layer_1
 62
1
100
AcDbSpline
 70
8
 71
3
 72
8
 73
4
 74
0
 40
0
 40
0
 40
0
 40
0
 40
1
 40
1
 40
1
 40
1
 10
320.450458
 20
113.881198
 30
0.0
 10
316.645970
 20
114.266146
 30
0.0
 10
313.750703
 20
117.468922
 30
0.0
 10
313.750438
 20
121.292836
 30
0.0
  0
SPLINE
  5
2f6
100
AcDbEntity
  8
Layer_1
 62
1
100
AcDbSpline
 70
8
 71
3
 72
8
 73
4
 74
0
 40
0
 40
0
 40
0
 40
0
 40
1
 40
1
 40
1
 40
1
 10
313.750438
 20
121.292836
 30
0.0
 10
313.754361
 20
125.114012
 30
0.0
 10
316.648688
 20
128.312659
 30
0.0
 10
320.450458
 20
128.697331
 30
0.0
  0
LINE
  5
2f7
100
AcDbEntity
  8
Layer_1
 62
1
100
AcDbLine
 10
320.450458
 20
128.697331
 30
0.0
 11
320.450458
 21
138.216808
 31
0.0
  0
SPLINE
  5
2f8
100
AcDbEntity
  8
Layer_1
 62
1
100
AcDbSpline
 70
8
 71
3
 72
8
 73
4
 74
0
 40
0
 40
0
 40
0
 40
0
 40
1
 40
1
 40
1
 40
1
 10
320.450458
 20
138.216808
 30
0.0
 10
311.393338
 20
137.815773
 30
0.0
 10
304.255291
 20
130.358827
 30
0.0
 10
304.250245
 20
121.292836
 30
0.0
  0
LINE
  5
2f9
100
AcDbEntity
  8
Layer_1
 62
1
100
AcDbLine
 10
304.250245
 20
121.292836
 30
0.0
 11
304.250245
 21
121.292836
 31
0.0
  0
SPLINE
  5
2fa
100
AcDbEntity
  8
Layer_1
 62
1
100
AcDbSpline
 70
8
 71
3
 72
8
 73
4
 74
0
 40
0
 40
0
 40
0
 40
0
 40
1
 40
1
 40
1
 40
1
 10
292.528145
 20
106.148611
 30
0.0
 10
291.672106
 20
106.148614
 30
0.0
 10
290.978147
 20
105.454657
 30
0.0
 10
290.978144
 20
104.598621
 30
0.0
  0
SPLINE
  5
2fb
100
AcDbEntity
  8
Layer_1
 62
1
100
AcDbSpline
 70
8
 71
3
 72
8
 73
4
 74
0
 40
0
 40
0
 40
0
 40
0
 40
1
 40
1
 40
1
 40
1
 10
290.978144
 20
104.598621
 30
0.0
 10
290.978147
 20
103.742582
 30
0.0
 10
291.672106
 20
103.048625
 30
0.0
 10
292.528145
 20
103.048625
 30
0.0
  0
SPLINE
  5
2fc
100
AcDbEntity
  8
Layer_1
 62
1
100
AcDbSpline
 70
8
 71
3
 72
8
 73
4
 74
0
 40
0
 40
0
 40
0
 40
0
 40
1
 40
1
 40
1
 40
1
 10
292.528145
 20
103.048625
 30
0.0
 10
293.384182
 20
103.048628
 30
0.0
 10
294.078141
 20
103.742582
 30
0.0
 10
294.078144
 20
104.598621
 30
0.0
  0
SPLINE
  5
2fd
100
AcDbEntity
  8
Layer_1
 62
1
100
AcDbSpline
 70
8
 71
3
 72
8
 73
4
 74
0
 40
0
 40
0
 40
0
 40
0
 40
1
 40
1
 40
1
 40
1
 10
294.078144
 20
104.598621
 30
0.0
 10
294.078141
 20
105.454657
 30
0.0
 10
293.384182
 20
106.148611
 30
0.0
 10
292.528145
 20
106.148611
 30
0.0
  0
LINE
  5
2fe
100
AcDbEntity
  8
Layer_1
 62
1
100
AcDbLine
 10
292.528145
 20
106.148611
 30
0.0
 11
292.528145
 21
106.148611
 31
0.0
  0
SPLINE
  5
2ff
100
AcDbEntity
  8
Layer_1
 62
1
100
AcDbSpline
 70
8
 71
3
 72
8
 73
4
 74
0
 40
0
 40
0
 40
0
 40
0
 40
1
 40
1
 40
1
 40
1
 10
292.528145
 20
139.548626
 30
0.0
 10
291.699724
 20
139.548626
 30
0.0
 10
291.028151
 20
138.877064
 30
0.0
 10
291.028143
 20
138.048643
 30
0.0
  0
SPLINE
  5
300
100
AcDbEntity
  8
Layer_1
 62
1
100
AcDbSpline
 70
8
 71
3
 72
8
 73
4
 74
0
 40
0
 40
0
 40
0
 40
0
 40
1
 40
1
 40
1
 40
1
 10
291.028143
 20
138.048643
 30
0.0
 10
291.028140
 20
137.650814
 30
0.0
 10
291.186173
 20
137.269281
 30
0.0
 10
291.467481
 20
136.987973
 30
0.0
  0
SPLINE
  5
301
100
AcDbEntity
  8
Layer_1
 62
1
100
AcDbSpline
 70
8
 71
3
 72
8
 73
4
 74
0
 40
0
 40
0
 40
0
 40
0
 40
1
 40
1
 40
1
 40
1
 10
291.467481
 20
136.987973
 30
0.0
 10
291.748786
 20
136.706665
 30
0.0
 10
292.130316
 20
136.548629
 30
0.0
 10
292.528145
 20
136.548632
 30
0.0
  0
SPLINE
  5
302
100
AcDbEntity
  8
Layer_1
 62
1
100
AcDbSpline
 70
8
 71
3
 72
8
 73
4
 74
0
 40
0
 40
0
 40
0
 40
0
 40
1
 40
1
 40
1
 40
1
 10
292.528145
 20
136.548632
 30
0.0
 10
292.925971
 20
136.548632
 30
0.0
 10
293.307505
 20
136.706668
 30
0.0
 10
293.588810
 20
136.987973
 30
0.0
  0
SPLINE
  5
303
100
AcDbEntity
  8
Layer_1
 62
1
100
AcDbSpline
 70
8
 71
3
 72
8
 73
4
 74
0
 40
0
 40
0
 40
0
 40
0
 40
1
 40
1
 40
1
 40
1
 10
293.588810
 20
136.987973
 30
0.0
 10
293.870115
 20
137.269281
 30
0.0
 10
294.028148
 20
137.650814
 30
0.0
 10
294.028145
 20
138.048643
 30
0.0
  0
SPLINE
  5
304
100
AcDbEntity
  8
Layer_1
 62
1
100
AcDbSpline
 70
8
 71
3
 72
8
 73
4
 74
0
 40
0
 40
0
 40
0
 40
0
 40
1
 40
1
 40
1
 40
1
 10
294.028145
 20
138.048643
 30
0.0
 10
294.028137
 20
138.877061
 30
0.0
 10
293.356566
 20
139.548626
 30
0.0
 10
292.528145
 20
139.548626
 30
0.0
  0
LINE
  5
305
100
AcDbEntity
  8
Layer_1
 62
1
100
AcDbLine
 10
292.528145
 20
139.548626
 30
0.0
 11
292.528145
 21
139.548626
 31
0.0
  0
LINE
  5
306
100
AcDbEntity
  8
Layer_1
 62
1
100
AcDbLine
 10
296.828142
 20
110.073591
 30
0.0
 11
296.828142
 21
132.573614
 31
0.0
  0
LINE
  5
307
100
AcDbEntity
  8
Layer_1
 62
1
100
AcDbLine
 10
296.828142
 20
132.573614
 30
0.0
 11
288.828144
 21
132.573614
 31
0.0
  0
LINE
  5
308
100
AcDbEntity
  8
Layer_1
 62
1
100
AcDbLine
 10
288.828144
 20
132.573614
 30
0.0
 11
288.828144
 21
110.073591
 31
0.0
  0
LINE
  5
309
100
AcDbEntity
  8
Layer_1
 62
1
100
AcDbLine
 10
288.828144
 20
110.073591
 30
0.0
 11
296.828142
 21
110.073591
 31
0.0
  0
ENDSEC
  0
SECTION
  2
OBJECTS
  0
DICTIONARY
  5
C
330
0
100
AcDbDictionary
  3
ACAD_GROUP
350
D
  3
ACAD_MLINESTYLE
350
17
  0
DICTIONARY
  5
D
330
C
100
AcDbDictionary
  0
DICTIONARY
  5
1A
330
C
100
AcDbDictionary
  0
DICTIONARY
  5
17
330
C
100
AcDbDictionary
  3
STANDARD
350
18
  0
DICTIONARY
  5
19
330
C
100
AcDbDictionary
  0
ENDSEC
  0
EOF
