  0
SECTION
  2
HEADER
  9
$ACADVER
  1
AC1014
  9
$HANDSEED
  5
FFFF
  9
$MEASUREMENT
 70
     1
  0
ENDSEC
  0
SECTION
  2
TABLES
  0
TABLE
  2
VPORT
  5
8
330
0
100
AcDbSymbolTable
 70
     4
  0
VPORT
  5
2E
330
8
100
AcDbSymbolTableRecord
100
AcDbViewportTableRecord
  2
*ACTIVE
 70
     0
 10
0.0
 20
0.0
 11
1.0
 21
1.0
 12
210.0
 22
148.5
 13
0.0
 23
0.0
 14
10.0
 24
10.0
 15
10.0
 25
10.0
 16
0.0
 26
0.0
 36
1.0
 17
0.0
 27
0.0
 37
0.0
 40
341.0
 41
1.24
 42
50.0
 43
0.0
 44
0.0
 50
0.0
 51
0.0
 71
     0
 72
   100
 73
     1
 74
     3
 75
     0
 76
     0
 77
     0
 78
     0
  0
ENDTAB
  0
TABLE
  2
LTYPE
  5
5
330
0
100
AcDbSymbolTable
 70
     1
  0
LTYPE
  5
14
330
5
100
AcDbSymbolTableRecord
100
AcDbLinetypeTableRecord
  2
BYBLOCK
 70
     0
  3

 72
    65
 73
     0
 40
0.0
  0
LTYPE
  5
15
330
5
100
AcDbSymbolTableRecord
100
AcDbLinetypeTableRecord
  2
BYLAYER
 70
     0
  3

 72
    65
 73
     0
 40
0.0
  0
LTYPE
  5
16
330
5
100
AcDbSymbolTableRecord
100
AcDbLinetypeTableRecord
  2
CONTINUOUS
 70
     0
  3
Solid line
 72
    65
 73
     0
 40
0.0
  0
ENDTAB
  0
TABLE
  2
LAYER
  5
2
100
AcDbSymbolTable
 70
2
  0
LAYER
  5
50
100
AcDbSymbolTableRecord
100
AcDbLayerTableRecord
  2
0
 70
0
  6
CONTINUOUS
  0
LAYER
  5
51
100
AcDbSymbolTableRecord
100
AcDbLayerTableRecord
  2
Layer_1
 70
0
  6
CONTINUOUS
  0
ENDTAB
  0
TABLE
  2
STYLE
  5
3
330
0
100
AcDbSymbolTable
 70
     1
  0
STYLE
  5
11
330
3
100
AcDbSymbolTableRecord
100
AcDbTextStyleTableRecord
  2
STANDARD
 70
     0
 40
0.0
 41
1.0
 50
0.0
 71
     0
 42
2.5
  3
txt
  4

  0
ENDTAB
  0
TABLE
  2
VIEW
  5
6
330
0
100
AcDbSymbolTable
 70
     0
  0
ENDTAB
  0
TABLE
  2
UCS
  5
7
330
0
100
AcDbSymbolTable
 70
     0
  0
ENDTAB
  0
TABLE
  2
APPID
  5
9
330
0
100
AcDbSymbolTable
 70
     2
  0
APPID
  5
12
330
9
100
AcDbSymbolTableRecord
100
AcDbRegAppTableRecord
  2
ACAD
 70
     0
  0
ENDTAB
  0
TABLE
  2
DIMSTYLE
  5
A
330
0
100
AcDbSymbolTable
 70
     1
  0
DIMSTYLE
105
27
330
A
100
AcDbSymbolTableRecord
100
AcDbDimStyleTableRecord
  2
ISO-25
 70
     0
  3

  4

  5

  6

  7

 40
1.0
 41
2.5
 42
0.625
 43
3.75
 44
1.25
 45
0.0
 46
0.0
 47
0.0
 48
0.0
140
2.5
141
2.5
142
0.0
143
0.03937007874016
144
1.0
145
0.0
146
1.0
147
0.625
 71
     0
 72
     0
 73
     0
 74
     0
 75
     0
 76
     0
 77
     1
 78
     8
170
     0
171
     3
172
     1
173
     0
174
     0
175
     0
176
     0
177
     0
178
     0
270
     2
271
     2
272
     2
273
     2
274
     3
340
11
275
     0
280
     0
281
     0
282
     0
283
     0
284
     8
285
     0
286
     0
287
     3
288
     0
  0
ENDTAB
  0
TABLE
  2
BLOCK_RECORD
  5
1
330
0
100
AcDbSymbolTable
 70
     1
  0
BLOCK_RECORD
  5
1F
330
1
100
AcDbSymbolTableRecord
100
AcDbBlockTableRecord
  2
*MODEL_SPACE
  0
BLOCK_RECORD
  5
1B
330
1
100
AcDbSymbolTableRecord
100
AcDbBlockTableRecord
  2
*PAPER_SPACE
  0
ENDTAB
  0
ENDSEC
  0
SECTION
  2
BLOCKS
  0
BLOCK
  5
20
330
1F
100
AcDbEntity
  8
0
100
AcDbBlockBegin
  2
*MODEL_SPACE
 70
     0
 10
0.0
 20
0.0
 30
0.0
  3
*MODEL_SPACE
  1

  0
ENDBLK
  5
21
330
1F
100
AcDbEntity
  8
0
100
AcDbBlockEnd
  0
BLOCK
  5
1C
330
1B
100
AcDbEntity
 67
     1
  8
0
100
AcDbBlockBegin
  2
*PAPER_SPACE
  1

  0
ENDBLK
  5
1D
330
1B
100
AcDbEntity
 67
     1
  8
0
100
AcDbBlockEnd
  0
ENDSEC
  0
SECTION
  2
ENTITIES
  0
LINE
  5
100
100
AcDbEntity
  8
Layer_1
 62
7
100
AcDbLine
 10
91.750309
 20
-3.881233
 30
0.0
 11
91.750309
 21
-0.880759
 31
0.0
  0
LINE
  5
101
100
AcDbEntity
  8
Layer_1
 62
7
100
AcDbLine
 10
91.750309
 20
-0.880759
 30
0.0
 11
153.249946
 21
-0.880759
 31
0.0
  0
LINE
  5
102
100
AcDbEntity
  8
Layer_1
 62
7
100
AcDbLine
 10
153.249946
 20
-0.880759
 30
0.0
 11
153.249946
 21
10.519514
 31
0.0
  0
LINE
  5
103
100
AcDbEntity
  8
Layer_1
 62
7
100
AcDbLine
 10
153.249946
 20
10.519514
 30
0.0
 11
156.249982
 21
10.519514
 31
0.0
  0
LINE
  5
104
100
AcDbEntity
  8
Layer_1
 62
7
100
AcDbLine
 10
156.249982
 20
10.519514
 30
0.0
 11
156.249982
 21
20.519664
 31
0.0
  0
LINE
  5
105
100
AcDbEntity
  8
Layer_1
 62
7
100
AcDbLine
 10
156.249982
 20
20.519664
 30
0.0
 11
153.299993
 21
20.520228
 31
0.0
  0
LINE
  5
106
100
AcDbEntity
  8
Layer_1
 62
7
100
AcDbLine
 10
153.299993
 20
20.520228
 30
0.0
 11
153.299993
 21
22.520027
 31
0.0
  0
LINE
  5
107
100
AcDbEntity
  8
Layer_1
 62
7
100
AcDbLine
 10
153.299993
 20
22.520027
 30
0.0
 11
149.250321
 21
22.519462
 31
0.0
  0
LINE
  5
108
100
AcDbEntity
  8
Layer_1
 62
7
100
AcDbLine
 10
149.250321
 20
22.519462
 30
0.0
 11
149.250321
 21
21.519577
 31
0.0
  0
SPLINE
  5
109
100
AcDbEntity
  8
Layer_1
 62
7
100
AcDbSpline
 70
8
 71
3
 72
8
 73
4
 74
0
 40
0
 40
0
 40
0
 40
0
 40
1
 40
1
 40
1
 40
1
 10
149.250321
 20
21.519577
 30
0.0
 10
149.892631
 20
21.191889
 30
0.0
 10
148.931777
 20
20.379625
 30
0.0
 10
148.750364
 20
21.269867
 30
0.0
  0
LINE
  5
10a
100
AcDbEntity
  8
Layer_1
 62
7
100
AcDbLine
 10
148.750364
 20
21.269867
 30
0.0
 11
146.250073
 21
21.269867
 31
0.0
  0
LINE
  5
10b
100
AcDbEntity
  8
Layer_1
 62
7
100
AcDbLine
 10
146.250073
 20
21.269867
 30
0.0
 11
146.250073
 21
22.519462
 31
0.0
  0
LINE
  5
10c
100
AcDbEntity
  8
Layer_1
 62
7
100
AcDbLine
 10
146.250073
 20
22.519462
 30
0.0
 11
142.750405
 21
22.519462
 31
0.0
  0
LINE
  5
10d
100
AcDbEntity
  8
Layer_1
 62
7
100
AcDbLine
 10
142.750405
 20
22.519462
 30
0.0
 11
142.750405
 21
25.519738
 31
0.0
  0
LINE
  5
10e
100
AcDbEntity
  8
Layer_1
 62
7
100
AcDbLine
 10
142.750405
 20
25.519738
 30
0.0
 11
146.250073
 21
25.519738
 31
0.0
  0
LINE
  5
10f
100
AcDbEntity
  8
Layer_1
 62
7
100
AcDbLine
 10
146.250073
 20
25.519738
 30
0.0
 11
146.250073
 21
26.769898
 31
0.0
  0
LINE
  5
110
100
AcDbEntity
  8
Layer_1
 62
7
100
AcDbLine
 10
146.250073
 20
26.769898
 30
0.0
 11
146.750001
 21
26.769898
 31
0.0
  0
LINE
  5
111
100
AcDbEntity
  8
Layer_1
 62
7
100
AcDbLine
 10
146.750001
 20
26.769898
 30
0.0
 11
147.749915
 21
26.769898
 31
0.0
  0
LINE
  5
112
100
AcDbEntity
  8
Layer_1
 62
7
100
AcDbLine
 10
147.749915
 20
26.769898
 30
0.0
 11
148.750364
 21
26.769898
 31
0.0
  0
SPLINE
  5
113
100
AcDbEntity
  8
Layer_1
 62
7
100
AcDbSpline
 70
8
 71
3
 72
8
 73
4
 74
0
 40
0
 40
0
 40
0
 40
0
 40
1
 40
1
 40
1
 40
1
 10
148.750364
 20
26.769898
 30
0.0
 10
148.950037
 20
27.669199
 30
0.0
 10
149.932424
 20
26.883860
 30
0.0
 10
149.250321
 20
26.519624
 30
0.0
  0
LINE
  5
114
100
AcDbEntity
  8
Layer_1
 62
7
100
AcDbLine
 10
149.250321
 20
26.519624
 30
0.0
 11
149.250321
 21
25.832271
 31
0.0
  0
LINE
  5
115
100
AcDbEntity
  8
Layer_1
 62
7
100
AcDbLine
 10
149.250321
 20
25.832271
 30
0.0
 11
149.250321
 21
25.519738
 31
0.0
  0
LINE
  5
116
100
AcDbEntity
  8
Layer_1
 62
7
100
AcDbLine
 10
149.250321
 20
25.519738
 30
0.0
 11
153.299993
 21
25.519738
 31
0.0
  0
LINE
  5
117
100
AcDbEntity
  8
Layer_1
 62
7
100
AcDbLine
 10
153.299993
 20
25.519738
 30
0.0
 11
153.299993
 21
27.519537
 31
0.0
  0
LINE
  5
118
100
AcDbEntity
  8
Layer_1
 62
7
100
AcDbLine
 10
153.299993
 20
27.519537
 30
0.0
 11
156.249982
 21
27.519537
 31
0.0
  0
LINE
  5
119
100
AcDbEntity
  8
Layer_1
 62
7
100
AcDbLine
 10
156.249982
 20
27.519537
 30
0.0
 11
156.249982
 21
37.519686
 31
0.0
  0
LINE
  5
11a
100
AcDbEntity
  8
Layer_1
 62
7
100
AcDbLine
 10
156.249982
 20
37.519686
 30
0.0
 11
153.249946
 21
37.519686
 31
0.0
  0
LINE
  5
11b
100
AcDbEntity
  8
Layer_1
 62
7
100
AcDbLine
 10
153.249946
 20
37.519686
 30
0.0
 11
153.249946
 21
85.975379
 31
0.0
  0
LINE
  5
11c
100
AcDbEntity
  8
Layer_1
 62
7
100
AcDbLine
 10
153.249946
 20
85.975379
 30
0.0
 11
156.249982
 21
85.975379
 31
0.0
  0
LINE
  5
11d
100
AcDbEntity
  8
Layer_1
 62
7
100
AcDbLine
 10
156.249982
 20
85.975379
 30
0.0
 11
156.249982
 21
95.975528
 31
0.0
  0
LINE
  5
11e
100
AcDbEntity
  8
Layer_1
 62
7
100
AcDbLine
 10
156.249982
 20
95.975528
 30
0.0
 11
153.299993
 21
95.975528
 31
0.0
  0
LINE
  5
11f
100
AcDbEntity
  8
Layer_1
 62
7
100
AcDbLine
 10
153.299993
 20
95.975528
 30
0.0
 11
153.299993
 21
97.975327
 31
0.0
  0
LINE
  5
120
100
AcDbEntity
  8
Layer_1
 62
7
100
AcDbLine
 10
153.299993
 20
97.975327
 30
0.0
 11
149.250321
 21
97.975327
 31
0.0
  0
LINE
  5
121
100
AcDbEntity
  8
Layer_1
 62
7
100
AcDbLine
 10
149.250321
 20
97.975327
 30
0.0
 11
149.250321
 21
96.975414
 31
0.0
  0
SPLINE
  5
122
100
AcDbEntity
  8
Layer_1
 62
7
100
AcDbSpline
 70
8
 71
3
 72
8
 73
4
 74
0
 40
0
 40
0
 40
0
 40
0
 40
1
 40
1
 40
1
 40
1
 10
149.250321
 20
96.975414
 30
0.0
 10
149.892631
 20
96.647754
 30
0.0
 10
148.931777
 20
95.834925
 30
0.0
 10
148.750364
 20
96.725167
 30
0.0
  0
LINE
  5
123
100
AcDbEntity
  8
Layer_1
 62
7
100
AcDbLine
 10
148.750364
 20
96.725167
 30
0.0
 11
146.250073
 21
96.725167
 31
0.0
  0
LINE
  5
124
100
AcDbEntity
  8
Layer_1
 62
7
100
AcDbLine
 10
146.250073
 20
96.725167
 30
0.0
 11
146.250073
 21
97.975327
 31
0.0
  0
LINE
  5
125
100
AcDbEntity
  8
Layer_1
 62
7
100
AcDbLine
 10
146.250073
 20
97.975327
 30
0.0
 11
142.750405
 21
97.975327
 31
0.0
  0
LINE
  5
126
100
AcDbEntity
  8
Layer_1
 62
7
100
AcDbLine
 10
142.750405
 20
97.975327
 30
0.0
 11
142.750405
 21
100.975039
 31
0.0
  0
LINE
  5
127
100
AcDbEntity
  8
Layer_1
 62
7
100
AcDbLine
 10
142.750405
 20
100.975039
 30
0.0
 11
146.250073
 21
100.975039
 31
0.0
  0
LINE
  5
128
100
AcDbEntity
  8
Layer_1
 62
7
100
AcDbLine
 10
146.250073
 20
100.975039
 30
0.0
 11
146.250073
 21
102.225198
 31
0.0
  0
LINE
  5
129
100
AcDbEntity
  8
Layer_1
 62
7
100
AcDbLine
 10
146.250073
 20
102.225198
 30
0.0
 11
146.750001
 21
102.225198
 31
0.0
  0
LINE
  5
12a
100
AcDbEntity
  8
Layer_1
 62
7
100
AcDbLine
 10
146.750001
 20
102.225198
 30
0.0
 11
147.749915
 21
102.225198
 31
0.0
  0
LINE
  5
12b
100
AcDbEntity
  8
Layer_1
 62
7
100
AcDbLine
 10
147.749915
 20
102.225198
 30
0.0
 11
148.750364
 21
102.225198
 31
0.0
  0
SPLINE
  5
12c
100
AcDbEntity
  8
Layer_1
 62
7
100
AcDbSpline
 70
8
 71
3
 72
8
 73
4
 74
0
 40
0
 40
0
 40
0
 40
0
 40
1
 40
1
 40
1
 40
1
 10
148.750364
 20
102.225198
 30
0.0
 10
148.950037
 20
103.124528
 30
0.0
 10
149.932424
 20
102.339724
 30
0.0
 10
149.250321
 20
101.975488
 30
0.0
  0
LINE
  5
12d
100
AcDbEntity
  8
Layer_1
 62
7
100
AcDbLine
 10
149.250321
 20
101.975488
 30
0.0
 11
149.250321
 21
101.287572
 31
0.0
  0
LINE
  5
12e
100
AcDbEntity
  8
Layer_1
 62
7
100
AcDbLine
 10
149.250321
 20
101.287572
 30
0.0
 11
149.250321
 21
100.975039
 31
0.0
  0
LINE
  5
12f
100
AcDbEntity
  8
Layer_1
 62
7
100
AcDbLine
 10
149.250321
 20
100.975039
 30
0.0
 11
153.299993
 21
100.975039
 31
0.0
  0
LINE
  5
130
100
AcDbEntity
  8
Layer_1
 62
7
100
AcDbLine
 10
153.299993
 20
100.975039
 30
0.0
 11
153.299993
 21
102.975402
 31
0.0
  0
LINE
  5
131
100
AcDbEntity
  8
Layer_1
 62
7
100
AcDbLine
 10
153.299993
 20
102.975402
 30
0.0
 11
156.249982
 21
102.975402
 31
0.0
  0
LINE
  5
132
100
AcDbEntity
  8
Layer_1
 62
7
100
AcDbLine
 10
156.249982
 20
102.975402
 30
0.0
 11
156.249982
 21
112.974986
 31
0.0
  0
LINE
  5
133
100
AcDbEntity
  8
Layer_1
 62
7
100
AcDbLine
 10
156.249982
 20
112.974986
 30
0.0
 11
153.249946
 21
112.974986
 31
0.0
  0
LINE
  5
134
100
AcDbEntity
  8
Layer_1
 62
7
100
AcDbLine
 10
153.249946
 20
112.974986
 30
0.0
 11
153.249946
 21
124.875019
 31
0.0
  0
LINE
  5
135
100
AcDbEntity
  8
Layer_1
 62
7
100
AcDbLine
 10
153.249946
 20
124.875019
 30
0.0
 11
91.750309
 21
124.875019
 31
0.0
  0
LINE
  5
136
100
AcDbEntity
  8
Layer_1
 62
7
100
AcDbLine
 10
91.750309
 20
124.875019
 30
0.0
 11
91.750309
 21
127.874985
 31
0.0
  0
LINE
  5
137
100
AcDbEntity
  8
Layer_1
 62
7
100
AcDbLine
 10
91.750309
 20
127.874985
 30
0.0
 11
81.750165
 21
127.874985
 31
0.0
  0
LINE
  5
138
100
AcDbEntity
  8
Layer_1
 62
7
100
AcDbLine
 10
81.750165
 20
127.874985
 30
0.0
 11
81.750165
 21
124.875019
 31
0.0
  0
LINE
  5
139
100
AcDbEntity
  8
Layer_1
 62
7
100
AcDbLine
 10
81.750165
 20
124.875019
 30
0.0
 11
74.750292
 21
124.875019
 31
0.0
  0
LINE
  5
13a
100
AcDbEntity
  8
Layer_1
 62
7
100
AcDbLine
 10
74.750292
 20
124.875019
 30
0.0
 11
74.750292
 21
127.874985
 31
0.0
  0
LINE
  5
13b
100
AcDbEntity
  8
Layer_1
 62
7
100
AcDbLine
 10
74.750292
 20
127.874985
 30
0.0
 11
64.750143
 21
127.874985
 31
0.0
  0
LINE
  5
13c
100
AcDbEntity
  8
Layer_1
 62
7
100
AcDbLine
 10
64.750143
 20
127.874985
 30
0.0
 11
64.750143
 21
124.875019
 31
0.0
  0
LINE
  5
13d
100
AcDbEntity
  8
Layer_1
 62
7
100
AcDbLine
 10
64.750143
 20
124.875019
 30
0.0
 11
3.249970
 21
124.875019
 31
0.0
  0
LINE
  5
13e
100
AcDbEntity
  8
Layer_1
 62
7
100
AcDbLine
 10
3.249970
 20
124.875019
 30
0.0
 11
3.249970
 21
112.974986
 31
0.0
  0
LINE
  5
13f
100
AcDbEntity
  8
Layer_1
 62
7
100
AcDbLine
 10
3.249970
 20
112.974986
 30
0.0
 11
0.249984
 21
112.974986
 31
0.0
  0
LINE
  5
140
100
AcDbEntity
  8
Layer_1
 62
7
100
AcDbLine
 10
0.249984
 20
112.974986
 30
0.0
 11
0.249984
 21
102.975402
 31
0.0
  0
LINE
  5
141
100
AcDbEntity
  8
Layer_1
 62
7
100
AcDbLine
 10
0.249984
 20
102.975402
 30
0.0
 11
3.199991
 21
102.975402
 31
0.0
  0
LINE
  5
142
100
AcDbEntity
  8
Layer_1
 62
7
100
AcDbLine
 10
3.199991
 20
102.975402
 30
0.0
 11
3.199991
 21
100.975039
 31
0.0
  0
LINE
  5
143
100
AcDbEntity
  8
Layer_1
 62
7
100
AcDbLine
 10
3.199991
 20
100.975039
 30
0.0
 11
7.250131
 21
100.975039
 31
0.0
  0
LINE
  5
144
100
AcDbEntity
  8
Layer_1
 62
7
100
AcDbLine
 10
7.250131
 20
100.975039
 30
0.0
 11
7.250131
 21
101.287572
 31
0.0
  0
LINE
  5
145
100
AcDbEntity
  8
Layer_1
 62
7
100
AcDbLine
 10
7.250131
 20
101.287572
 30
0.0
 11
7.250131
 21
101.975488
 31
0.0
  0
SPLINE
  5
146
100
AcDbEntity
  8
Layer_1
 62
7
100
AcDbSpline
 70
8
 71
3
 72
8
 73
4
 74
0
 40
0
 40
0
 40
0
 40
0
 40
1
 40
1
 40
1
 40
1
 10
7.250131
 20
101.975488
 30
0.0
 10
6.568028
 20
102.339724
 30
0.0
 10
7.550415
 20
103.124528
 30
0.0
 10
7.750088
 20
102.225198
 30
0.0
  0
LINE
  5
147
100
AcDbEntity
  8
Layer_1
 62
7
100
AcDbLine
 10
7.750088
 20
102.225198
 30
0.0
 11
8.749973
 21
102.225198
 31
0.0
  0
LINE
  5
148
100
AcDbEntity
  8
Layer_1
 62
7
100
AcDbLine
 10
8.749973
 20
102.225198
 30
0.0
 11
9.749886
 21
102.225198
 31
0.0
  0
LINE
  5
149
100
AcDbEntity
  8
Layer_1
 62
7
100
AcDbLine
 10
9.749886
 20
102.225198
 30
0.0
 11
10.250379
 21
102.225198
 31
0.0
  0
LINE
  5
14a
100
AcDbEntity
  8
Layer_1
 62
7
100
AcDbLine
 10
10.250379
 20
102.225198
 30
0.0
 11
10.250379
 21
100.975039
 31
0.0
  0
LINE
  5
14b
100
AcDbEntity
  8
Layer_1
 62
7
100
AcDbLine
 10
10.250379
 20
100.975039
 30
0.0
 11
13.750047
 21
100.975039
 31
0.0
  0
LINE
  5
14c
100
AcDbEntity
  8
Layer_1
 62
7
100
AcDbLine
 10
13.750047
 20
100.975039
 30
0.0
 11
13.750047
 21
97.975327
 31
0.0
  0
LINE
  5
14d
100
AcDbEntity
  8
Layer_1
 62
7
100
AcDbLine
 10
13.750047
 20
97.975327
 30
0.0
 11
10.250379
 21
97.975327
 31
0.0
  0
LINE
  5
14e
100
AcDbEntity
  8
Layer_1
 62
7
100
AcDbLine
 10
10.250379
 20
97.975327
 30
0.0
 11
10.250379
 21
96.725167
 31
0.0
  0
LINE
  5
14f
100
AcDbEntity
  8
Layer_1
 62
7
100
AcDbLine
 10
10.250379
 20
96.725167
 30
0.0
 11
7.750088
 21
96.725167
 31
0.0
  0
SPLINE
  5
150
100
AcDbEntity
  8
Layer_1
 62
7
100
AcDbSpline
 70
8
 71
3
 72
8
 73
4
 74
0
 40
0
 40
0
 40
0
 40
0
 40
1
 40
1
 40
1
 40
1
 10
7.750088
 20
96.725167
 30
0.0
 10
7.568675
 20
95.834925
 30
0.0
 10
6.607821
 20
96.647754
 30
0.0
 10
7.250131
 20
96.975414
 30
0.0
  0
LINE
  5
151
100
AcDbEntity
  8
Layer_1
 62
7
100
AcDbLine
 10
7.250131
 20
96.975414
 30
0.0
 11
7.250131
 21
97.975327
 31
0.0
  0
LINE
  5
152
100
AcDbEntity
  8
Layer_1
 62
7
100
AcDbLine
 10
7.250131
 20
97.975327
 30
0.0
 11
3.199991
 21
97.975327
 31
0.0
  0
LINE
  5
153
100
AcDbEntity
  8
Layer_1
 62
7
100
AcDbLine
 10
3.199991
 20
97.975327
 30
0.0
 11
3.199991
 21
95.975528
 31
0.0
  0
LINE
  5
154
100
AcDbEntity
  8
Layer_1
 62
7
100
AcDbLine
 10
3.199991
 20
95.975528
 30
0.0
 11
0.249984
 21
95.975528
 31
0.0
  0
LINE
  5
155
100
AcDbEntity
  8
Layer_1
 62
7
100
AcDbLine
 10
0.249984
 20
95.975528
 30
0.0
 11
0.249984
 21
85.975379
 31
0.0
  0
LINE
  5
156
100
AcDbEntity
  8
Layer_1
 62
7
100
AcDbLine
 10
0.249984
 20
85.975379
 30
0.0
 11
3.249970
 21
85.975379
 31
0.0
  0
LINE
  5
157
100
AcDbEntity
  8
Layer_1
 62
7
100
AcDbLine
 10
3.249970
 20
85.975379
 30
0.0
 11
3.249970
 21
37.519686
 31
0.0
  0
LINE
  5
158
100
AcDbEntity
  8
Layer_1
 62
7
100
AcDbLine
 10
3.249970
 20
37.519686
 30
0.0
 11
0.249984
 21
37.519686
 31
0.0
  0
LINE
  5
159
100
AcDbEntity
  8
Layer_1
 62
7
100
AcDbLine
 10
0.249984
 20
37.519686
 30
0.0
 11
0.249984
 21
27.519537
 31
0.0
  0
LINE
  5
15a
100
AcDbEntity
  8
Layer_1
 62
7
100
AcDbLine
 10
0.249984
 20
27.519537
 30
0.0
 11
3.199991
 21
27.519537
 31
0.0
  0
LINE
  5
15b
100
AcDbEntity
  8
Layer_1
 62
7
100
AcDbLine
 10
3.199991
 20
27.519537
 30
0.0
 11
3.199991
 21
25.519738
 31
0.0
  0
LINE
  5
15c
100
AcDbEntity
  8
Layer_1
 62
7
100
AcDbLine
 10
3.199991
 20
25.519738
 30
0.0
 11
7.250131
 21
25.519738
 31
0.0
  0
LINE
  5
15d
100
AcDbEntity
  8
Layer_1
 62
7
100
AcDbLine
 10
7.250131
 20
25.519738
 30
0.0
 11
7.250131
 21
25.832271
 31
0.0
  0
LINE
  5
15e
100
AcDbEntity
  8
Layer_1
 62
7
100
AcDbLine
 10
7.250131
 20
25.832271
 30
0.0
 11
7.250131
 21
26.519624
 31
0.0
  0
SPLINE
  5
15f
100
AcDbEntity
  8
Layer_1
 62
7
100
AcDbSpline
 70
8
 71
3
 72
8
 73
4
 74
0
 40
0
 40
0
 40
0
 40
0
 40
1
 40
1
 40
1
 40
1
 10
7.250131
 20
26.519624
 30
0.0
 10
6.568028
 20
26.883860
 30
0.0
 10
7.550415
 20
27.669199
 30
0.0
 10
7.750088
 20
26.769898
 30
0.0
  0
LINE
  5
160
100
AcDbEntity
  8
Layer_1
 62
7
100
AcDbLine
 10
7.750088
 20
26.769898
 30
0.0
 11
8.749973
 21
26.769898
 31
0.0
  0
LINE
  5
161
100
AcDbEntity
  8
Layer_1
 62
7
100
AcDbLine
 10
8.749973
 20
26.769898
 30
0.0
 11
9.749886
 21
26.769898
 31
0.0
  0
LINE
  5
162
100
AcDbEntity
  8
Layer_1
 62
7
100
AcDbLine
 10
9.749886
 20
26.769898
 30
0.0
 11
10.250379
 21
26.769898
 31
0.0
  0
LINE
  5
163
100
AcDbEntity
  8
Layer_1
 62
7
100
AcDbLine
 10
10.250379
 20
26.769898
 30
0.0
 11
10.250379
 21
25.519738
 31
0.0
  0
LINE
  5
164
100
AcDbEntity
  8
Layer_1
 62
7
100
AcDbLine
 10
10.250379
 20
25.519738
 30
0.0
 11
13.750047
 21
25.519738
 31
0.0
  0
LINE
  5
165
100
AcDbEntity
  8
Layer_1
 62
7
100
AcDbLine
 10
13.750047
 20
25.519738
 30
0.0
 11
13.750047
 21
22.519462
 31
0.0
  0
LINE
  5
166
100
AcDbEntity
  8
Layer_1
 62
7
100
AcDbLine
 10
13.750047
 20
22.519462
 30
0.0
 11
10.250379
 21
22.519462
 31
0.0
  0
LINE
  5
167
100
AcDbEntity
  8
Layer_1
 62
7
100
AcDbLine
 10
10.250379
 20
22.519462
 30
0.0
 11
10.250379
 21
21.269867
 31
0.0
  0
LINE
  5
168
100
AcDbEntity
  8
Layer_1
 62
7
100
AcDbLine
 10
10.250379
 20
21.269867
 30
0.0
 11
7.750088
 21
21.269867
 31
0.0
  0
SPLINE
  5
169
100
AcDbEntity
  8
Layer_1
 62
7
100
AcDbSpline
 70
8
 71
3
 72
8
 73
4
 74
0
 40
0
 40
0
 40
0
 40
0
 40
1
 40
1
 40
1
 40
1
 10
7.750088
 20
21.269867
 30
0.0
 10
7.568675
 20
20.379625
 30
0.0
 10
6.607821
 20
21.191889
 30
0.0
 10
7.250131
 20
21.519577
 30
0.0
  0
LINE
  5
16a
100
AcDbEntity
  8
Layer_1
 62
7
100
AcDbLine
 10
7.250131
 20
21.519577
 30
0.0
 11
7.250131
 21
22.519462
 31
0.0
  0
LINE
  5
16b
100
AcDbEntity
  8
Layer_1
 62
7
100
AcDbLine
 10
7.250131
 20
22.519462
 30
0.0
 11
3.199991
 21
22.519462
 31
0.0
  0
LINE
  5
16c
100
AcDbEntity
  8
Layer_1
 62
7
100
AcDbLine
 10
3.199991
 20
22.519462
 30
0.0
 11
3.199991
 21
20.519664
 31
0.0
  0
LINE
  5
16d
100
AcDbEntity
  8
Layer_1
 62
7
100
AcDbLine
 10
3.199991
 20
20.519664
 30
0.0
 11
0.249984
 21
20.519664
 31
0.0
  0
LINE
  5
16e
100
AcDbEntity
  8
Layer_1
 62
7
100
AcDbLine
 10
0.249984
 20
20.519664
 30
0.0
 11
0.249984
 21
10.519514
 31
0.0
  0
LINE
  5
16f
100
AcDbEntity
  8
Layer_1
 62
7
100
AcDbLine
 10
0.249984
 20
10.519514
 30
0.0
 11
3.249970
 21
10.519514
 31
0.0
  0
LINE
  5
170
100
AcDbEntity
  8
Layer_1
 62
7
100
AcDbLine
 10
3.249970
 20
10.519514
 30
0.0
 11
3.249970
 21
-0.880759
 31
0.0
  0
LINE
  5
171
100
AcDbEntity
  8
Layer_1
 62
7
100
AcDbLine
 10
3.249970
 20
-0.880759
 30
0.0
 11
64.750143
 21
-0.880759
 31
0.0
  0
LINE
  5
172
100
AcDbEntity
  8
Layer_1
 62
7
100
AcDbLine
 10
64.750143
 20
-0.880759
 30
0.0
 11
64.750143
 21
-3.881233
 31
0.0
  0
LINE
  5
173
100
AcDbEntity
  8
Layer_1
 62
7
100
AcDbLine
 10
64.750143
 20
-3.881233
 30
0.0
 11
74.750292
 21
-3.881233
 31
0.0
  0
LINE
  5
174
100
AcDbEntity
  8
Layer_1
 62
7
100
AcDbLine
 10
74.750292
 20
-3.881233
 30
0.0
 11
74.750292
 21
-0.880759
 31
0.0
  0
LINE
  5
175
100
AcDbEntity
  8
Layer_1
 62
7
100
AcDbLine
 10
74.750292
 20
-0.880759
 30
0.0
 11
81.750165
 21
-0.880759
 31
0.0
  0
LINE
  5
176
100
AcDbEntity
  8
Layer_1
 62
7
100
AcDbLine
 10
81.750165
 20
-0.880759
 30
0.0
 11
81.750165
 21
-3.881233
 31
0.0
  0
LINE
  5
177
100
AcDbEntity
  8
Layer_1
 62
7
100
AcDbLine
 10
81.750165
 20
-3.881233
 30
0.0
 11
91.750309
 21
-3.881233
 31
0.0
  0
SPLINE
  5
178
100
AcDbEntity
  8
Layer_1
 62
1
100
AcDbSpline
 70
8
 71
3
 72
8
 73
4
 74
0
 40
0
 40
0
 40
0
 40
0
 40
1
 40
1
 40
1
 40
1
 10
145.593006
 20
174.313362
 30
0.0
 10
145.593007
 20
175.169069
 30
0.0
 10
146.286696
 20
175.862756
 30
0.0
 10
147.142403
 20
175.862756
 30
0.0
  0
SPLINE
  5
179
100
AcDbEntity
  8
Layer_1
 62
1
100
AcDbSpline
 70
8
 71
3
 72
8
 73
4
 74
0
 40
0
 40
0
 40
0
 40
0
 40
1
 40
1
 40
1
 40
1
 10
147.142403
 20
175.862756
 30
0.0
 10
147.998111
 20
175.862756
 30
0.0
 10
148.691799
 20
175.169069
 30
0.0
 10
148.691800
 20
174.313362
 30
0.0
  0
SPLINE
  5
17a
100
AcDbEntity
  8
Layer_1
 62
1
100
AcDbSpline
 70
8
 71
3
 72
8
 73
4
 74
0
 40
0
 40
0
 40
0
 40
0
 40
1
 40
1
 40
1
 40
1
 10
148.691800
 20
174.313362
 30
0.0
 10
148.691801
 20
173.902436
 30
0.0
 10
148.528561
 20
173.508341
 30
0.0
 10
148.237993
 20
173.217772
 30
0.0
  0
SPLINE
  5
17b
100
AcDbEntity
  8
Layer_1
 62
1
100
AcDbSpline
 70
8
 71
3
 72
8
 73
4
 74
0
 40
0
 40
0
 40
0
 40
0
 40
1
 40
1
 40
1
 40
1
 10
148.237993
 20
173.217772
 30
0.0
 10
147.947424
 20
172.927204
 30
0.0
 10
147.553329
 20
172.763964
 30
0.0
 10
147.142403
 20
172.763965
 30
0.0
  0
SPLINE
  5
17c
100
AcDbEntity
  8
Layer_1
 62
1
100
AcDbSpline
 70
8
 71
3
 72
8
 73
4
 74
0
 40
0
 40
0
 40
0
 40
0
 40
1
 40
1
 40
1
 40
1
 10
147.142403
 20
172.763965
 30
0.0
 10
146.731477
 20
172.763964
 30
0.0
 10
146.337382
 20
172.927204
 30
0.0
 10
146.046814
 20
173.217772
 30
0.0
  0
SPLINE
  5
17d
100
AcDbEntity
  8
Layer_1
 62
1
100
AcDbSpline
 70
8
 71
3
 72
8
 73
4
 74
0
 40
0
 40
0
 40
0
 40
0
 40
1
 40
1
 40
1
 40
1
 10
146.046814
 20
173.217772
 30
0.0
 10
145.756245
 20
173.508341
 30
0.0
 10
145.593006
 20
173.902436
 30
0.0
 10
145.593006
 20
174.313362
 30
0.0
  0
LINE
  5
17e
100
AcDbEntity
  8
Layer_1
 62
1
100
AcDbLine
 10
145.593006
 20
174.313362
 30
0.0
 11
145.593006
 21
174.313362
 31
0.0
  0
SPLINE
  5
17f
100
AcDbEntity
  8
Layer_1
 62
1
100
AcDbSpline
 70
8
 71
3
 72
8
 73
4
 74
0
 40
0
 40
0
 40
0
 40
0
 40
1
 40
1
 40
1
 40
1
 10
57.593010
 20
174.313362
 30
0.0
 10
57.593011
 20
175.169069
 30
0.0
 10
58.286700
 20
175.862756
 30
0.0
 10
59.142407
 20
175.862756
 30
0.0
  0
SPLINE
  5
180
100
AcDbEntity
  8
Layer_1
 62
1
100
AcDbSpline
 70
8
 71
3
 72
8
 73
4
 74
0
 40
0
 40
0
 40
0
 40
0
 40
1
 40
1
 40
1
 40
1
 10
59.142407
 20
175.862756
 30
0.0
 10
59.998115
 20
175.862756
 30
0.0
 10
60.691803
 20
175.169069
 30
0.0
 10
60.691804
 20
174.313362
 30
0.0
  0
SPLINE
  5
181
100
AcDbEntity
  8
Layer_1
 62
1
100
AcDbSpline
 70
8
 71
3
 72
8
 73
4
 74
0
 40
0
 40
0
 40
0
 40
0
 40
1
 40
1
 40
1
 40
1
 10
60.691804
 20
174.313362
 30
0.0
 10
60.691804
 20
173.902436
 30
0.0
 10
60.528565
 20
173.508341
 30
0.0
 10
60.237996
 20
173.217772
 30
0.0
  0
SPLINE
  5
182
100
AcDbEntity
  8
Layer_1
 62
1
100
AcDbSpline
 70
8
 71
3
 72
8
 73
4
 74
0
 40
0
 40
0
 40
0
 40
0
 40
1
 40
1
 40
1
 40
1
 10
60.237996
 20
173.217772
 30
0.0
 10
59.947428
 20
172.927204
 30
0.0
 10
59.553333
 20
172.763964
 30
0.0
 10
59.142407
 20
172.763965
 30
0.0
  0
SPLINE
  5
183
100
AcDbEntity
  8
Layer_1
 62
1
100
AcDbSpline
 70
8
 71
3
 72
8
 73
4
 74
0
 40
0
 40
0
 40
0
 40
0
 40
1
 40
1
 40
1
 40
1
 10
59.142407
 20
172.763965
 30
0.0
 10
58.731481
 20
172.763964
 30
0.0
 10
58.337386
 20
172.927204
 30
0.0
 10
58.046818
 20
173.217772
 30
0.0
  0
SPLINE
  5
184
100
AcDbEntity
  8
Layer_1
 62
1
100
AcDbSpline
 70
8
 71
3
 72
8
 73
4
 74
0
 40
0
 40
0
 40
0
 40
0
 40
1
 40
1
 40
1
 40
1
 10
58.046818
 20
173.217772
 30
0.0
 10
57.756249
 20
173.508341
 30
0.0
 10
57.593010
 20
173.902436
 30
0.0
 10
57.593010
 20
174.313362
 30
0.0
  0
LINE
  5
185
100
AcDbEntity
  8
Layer_1
 62
1
100
AcDbLine
 10
57.593010
 20
174.313362
 30
0.0
 11
57.593010
 21
174.313362
 31
0.0
  0
SPLINE
  5
186
100
AcDbEntity
  8
Layer_1
 62
1
100
AcDbSpline
 70
8
 71
3
 72
8
 73
4
 74
0
 40
0
 40
0
 40
0
 40
0
 40
1
 40
1
 40
1
 40
1
 10
101.593012
 20
228.313355
 30
0.0
 10
101.593012
 20
228.724281
 30
0.0
 10
101.756252
 20
229.118376
 30
0.0
 10
102.046820
 20
229.408945
 30
0.0
  0
SPLINE
  5
187
100
AcDbEntity
  8
Layer_1
 62
1
100
AcDbSpline
 70
8
 71
3
 72
8
 73
4
 74
0
 40
0
 40
0
 40
0
 40
0
 40
1
 40
1
 40
1
 40
1
 10
102.046820
 20
229.408945
 30
0.0
 10
102.337388
 20
229.699513
 30
0.0
 10
102.731484
 20
229.862753
 30
0.0
 10
103.142409
 20
229.862753
 30
0.0
  0
SPLINE
  5
188
100
AcDbEntity
  8
Layer_1
 62
1
100
AcDbSpline
 70
8
 71
3
 72
8
 73
4
 74
0
 40
0
 40
0
 40
0
 40
0
 40
1
 40
1
 40
1
 40
1
 10
103.142409
 20
229.862753
 30
0.0
 10
103.553335
 20
229.862753
 30
0.0
 10
103.947430
 20
229.699513
 30
0.0
 10
104.237999
 20
229.408945
 30
0.0
  0
SPLINE
  5
189
100
AcDbEntity
  8
Layer_1
 62
1
100
AcDbSpline
 70
8
 71
3
 72
8
 73
4
 74
0
 40
0
 40
0
 40
0
 40
0
 40
1
 40
1
 40
1
 40
1
 10
104.237999
 20
229.408945
 30
0.0
 10
104.528567
 20
229.118376
 30
0.0
 10
104.691807
 20
228.724281
 30
0.0
 10
104.691807
 20
228.313355
 30
0.0
  0
SPLINE
  5
18a
100
AcDbEntity
  8
Layer_1
 62
1
100
AcDbSpline
 70
8
 71
3
 72
8
 73
4
 74
0
 40
0
 40
0
 40
0
 40
0
 40
1
 40
1
 40
1
 40
1
 10
104.691807
 20
228.313355
 30
0.0
 10
104.691807
 20
227.902430
 30
0.0
 10
104.528567
 20
227.508334
 30
0.0
 10
104.237999
 20
227.217766
 30
0.0
  0
SPLINE
  5
18b
100
AcDbEntity
  8
Layer_1
 62
1
100
AcDbSpline
 70
8
 71
3
 72
8
 73
4
 74
0
 40
0
 40
0
 40
0
 40
0
 40
1
 40
1
 40
1
 40
1
 10
104.237999
 20
227.217766
 30
0.0
 10
103.947430
 20
226.927198
 30
0.0
 10
103.553335
 20
226.763958
 30
0.0
 10
103.142409
 20
226.763958
 30
0.0
  0
SPLINE
  5
18c
100
AcDbEntity
  8
Layer_1
 62
1
100
AcDbSpline
 70
8
 71
3
 72
8
 73
4
 74
0
 40
0
 40
0
 40
0
 40
0
 40
1
 40
1
 40
1
 40
1
 10
103.142409
 20
226.763958
 30
0.0
 10
102.731484
 20
226.763958
 30
0.0
 10
102.337388
 20
226.927198
 30
0.0
 10
102.046820
 20
227.217766
 30
0.0
  0
SPLINE
  5
18d
100
AcDbEntity
  8
Layer_1
 62
1
100
AcDbSpline
 70
8
 71
3
 72
8
 73
4
 74
0
 40
0
 40
0
 40
0
 40
0
 40
1
 40
1
 40
1
 40
1
 10
102.046820
 20
227.217766
 30
0.0
 10
101.756252
 20
227.508334
 30
0.0
 10
101.593012
 20
227.902430
 30
0.0
 10
101.593012
 20
228.313355
 30
0.0
  0
LINE
  5
18e
100
AcDbEntity
  8
Layer_1
 62
1
100
AcDbLine
 10
101.593012
 20
228.313355
 30
0.0
 11
101.593012
 21
228.313355
 31
0.0
  0
LINE
  5
18f
100
AcDbEntity
  8
Layer_1
 62
1
100
AcDbLine
 10
132.017033
 20
174.260753
 30
0.0
 11
127.038605
 21
174.260753
 31
0.0
  0
LINE
  5
190
100
AcDbEntity
  8
Layer_1
 62
1
100
AcDbLine
 10
127.038605
 20
174.260753
 30
0.0
 11
127.038605
 21
219.165955
 31
0.0
  0
LINE
  5
191
100
AcDbEntity
  8
Layer_1
 62
1
100
AcDbLine
 10
127.038605
 20
219.165955
 30
0.0
 11
132.017033
 21
219.165955
 31
0.0
  0
LINE
  5
192
100
AcDbEntity
  8
Layer_1
 62
1
100
AcDbLine
 10
132.017033
 20
219.165955
 30
0.0
 11
132.017033
 21
174.260753
 31
0.0
  0
LINE
  5
193
100
AcDbEntity
  8
Layer_1
 62
1
100
AcDbLine
 10
123.266237
 20
174.260753
 30
0.0
 11
118.287808
 21
174.260753
 31
0.0
  0
LINE
  5
194
100
AcDbEntity
  8
Layer_1
 62
1
100
AcDbLine
 10
118.287808
 20
174.260753
 30
0.0
 11
118.287808
 21
219.165955
 31
0.0
  0
LINE
  5
195
100
AcDbEntity
  8
Layer_1
 62
1
100
AcDbLine
 10
118.287808
 20
219.165955
 30
0.0
 11
123.266237
 21
219.165955
 31
0.0
  0
LINE
  5
196
100
AcDbEntity
  8
Layer_1
 62
1
100
AcDbLine
 10
123.266237
 20
219.165955
 30
0.0
 11
123.266237
 21
174.260753
 31
0.0
  0
LINE
  5
197
100
AcDbEntity
  8
Layer_1
 62
1
100
AcDbLine
 10
114.515446
 20
174.260753
 30
0.0
 11
109.537017
 21
174.260753
 31
0.0
  0
LINE
  5
198
100
AcDbEntity
  8
Layer_1
 62
1
100
AcDbLine
 10
109.537017
 20
174.260753
 30
0.0
 11
109.537017
 21
219.165955
 31
0.0
  0
LINE
  5
199
100
AcDbEntity
  8
Layer_1
 62
1
100
AcDbLine
 10
109.537017
 20
219.165955
 30
0.0
 11
114.515446
 21
219.165955
 31
0.0
  0
LINE
  5
19a
100
AcDbEntity
  8
Layer_1
 62
1
100
AcDbLine
 10
114.515446
 20
219.165955
 30
0.0
 11
114.515446
 21
174.260753
 31
0.0
  0
LINE
  5
19b
100
AcDbEntity
  8
Layer_1
 62
1
100
AcDbLine
 10
105.742630
 20
174.260753
 30
0.0
 11
100.764202
 21
174.260753
 31
0.0
  0
LINE
  5
19c
100
AcDbEntity
  8
Layer_1
 62
1
100
AcDbLine
 10
100.764202
 20
174.260753
 30
0.0
 11
100.764202
 21
219.165955
 31
0.0
  0
LINE
  5
19d
100
AcDbEntity
  8
Layer_1
 62
1
100
AcDbLine
 10
100.764202
 20
219.165955
 30
0.0
 11
105.742630
 21
219.165955
 31
0.0
  0
LINE
  5
19e
100
AcDbEntity
  8
Layer_1
 62
1
100
AcDbLine
 10
105.742630
 20
219.165955
 30
0.0
 11
105.742630
 21
174.260753
 31
0.0
  0
LINE
  5
19f
100
AcDbEntity
  8
Layer_1
 62
1
100
AcDbLine
 10
97.013869
 20
174.260753
 30
0.0
 11
92.035441
 21
174.260753
 31
0.0
  0
LINE
  5
1a0
100
AcDbEntity
  8
Layer_1
 62
1
100
AcDbLine
 10
92.035441
 20
174.260753
 30
0.0
 11
92.035441
 21
219.165955
 31
0.0
  0
LINE
  5
1a1
100
AcDbEntity
  8
Layer_1
 62
1
100
AcDbLine
 10
92.035441
 20
219.165955
 30
0.0
 11
97.013869
 21
219.165955
 31
0.0
  0
LINE
  5
1a2
100
AcDbEntity
  8
Layer_1
 62
1
100
AcDbLine
 10
97.013869
 20
219.165955
 30
0.0
 11
97.013869
 21
174.260753
 31
0.0
  0
LINE
  5
1a3
100
AcDbEntity
  8
Layer_1
 62
1
100
AcDbLine
 10
88.263075
 20
174.260753
 30
0.0
 11
83.284650
 21
174.260753
 31
0.0
  0
LINE
  5
1a4
100
AcDbEntity
  8
Layer_1
 62
1
100
AcDbLine
 10
83.284650
 20
174.260753
 30
0.0
 11
83.284650
 21
219.165955
 31
0.0
  0
LINE
  5
1a5
100
AcDbEntity
  8
Layer_1
 62
1
100
AcDbLine
 10
83.284650
 20
219.165955
 30
0.0
 11
88.263075
 21
219.165955
 31
0.0
  0
LINE
  5
1a6
100
AcDbEntity
  8
Layer_1
 62
1
100
AcDbLine
 10
88.263075
 20
219.165955
 30
0.0
 11
88.263075
 21
174.260753
 31
0.0
  0
LINE
  5
1a7
100
AcDbEntity
  8
Layer_1
 62
1
100
AcDbLine
 10
79.512284
 20
174.260753
 30
0.0
 11
74.533856
 21
174.260753
 31
0.0
  0
LINE
  5
1a8
100
AcDbEntity
  8
Layer_1
 62
1
100
AcDbLine
 10
74.533856
 20
174.260753
 30
0.0
 11
74.533856
 21
219.165955
 31
0.0
  0
LINE
  5
1a9
100
AcDbEntity
  8
Layer_1
 62
1
100
AcDbLine
 10
74.533856
 20
219.165955
 30
0.0
 11
79.512284
 21
219.165955
 31
0.0
  0
LINE
  5
1aa
100
AcDbEntity
  8
Layer_1
 62
1
100
AcDbLine
 10
79.512284
 20
219.165955
 30
0.0
 11
79.512284
 21
174.260753
 31
0.0
  0
LINE
  5
1ab
100
AcDbEntity
  8
Layer_1
 62
1
100
AcDbLine
 10
115.104091
 20
167.854466
 30
0.0
 11
100.242407
 21
167.854466
 31
0.0
  0
LINE
  5
1ac
100
AcDbEntity
  8
Layer_1
 62
1
100
AcDbLine
 10
100.242407
 20
167.854466
 30
0.0
 11
100.242407
 21
172.254466
 31
0.0
  0
LINE
  5
1ad
100
AcDbEntity
  8
Layer_1
 62
1
100
AcDbLine
 10
100.242407
 20
172.254466
 30
0.0
 11
115.104091
 21
172.254466
 31
0.0
  0
LINE
  5
1ae
100
AcDbEntity
  8
Layer_1
 62
1
100
AcDbLine
 10
115.104091
 20
172.254466
 30
0.0
 11
115.104091
 21
167.854466
 31
0.0
  0
LINE
  5
1af
100
AcDbEntity
  8
Layer_1
 62
1
100
AcDbLine
 10
33.894471
 20
192.804461
 30
0.0
 11
32.605898
 21
192.804461
 31
0.0
  0
SPLINE
  5
1b0
100
AcDbEntity
  8
Layer_1
 62
1
100
AcDbSpline
 70
8
 71
3
 72
8
 73
4
 74
0
 40
0
 40
0
 40
0
 40
0
 40
1
 40
1
 40
1
 40
1
 10
32.605898
 20
192.804461
 30
0.0
 10
32.547331
 20
192.804461
 30
0.0
 10
32.500183
 20
192.851621
 30
0.0
 10
32.500183
 20
192.910182
 30
0.0
  0
LINE
  5
1b1
100
AcDbEntity
  8
Layer_1
 62
1
100
AcDbLine
 10
32.500183
 20
192.910182
 30
0.0
 11
32.500183
 21
196.698733
 31
0.0
  0
SPLINE
  5
1b2
100
AcDbEntity
  8
Layer_1
 62
1
100
AcDbSpline
 70
8
 71
3
 72
8
 73
4
 74
0
 40
0
 40
0
 40
0
 40
0
 40
1
 40
1
 40
1
 40
1
 10
32.500183
 20
196.698733
 30
0.0
 10
32.500183
 20
196.757322
 30
0.0
 10
32.547331
 20
196.804453
 30
0.0
 10
32.605898
 20
196.804453
 30
0.0
  0
LINE
  5
1b3
100
AcDbEntity
  8
Layer_1
 62
1
100
AcDbLine
 10
32.605898
 20
196.804453
 30
0.0
 11
33.894471
 21
196.804453
 31
0.0
  0
SPLINE
  5
1b4
100
AcDbEntity
  8
Layer_1
 62
1
100
AcDbSpline
 70
8
 71
3
 72
8
 73
4
 74
0
 40
0
 40
0
 40
0
 40
0
 40
1
 40
1
 40
1
 40
1
 10
33.894471
 20
196.804453
 30
0.0
 10
33.953035
 20
196.804453
 30
0.0
 10
34.000183
 20
196.757322
 30
0.0
 10
34.000183
 20
196.698733
 30
0.0
  0
LINE
  5
1b5
100
AcDbEntity
  8
Layer_1
 62
1
100
AcDbLine
 10
34.000183
 20
196.698733
 30
0.0
 11
34.000183
 21
192.910182
 31
0.0
  0
SPLINE
  5
1b6
100
AcDbEntity
  8
Layer_1
 62
1
100
AcDbSpline
 70
8
 71
3
 72
8
 73
4
 74
0
 40
0
 40
0
 40
0
 40
0
 40
1
 40
1
 40
1
 40
1
 10
34.000183
 20
192.910182
 30
0.0
 10
34.000183
 20
192.851621
 30
0.0
 10
33.953035
 20
192.804461
 30
0.0
 10
33.894471
 20
192.804461
 30
0.0
  0
LINE
  5
1b7
100
AcDbEntity
  8
Layer_1
 62
1
100
AcDbLine
 10
33.894471
 20
192.804461
 30
0.0
 11
33.894471
 21
192.804461
 31
0.0
  0
LINE
  5
1b8
100
AcDbEntity
  8
Layer_1
 62
1
100
AcDbLine
 10
27.394470
 20
192.804461
 30
0.0
 11
26.105900
 21
192.804461
 31
0.0
  0
SPLINE
  5
1b9
100
AcDbEntity
  8
Layer_1
 62
1
100
AcDbSpline
 70
8
 71
3
 72
8
 73
4
 74
0
 40
0
 40
0
 40
0
 40
0
 40
1
 40
1
 40
1
 40
1
 10
26.105900
 20
192.804461
 30
0.0
 10
26.047333
 20
192.804461
 30
0.0
 10
26.000185
 20
192.851621
 30
0.0
 10
26.000185
 20
192.910182
 30
0.0
  0
LINE
  5
1ba
100
AcDbEntity
  8
Layer_1
 62
1
100
AcDbLine
 10
26.000185
 20
192.910182
 30
0.0
 11
26.000185
 21
196.698733
 31
0.0
  0
SPLINE
  5
1bb
100
AcDbEntity
  8
Layer_1
 62
1
100
AcDbSpline
 70
8
 71
3
 72
8
 73
4
 74
0
 40
0
 40
0
 40
0
 40
0
 40
1
 40
1
 40
1
 40
1
 10
26.000185
 20
196.698733
 30
0.0
 10
26.000185
 20
196.757322
 30
0.0
 10
26.047333
 20
196.804453
 30
0.0
 10
26.105900
 20
196.804453
 30
0.0
  0
LINE
  5
1bc
100
AcDbEntity
  8
Layer_1
 62
1
100
AcDbLine
 10
26.105900
 20
196.804453
 30
0.0
 11
27.394470
 21
196.804453
 31
0.0
  0
SPLINE
  5
1bd
100
AcDbEntity
  8
Layer_1
 62
1
100
AcDbSpline
 70
8
 71
3
 72
8
 73
4
 74
0
 40
0
 40
0
 40
0
 40
0
 40
1
 40
1
 40
1
 40
1
 10
27.394470
 20
196.804453
 30
0.0
 10
27.453037
 20
196.804453
 30
0.0
 10
27.500185
 20
196.757322
 30
0.0
 10
27.500185
 20
196.698733
 30
0.0
  0
LINE
  5
1be
100
AcDbEntity
  8
Layer_1
 62
1
100
AcDbLine
 10
27.500185
 20
196.698733
 30
0.0
 11
27.500185
 21
192.910182
 31
0.0
  0
SPLINE
  5
1bf
100
AcDbEntity
  8
Layer_1
 62
1
100
AcDbSpline
 70
8
 71
3
 72
8
 73
4
 74
0
 40
0
 40
0
 40
0
 40
0
 40
1
 40
1
 40
1
 40
1
 10
27.500185
 20
192.910182
 30
0.0
 10
27.500185
 20
192.851621
 30
0.0
 10
27.453037
 20
192.804461
 30
0.0
 10
27.394470
 20
192.804461
 30
0.0
  0
LINE
  5
1c0
100
AcDbEntity
  8
Layer_1
 62
1
100
AcDbLine
 10
27.394470
 20
192.804461
 30
0.0
 11
27.394470
 21
192.804461
 31
0.0
  0
LINE
  5
1c1
100
AcDbEntity
  8
Layer_1
 62
7
100
AcDbLine
 10
74.750298
 20
127.949003
 30
0.0
 11
74.750298
 21
130.949477
 31
0.0
  0
LINE
  5
1c2
100
AcDbEntity
  8
Layer_1
 62
7
100
AcDbLine
 10
74.750298
 20
130.949477
 30
0.0
 11
81.750174
 21
130.949477
 31
0.0
  0
LINE
  5
1c3
100
AcDbEntity
  8
Layer_1
 62
7
100
AcDbLine
 10
81.750174
 20
130.949477
 30
0.0
 11
81.750174
 21
127.949003
 31
0.0
  0
LINE
  5
1c4
100
AcDbEntity
  8
Layer_1
 62
7
100
AcDbLine
 10
91.750315
 20
127.949003
 30
0.0
 11
91.750315
 21
130.949477
 31
0.0
  0
LINE
  5
1c5
100
AcDbEntity
  8
Layer_1
 62
7
100
AcDbLine
 10
91.750315
 20
130.949477
 30
0.0
 11
153.249952
 21
130.949477
 31
0.0
  0
LINE
  5
1c6
100
AcDbEntity
  8
Layer_1
 62
7
100
AcDbLine
 10
153.249952
 20
130.949477
 30
0.0
 11
153.249952
 21
142.348774
 31
0.0
  0
LINE
  5
1c7
100
AcDbEntity
  8
Layer_1
 62
7
100
AcDbLine
 10
153.249952
 20
142.348774
 30
0.0
 11
156.249988
 21
142.348774
 31
0.0
  0
LINE
  5
1c8
100
AcDbEntity
  8
Layer_1
 62
7
100
AcDbLine
 10
156.249988
 20
142.348774
 30
0.0
 11
156.249988
 21
152.348923
 31
0.0
  0
LINE
  5
1c9
100
AcDbEntity
  8
Layer_1
 62
7
100
AcDbLine
 10
156.249988
 20
152.348923
 30
0.0
 11
153.299993
 21
152.348923
 31
0.0
  0
LINE
  5
1ca
100
AcDbEntity
  8
Layer_1
 62
7
100
AcDbLine
 10
153.299993
 20
152.348923
 30
0.0
 11
153.299993
 21
154.348722
 31
0.0
  0
LINE
  5
1cb
100
AcDbEntity
  8
Layer_1
 62
7
100
AcDbLine
 10
153.299993
 20
154.348722
 30
0.0
 11
149.250327
 21
154.348722
 31
0.0
  0
LINE
  5
1cc
100
AcDbEntity
  8
Layer_1
 62
7
100
AcDbLine
 10
149.250327
 20
154.348722
 30
0.0
 11
149.250327
 21
153.348837
 31
0.0
  0
SPLINE
  5
1cd
100
AcDbEntity
  8
Layer_1
 62
7
100
AcDbSpline
 70
8
 71
3
 72
8
 73
4
 74
0
 40
0
 40
0
 40
0
 40
0
 40
1
 40
1
 40
1
 40
1
 10
149.250327
 20
153.348837
 30
0.0
 10
149.892636
 20
153.021149
 30
0.0
 10
148.931782
 20
152.208885
 30
0.0
 10
148.750370
 20
153.099127
 30
0.0
  0
LINE
  5
1ce
100
AcDbEntity
  8
Layer_1
 62
7
100
AcDbLine
 10
148.750370
 20
153.099127
 30
0.0
 11
146.250079
 21
153.099127
 31
0.0
  0
LINE
  5
1cf
100
AcDbEntity
  8
Layer_1
 62
7
100
AcDbLine
 10
146.250079
 20
153.099127
 30
0.0
 11
146.250079
 21
154.348722
 31
0.0
  0
LINE
  5
1d0
100
AcDbEntity
  8
Layer_1
 62
7
100
AcDbLine
 10
146.250079
 20
154.348722
 30
0.0
 11
142.750410
 21
154.348722
 31
0.0
  0
LINE
  5
1d1
100
AcDbEntity
  8
Layer_1
 62
7
100
AcDbLine
 10
142.750410
 20
154.348722
 30
0.0
 11
142.750410
 21
157.348998
 31
0.0
  0
LINE
  5
1d2
100
AcDbEntity
  8
Layer_1
 62
7
100
AcDbLine
 10
142.750410
 20
157.348998
 30
0.0
 11
146.250079
 21
157.348998
 31
0.0
  0
LINE
  5
1d3
100
AcDbEntity
  8
Layer_1
 62
7
100
AcDbLine
 10
146.250079
 20
157.348998
 30
0.0
 11
146.250079
 21
158.599158
 31
0.0
  0
LINE
  5
1d4
100
AcDbEntity
  8
Layer_1
 62
7
100
AcDbLine
 10
146.250079
 20
158.599158
 30
0.0
 11
146.750007
 21
158.599158
 31
0.0
  0
LINE
  5
1d5
100
AcDbEntity
  8
Layer_1
 62
7
100
AcDbLine
 10
146.750007
 20
158.599158
 30
0.0
 11
147.749920
 21
158.599158
 31
0.0
  0
LINE
  5
1d6
100
AcDbEntity
  8
Layer_1
 62
7
100
AcDbLine
 10
147.749920
 20
158.599158
 30
0.0
 11
148.750370
 21
158.599158
 31
0.0
  0
SPLINE
  5
1d7
100
AcDbEntity
  8
Layer_1
 62
7
100
AcDbSpline
 70
8
 71
3
 72
8
 73
4
 74
0
 40
0
 40
0
 40
0
 40
0
 40
1
 40
1
 40
1
 40
1
 10
148.750370
 20
158.599158
 30
0.0
 10
148.950042
 20
159.498459
 30
0.0
 10
149.932430
 20
158.713119
 30
0.0
 10
149.250327
 20
158.348883
 30
0.0
  0
LINE
  5
1d8
100
AcDbEntity
  8
Layer_1
 62
7
100
AcDbLine
 10
149.250327
 20
158.348883
 30
0.0
 11
149.250327
 21
157.661531
 31
0.0
  0
LINE
  5
1d9
100
AcDbEntity
  8
Layer_1
 62
7
100
AcDbLine
 10
149.250327
 20
157.661531
 30
0.0
 11
149.250327
 21
157.348998
 31
0.0
  0
LINE
  5
1da
100
AcDbEntity
  8
Layer_1
 62
7
100
AcDbLine
 10
149.250327
 20
157.348998
 30
0.0
 11
153.299993
 21
157.348998
 31
0.0
  0
LINE
  5
1db
100
AcDbEntity
  8
Layer_1
 62
7
100
AcDbLine
 10
153.299993
 20
157.348998
 30
0.0
 11
153.299993
 21
159.348797
 31
0.0
  0
LINE
  5
1dc
100
AcDbEntity
  8
Layer_1
 62
7
100
AcDbLine
 10
153.299993
 20
159.348797
 30
0.0
 11
156.249988
 21
159.348797
 31
0.0
  0
LINE
  5
1dd
100
AcDbEntity
  8
Layer_1
 62
7
100
AcDbLine
 10
156.249988
 20
159.348797
 30
0.0
 11
156.249988
 21
169.348946
 31
0.0
  0
LINE
  5
1de
100
AcDbEntity
  8
Layer_1
 62
7
100
AcDbLine
 10
156.249988
 20
169.348946
 30
0.0
 11
153.249952
 21
169.348946
 31
0.0
  0
LINE
  5
1df
100
AcDbEntity
  8
Layer_1
 62
7
100
AcDbLine
 10
153.249952
 20
169.348946
 30
0.0
 11
153.249952
 21
217.804637
 31
0.0
  0
LINE
  5
1e0
100
AcDbEntity
  8
Layer_1
 62
7
100
AcDbLine
 10
153.249952
 20
217.804637
 30
0.0
 11
156.249988
 21
217.804637
 31
0.0
  0
LINE
  5
1e1
100
AcDbEntity
  8
Layer_1
 62
7
100
AcDbLine
 10
156.249988
 20
217.804637
 30
0.0
 11
156.249988
 21
227.804786
 31
0.0
  0
LINE
  5
1e2
100
AcDbEntity
  8
Layer_1
 62
7
100
AcDbLine
 10
156.249988
 20
227.804786
 30
0.0
 11
153.299993
 21
227.804786
 31
0.0
  0
LINE
  5
1e3
100
AcDbEntity
  8
Layer_1
 62
7
100
AcDbLine
 10
153.299993
 20
227.804786
 30
0.0
 11
153.299993
 21
229.804585
 31
0.0
  0
LINE
  5
1e4
100
AcDbEntity
  8
Layer_1
 62
7
100
AcDbLine
 10
153.299993
 20
229.804585
 30
0.0
 11
149.250327
 21
229.804585
 31
0.0
  0
LINE
  5
1e5
100
AcDbEntity
  8
Layer_1
 62
7
100
AcDbLine
 10
149.250327
 20
229.804585
 30
0.0
 11
149.250327
 21
228.804672
 31
0.0
  0
SPLINE
  5
1e6
100
AcDbEntity
  8
Layer_1
 62
7
100
AcDbSpline
 70
8
 71
3
 72
8
 73
4
 74
0
 40
0
 40
0
 40
0
 40
0
 40
1
 40
1
 40
1
 40
1
 10
149.250327
 20
228.804672
 30
0.0
 10
149.892636
 20
228.477012
 30
0.0
 10
148.931782
 20
227.664183
 30
0.0
 10
148.750370
 20
228.554425
 30
0.0
  0
LINE
  5
1e7
100
AcDbEntity
  8
Layer_1
 62
7
100
AcDbLine
 10
148.750370
 20
228.554425
 30
0.0
 11
146.250079
 21
228.554425
 31
0.0
  0
LINE
  5
1e8
100
AcDbEntity
  8
Layer_1
 62
7
100
AcDbLine
 10
146.250079
 20
228.554425
 30
0.0
 11
146.250079
 21
229.804585
 31
0.0
  0
LINE
  5
1e9
100
AcDbEntity
  8
Layer_1
 62
7
100
AcDbLine
 10
146.250079
 20
229.804585
 30
0.0
 11
142.750410
 21
229.804585
 31
0.0
  0
LINE
  5
1ea
100
AcDbEntity
  8
Layer_1
 62
7
100
AcDbLine
 10
142.750410
 20
229.804585
 30
0.0
 11
142.750410
 21
232.804297
 31
0.0
  0
LINE
  5
1eb
100
AcDbEntity
  8
Layer_1
 62
7
100
AcDbLine
 10
142.750410
 20
232.804297
 30
0.0
 11
146.250079
 21
232.804297
 31
0.0
  0
LINE
  5
1ec
100
AcDbEntity
  8
Layer_1
 62
7
100
AcDbLine
 10
146.250079
 20
232.804297
 30
0.0
 11
146.250079
 21
234.054456
 31
0.0
  0
LINE
  5
1ed
100
AcDbEntity
  8
Layer_1
 62
7
100
AcDbLine
 10
146.250079
 20
234.054456
 30
0.0
 11
146.750007
 21
234.054456
 31
0.0
  0
LINE
  5
1ee
100
AcDbEntity
  8
Layer_1
 62
7
100
AcDbLine
 10
146.750007
 20
234.054456
 30
0.0
 11
147.749920
 21
234.054456
 31
0.0
  0
LINE
  5
1ef
100
AcDbEntity
  8
Layer_1
 62
7
100
AcDbLine
 10
147.749920
 20
234.054456
 30
0.0
 11
148.750370
 21
234.054456
 31
0.0
  0
SPLINE
  5
1f0
100
AcDbEntity
  8
Layer_1
 62
7
100
AcDbSpline
 70
8
 71
3
 72
8
 73
4
 74
0
 40
0
 40
0
 40
0
 40
0
 40
1
 40
1
 40
1
 40
1
 10
148.750370
 20
234.054456
 30
0.0
 10
148.950042
 20
234.953786
 30
0.0
 10
149.932430
 20
234.168982
 30
0.0
 10
149.250327
 20
233.804746
 30
0.0
  0
LINE
  5
1f1
100
AcDbEntity
  8
Layer_1
 62
7
100
AcDbLine
 10
149.250327
 20
233.804746
 30
0.0
 11
149.250327
 21
233.116830
 31
0.0
  0
LINE
  5
1f2
100
AcDbEntity
  8
Layer_1
 62
7
100
AcDbLine
 10
149.250327
 20
233.116830
 30
0.0
 11
149.250327
 21
232.804297
 31
0.0
  0
LINE
  5
1f3
100
AcDbEntity
  8
Layer_1
 62
7
100
AcDbLine
 10
149.250327
 20
232.804297
 30
0.0
 11
153.299993
 21
232.804297
 31
0.0
  0
LINE
  5
1f4
100
AcDbEntity
  8
Layer_1
 62
7
100
AcDbLine
 10
153.299993
 20
232.804297
 30
0.0
 11
153.299993
 21
234.804660
 31
0.0
  0
LINE
  5
1f5
100
AcDbEntity
  8
Layer_1
 62
7
100
AcDbLine
 10
153.299993
 20
234.804660
 30
0.0
 11
156.249988
 21
234.804660
 31
0.0
  0
LINE
  5
1f6
100
AcDbEntity
  8
Layer_1
 62
7
100
AcDbLine
 10
156.249988
 20
234.804660
 30
0.0
 11
156.249988
 21
244.804243
 31
0.0
  0
LINE
  5
1f7
100
AcDbEntity
  8
Layer_1
 62
7
100
AcDbLine
 10
156.249988
 20
244.804243
 30
0.0
 11
153.249952
 21
244.804243
 31
0.0
  0
LINE
  5
1f8
100
AcDbEntity
  8
Layer_1
 62
7
100
AcDbLine
 10
153.249952
 20
244.804243
 30
0.0
 11
153.249952
 21
256.704414
 31
0.0
  0
LINE
  5
1f9
100
AcDbEntity
  8
Layer_1
 62
7
100
AcDbLine
 10
153.249952
 20
256.704414
 30
0.0
 11
91.750315
 21
256.704414
 31
0.0
  0
LINE
  5
1fa
100
AcDbEntity
  8
Layer_1
 62
7
100
AcDbLine
 10
91.750315
 20
256.704414
 30
0.0
 11
91.750315
 21
259.704377
 31
0.0
  0
LINE
  5
1fb
100
AcDbEntity
  8
Layer_1
 62
7
100
AcDbLine
 10
91.750315
 20
259.704377
 30
0.0
 11
81.750174
 21
259.704377
 31
0.0
  0
LINE
  5
1fc
100
AcDbEntity
  8
Layer_1
 62
7
100
AcDbLine
 10
81.750174
 20
259.704377
 30
0.0
 11
81.750174
 21
256.704414
 31
0.0
  0
LINE
  5
1fd
100
AcDbEntity
  8
Layer_1
 62
7
100
AcDbLine
 10
81.750174
 20
256.704414
 30
0.0
 11
74.750298
 21
256.704414
 31
0.0
  0
LINE
  5
1fe
100
AcDbEntity
  8
Layer_1
 62
7
100
AcDbLine
 10
74.750298
 20
256.704414
 30
0.0
 11
74.750298
 21
259.704377
 31
0.0
  0
LINE
  5
1ff
100
AcDbEntity
  8
Layer_1
 62
7
100
AcDbLine
 10
74.750298
 20
259.704377
 30
0.0
 11
64.750148
 21
259.704377
 31
0.0
  0
LINE
  5
200
100
AcDbEntity
  8
Layer_1
 62
7
100
AcDbLine
 10
64.750148
 20
259.704377
 30
0.0
 11
64.750148
 21
256.704098
 31
0.0
  0
LINE
  5
201
100
AcDbEntity
  8
Layer_1
 62
7
100
AcDbLine
 10
64.750148
 20
256.704098
 30
0.0
 11
3.249978
 21
256.704098
 31
0.0
  0
LINE
  5
202
100
AcDbEntity
  8
Layer_1
 62
7
100
AcDbLine
 10
3.249978
 20
256.704098
 30
0.0
 11
3.249978
 21
244.804243
 31
0.0
  0
LINE
  5
203
100
AcDbEntity
  8
Layer_1
 62
7
100
AcDbLine
 10
3.249978
 20
244.804243
 30
0.0
 11
0.249992
 21
244.804243
 31
0.0
  0
LINE
  5
204
100
AcDbEntity
  8
Layer_1
 62
7
100
AcDbLine
 10
0.249992
 20
244.804243
 30
0.0
 11
0.249992
 21
234.804660
 31
0.0
  0
LINE
  5
205
100
AcDbEntity
  8
Layer_1
 62
7
100
AcDbLine
 10
0.249992
 20
234.804660
 30
0.0
 11
3.199991
 21
234.804660
 31
0.0
  0
LINE
  5
206
100
AcDbEntity
  8
Layer_1
 62
7
100
AcDbLine
 10
3.199991
 20
234.804660
 30
0.0
 11
3.199991
 21
232.804297
 31
0.0
  0
LINE
  5
207
100
AcDbEntity
  8
Layer_1
 62
7
100
AcDbLine
 10
3.199991
 20
232.804297
 30
0.0
 11
7.250139
 21
232.804297
 31
0.0
  0
LINE
  5
208
100
AcDbEntity
  8
Layer_1
 62
7
100
AcDbLine
 10
7.250139
 20
232.804297
 30
0.0
 11
7.250139
 21
233.116830
 31
0.0
  0
LINE
  5
209
100
AcDbEntity
  8
Layer_1
 62
7
100
AcDbLine
 10
7.250139
 20
233.116830
 30
0.0
 11
7.250139
 21
233.804746
 31
0.0
  0
SPLINE
  5
20a
100
AcDbEntity
  8
Layer_1
 62
7
100
AcDbSpline
 70
8
 71
3
 72
8
 73
4
 74
0
 40
0
 40
0
 40
0
 40
0
 40
1
 40
1
 40
1
 40
1
 10
7.250139
 20
233.804746
 30
0.0
 10
6.568036
 20
234.168982
 30
0.0
 10
7.550424
 20
234.953786
 30
0.0
 10
7.750096
 20
234.054456
 30
0.0
  0
LINE
  5
20b
100
AcDbEntity
  8
Layer_1
 62
7
100
AcDbLine
 10
7.750096
 20
234.054456
 30
0.0
 11
8.749981
 21
234.054456
 31
0.0
  0
LINE
  5
20c
100
AcDbEntity
  8
Layer_1
 62
7
100
AcDbLine
 10
8.749981
 20
234.054456
 30
0.0
 11
9.749894
 21
234.054456
 31
0.0
  0
LINE
  5
20d
100
AcDbEntity
  8
Layer_1
 62
7
100
AcDbLine
 10
9.749894
 20
234.054456
 30
0.0
 11
10.250387
 21
234.054456
 31
0.0
  0
LINE
  5
20e
100
AcDbEntity
  8
Layer_1
 62
7
100
AcDbLine
 10
10.250387
 20
234.054456
 30
0.0
 11
10.250387
 21
232.804297
 31
0.0
  0
LINE
  5
20f
100
AcDbEntity
  8
Layer_1
 62
7
100
AcDbLine
 10
10.250387
 20
232.804297
 30
0.0
 11
13.750056
 21
232.804297
 31
0.0
  0
LINE
  5
210
100
AcDbEntity
  8
Layer_1
 62
7
100
AcDbLine
 10
13.750056
 20
232.804297
 30
0.0
 11
13.750056
 21
229.804585
 31
0.0
  0
LINE
  5
211
100
AcDbEntity
  8
Layer_1
 62
7
100
AcDbLine
 10
13.750056
 20
229.804585
 30
0.0
 11
10.250387
 21
229.804585
 31
0.0
  0
LINE
  5
212
100
AcDbEntity
  8
Layer_1
 62
7
100
AcDbLine
 10
10.250387
 20
229.804585
 30
0.0
 11
10.250387
 21
228.554425
 31
0.0
  0
LINE
  5
213
100
AcDbEntity
  8
Layer_1
 62
7
100
AcDbLine
 10
10.250387
 20
228.554425
 30
0.0
 11
7.750096
 21
228.554425
 31
0.0
  0
SPLINE
  5
214
100
AcDbEntity
  8
Layer_1
 62
7
100
AcDbSpline
 70
8
 71
3
 72
8
 73
4
 74
0
 40
0
 40
0
 40
0
 40
0
 40
1
 40
1
 40
1
 40
1
 10
7.750096
 20
228.554425
 30
0.0
 10
7.568684
 20
227.664183
 30
0.0
 10
6.607830
 20
228.477012
 30
0.0
 10
7.250139
 20
228.804672
 30
0.0
  0
LINE
  5
215
100
AcDbEntity
  8
Layer_1
 62
7
100
AcDbLine
 10
7.250139
 20
228.804672
 30
0.0
 11
7.250139
 21
229.804585
 31
0.0
  0
LINE
  5
216
100
AcDbEntity
  8
Layer_1
 62
7
100
AcDbLine
 10
7.250139
 20
229.804585
 30
0.0
 11
3.199991
 21
229.804585
 31
0.0
  0
LINE
  5
217
100
AcDbEntity
  8
Layer_1
 62
7
100
AcDbLine
 10
3.199991
 20
229.804585
 30
0.0
 11
3.199991
 21
227.804786
 31
0.0
  0
LINE
  5
218
100
AcDbEntity
  8
Layer_1
 62
7
100
AcDbLine
 10
3.199991
 20
227.804786
 30
0.0
 11
0.249992
 21
227.804786
 31
0.0
  0
LINE
  5
219
100
AcDbEntity
  8
Layer_1
 62
7
100
AcDbLine
 10
0.249992
 20
227.804786
 30
0.0
 11
0.249992
 21
217.804637
 31
0.0
  0
LINE
  5
21a
100
AcDbEntity
  8
Layer_1
 62
7
100
AcDbLine
 10
0.249992
 20
217.804637
 30
0.0
 11
3.249978
 21
217.804637
 31
0.0
  0
LINE
  5
21b
100
AcDbEntity
  8
Layer_1
 62
7
100
AcDbLine
 10
3.249978
 20
217.804637
 30
0.0
 11
3.249978
 21
169.348946
 31
0.0
  0
LINE
  5
21c
100
AcDbEntity
  8
Layer_1
 62
7
100
AcDbLine
 10
3.249978
 20
169.348946
 30
0.0
 11
0.249992
 21
169.348946
 31
0.0
  0
LINE
  5
21d
100
AcDbEntity
  8
Layer_1
 62
7
100
AcDbLine
 10
0.249992
 20
169.348946
 30
0.0
 11
0.249992
 21
159.348797
 31
0.0
  0
LINE
  5
21e
100
AcDbEntity
  8
Layer_1
 62
7
100
AcDbLine
 10
0.249992
 20
159.348797
 30
0.0
 11
3.199991
 21
159.348797
 31
0.0
  0
LINE
  5
21f
100
AcDbEntity
  8
Layer_1
 62
7
100
AcDbLine
 10
3.199991
 20
159.348797
 30
0.0
 11
3.199991
 21
157.348998
 31
0.0
  0
LINE
  5
220
100
AcDbEntity
  8
Layer_1
 62
7
100
AcDbLine
 10
3.199991
 20
157.348998
 30
0.0
 11
7.250139
 21
157.348998
 31
0.0
  0
LINE
  5
221
100
AcDbEntity
  8
Layer_1
 62
7
100
AcDbLine
 10
7.250139
 20
157.348998
 30
0.0
 11
7.250139
 21
157.661531
 31
0.0
  0
LINE
  5
222
100
AcDbEntity
  8
Layer_1
 62
7
100
AcDbLine
 10
7.250139
 20
157.661531
 30
0.0
 11
7.250139
 21
158.348883
 31
0.0
  0
SPLINE
  5
223
100
AcDbEntity
  8
Layer_1
 62
7
100
AcDbSpline
 70
8
 71
3
 72
8
 73
4
 74
0
 40
0
 40
0
 40
0
 40
0
 40
1
 40
1
 40
1
 40
1
 10
7.250139
 20
158.348883
 30
0.0
 10
6.568036
 20
158.713119
 30
0.0
 10
7.550424
 20
159.498456
 30
0.0
 10
7.750096
 20
158.599155
 30
0.0
  0
LINE
  5
224
100
AcDbEntity
  8
Layer_1
 62
7
100
AcDbLine
 10
7.750096
 20
158.599155
 30
0.0
 11
8.749981
 21
158.599155
 31
0.0
  0
LINE
  5
225
100
AcDbEntity
  8
Layer_1
 62
7
100
AcDbLine
 10
8.749981
 20
158.599155
 30
0.0
 11
9.749894
 21
158.599155
 31
0.0
  0
LINE
  5
226
100
AcDbEntity
  8
Layer_1
 62
7
100
AcDbLine
 10
9.749894
 20
158.599155
 30
0.0
 11
10.250387
 21
158.599155
 31
0.0
  0
LINE
  5
227
100
AcDbEntity
  8
Layer_1
 62
7
100
AcDbLine
 10
10.250387
 20
158.599155
 30
0.0
 11
10.250387
 21
157.348998
 31
0.0
  0
LINE
  5
228
100
AcDbEntity
  8
Layer_1
 62
7
100
AcDbLine
 10
10.250387
 20
157.348998
 30
0.0
 11
13.750056
 21
157.348998
 31
0.0
  0
LINE
  5
229
100
AcDbEntity
  8
Layer_1
 62
7
100
AcDbLine
 10
13.750056
 20
157.348998
 30
0.0
 11
13.750056
 21
154.348722
 31
0.0
  0
LINE
  5
22a
100
AcDbEntity
  8
Layer_1
 62
7
100
AcDbLine
 10
13.750056
 20
154.348722
 30
0.0
 11
10.250387
 21
154.348722
 31
0.0
  0
LINE
  5
22b
100
AcDbEntity
  8
Layer_1
 62
7
100
AcDbLine
 10
10.250387
 20
154.348722
 30
0.0
 11
10.250387
 21
153.099127
 31
0.0
  0
LINE
  5
22c
100
AcDbEntity
  8
Layer_1
 62
7
100
AcDbLine
 10
10.250387
 20
153.099127
 30
0.0
 11
7.750096
 21
153.099127
 31
0.0
  0
SPLINE
  5
22d
100
AcDbEntity
  8
Layer_1
 62
7
100
AcDbSpline
 70
8
 71
3
 72
8
 73
4
 74
0
 40
0
 40
0
 40
0
 40
0
 40
1
 40
1
 40
1
 40
1
 10
7.750096
 20
153.099127
 30
0.0
 10
7.568684
 20
152.208885
 30
0.0
 10
6.607830
 20
153.021149
 30
0.0
 10
7.250139
 20
153.348837
 30
0.0
  0
LINE
  5
22e
100
AcDbEntity
  8
Layer_1
 62
7
100
AcDbLine
 10
7.250139
 20
153.348837
 30
0.0
 11
7.250139
 21
154.348722
 31
0.0
  0
LINE
  5
22f
100
AcDbEntity
  8
Layer_1
 62
7
100
AcDbLine
 10
7.250139
 20
154.348722
 30
0.0
 11
3.199991
 21
154.348722
 31
0.0
  0
LINE
  5
230
100
AcDbEntity
  8
Layer_1
 62
7
100
AcDbLine
 10
3.199991
 20
154.348722
 30
0.0
 11
3.199991
 21
152.348923
 31
0.0
  0
LINE
  5
231
100
AcDbEntity
  8
Layer_1
 62
7
100
AcDbLine
 10
3.199991
 20
152.348923
 30
0.0
 11
0.249992
 21
152.348923
 31
0.0
  0
LINE
  5
232
100
AcDbEntity
  8
Layer_1
 62
7
100
AcDbLine
 10
0.249992
 20
152.348923
 30
0.0
 11
0.249992
 21
142.348774
 31
0.0
  0
LINE
  5
233
100
AcDbEntity
  8
Layer_1
 62
7
100
AcDbLine
 10
0.249992
 20
142.348774
 30
0.0
 11
3.249978
 21
142.348774
 31
0.0
  0
LINE
  5
234
100
AcDbEntity
  8
Layer_1
 62
7
100
AcDbLine
 10
3.249978
 20
142.348774
 30
0.0
 11
3.249978
 21
130.949477
 31
0.0
  0
LINE
  5
235
100
AcDbEntity
  8
Layer_1
 62
7
100
AcDbLine
 10
3.249978
 20
130.949477
 30
0.0
 11
64.750148
 21
130.949477
 31
0.0
  0
LINE
  5
236
100
AcDbEntity
  8
Layer_1
 62
7
100
AcDbLine
 10
64.750148
 20
130.949477
 30
0.0
 11
64.750148
 21
127.949003
 31
0.0
  0
ENDSEC
  0
SECTION
  2
OBJECTS
  0
DICTIONARY
  5
C
330
0
100
AcDbDictionary
  3
ACAD_GROUP
350
D
  3
ACAD_MLINESTYLE
350
17
  0
DICTIONARY
  5
D
330
C
100
AcDbDictionary
  0
DICTIONARY
  5
1A
330
C
100
AcDbDictionary
  0
DICTIONARY
  5
17
330
C
100
AcDbDictionary
  3
STANDARD
350
18
  0
DICTIONARY
  5
19
330
C
100
AcDbDictionary
  0
ENDSEC
  0
EOF
